SplineFontDB: 3.0
FontName: Jinko-Regular
FullName: Jinko Regular
FamilyName: Jinko
Weight: Book
Copyright: (c) 2012 vernon adams
Version: 1.000;PS (version unavailable);hotconv 1.0.57;makeotf.lib2.0.21895 DEVELOPMENT
ItalicAngle: 0
UnderlinePosition: -50
UnderlineWidth: 50
Ascent: 1638
Descent: 410
sfntRevision: 0x00010000
LayerCount: 2
Layer: 0 1 "Back"  1
Layer: 1 1 "Fore"  0
NeedsXUIDChange: 1
XUID: [1021 14 500265001 77129]
FSType: 0
OS2Version: 1
OS2_WeightWidthSlopeOnly: 0
OS2_UseTypoMetrics: 1
CreationTime: 1337175247
ModificationTime: 1337176614
PfmFamily: 81
TTFWeight: 400
TTFWidth: 5
LineGap: 0
VLineGap: 0
Panose: 0 0 0 0 0 0 0 0 0 0
OS2TypoAscent: 426
OS2TypoAOffset: 1
OS2TypoDescent: -221
OS2TypoDOffset: 1
OS2TypoLinegap: 0
OS2WinAscent: 0
OS2WinAOffset: 1
OS2WinDescent: 0
OS2WinDOffset: 1
HheadAscent: 0
HheadAOffset: 1
HheadDescent: 0
HheadDOffset: 1
OS2SubXSize: 1331
OS2SubYSize: 1228
OS2SubXOff: 0
OS2SubYOff: 153
OS2SupXSize: 1331
OS2SupYSize: 1228
OS2SupXOff: 0
OS2SupYOff: 716
OS2StrikeYSize: 50
OS2StrikeYPos: 619
OS2Vendor: 'newt'
OS2CodePages: 00000001.00000000
OS2UnicodeRanges: a00000ef.0000204a.00000000.00000000
Lookup: 258 0 0 "'kern' Horizontal Kerning in Latin lookup 0"  {"'kern' Horizontal Kerning in Latin lookup 0 per glyph data 0"  "'kern' Horizontal Kerning in Latin lookup 0 kerning class 1"  } ['kern' ('DFLT' <'dflt' > 'latn' <'dflt' > ) ]
MarkAttachClasses: 1
DEI: 91125
KernClass2: 33 26 "'kern' Horizontal Kerning in Latin lookup 0 kerning class 1" 
 89 A Agrave Aacute Acircumflex Atilde Adieresis Aring Amacron Abreve Aogonek uni0200 uni0202
 9 B uni1E02
 119 D O Q Eth Ograve Oacute Ocircumflex Otilde Odieresis Oslash Dcaron Omacron Obreve Ohungarumlaut uni020C uni020E uni1E0A
 1 F
 1 K
 1 L
 9 P uni1E56
 44 R Racute Rcommaaccent Rcaron uni0210 uni0212
 24 T Tcaron uni021A uni1E6A
 103 U Ugrave Uacute Ucircumflex Udieresis Utilde Umacron Ubreve Uring Uhungarumlaut Uogonek uni0214 uni0216
 1 V
 37 W Wcircumflex Wgrave Wacute Wdieresis

StartChar: .notdef
Encoding: 65536 -1 0
Width: 1024
Flags: HW
LayerCount: 2
Fore
SplineSet
102 -391 m 1,0,-1
 102 1481 l 1,1,-1
 922 1481 l 1,2,-1
 922 -391 l 1,3,-1
 102 -391 l 1,0,-1
204 -289 m 1,4,-1
 820 -289 l 1,5,-1
 820 1379 l 1,6,-1
 204 1379 l 1,7,-1
 204 -289 l 1,4,-1
EndSplineSet
EndChar

StartChar: exclam
Encoding: 33 33 4
Width: 451
Flags: HW
LayerCount: 2
Fore
SplineSet
225 -2 m 128,-1,1
 162 -2 162 -2 118.5 41 c 128,-1,2
 75 84 75 84 75 146 c 128,-1,3
 75 208 75 208 119 252 c 128,-1,4
 163 296 163 296 225 296 c 128,-1,5
 287 296 287 296 331.5 252.5 c 0,6,7
 376 208 376 208 376 146 c 128,-1,8
 376 84 376 84 332 41 c 128,-1,0
 288 -2 288 -2 225 -2 c 128,-1,1
194 485 m 1,9,-1
 105 1481 l 1,10,-1
 348 1481 l 1,11,-1
 260 485 l 1,12,-1
 194 485 l 1,9,-1
EndSplineSet
EndChar

StartChar: quotedbl
Encoding: 34 34 5
Width: 768
Flags: HW
LayerCount: 2
Fore
SplineSet
130 944 m 1,0,-1
 88 1481 l 1,1,-1
 293 1481 l 1,2,-1
 251 944 l 1,3,-1
 130 944 l 1,0,-1
519 944 m 1,4,-1
 475 1481 l 1,5,-1
 681 1481 l 1,6,-1
 637 944 l 1,7,-1
 519 944 l 1,4,-1
EndSplineSet
EndChar

StartChar: numbersign
Encoding: 35 35 6
Width: 1253
Flags: HW
LayerCount: 2
Fore
SplineSet
190 55 m 1,0,-1
 277 455 l 1,1,-1
 32 455 l 1,2,-1
 32 544 l 1,3,-1
 296 544 l 1,4,-1
 400 997 l 1,5,-1
 114 997 l 1,6,-1
 114 1082 l 1,7,-1
 419 1082 l 1,8,-1
 492 1410 l 1,9,-1
 627 1410 l 1,10,-1
 556 1082 l 1,11,-1
 868 1082 l 1,12,-1
 939 1410 l 1,13,-1
 1073 1410 l 1,14,-1
 1002 1082 l 1,15,-1
 1219 1082 l 1,16,-1
 1219 997 l 1,17,-1
 979 997 l 1,18,-1
 877 544 l 1,19,-1
 1153 544 l 1,20,-1
 1153 455 l 1,21,-1
 855 455 l 1,22,-1
 768 55 l 1,23,-1
 639 55 l 1,24,-1
 724 455 l 1,25,-1
 409 455 l 1,26,-1
 323 55 l 1,27,-1
 190 55 l 1,0,-1
431 543 m 1,28,-1
 747 543 l 1,29,-1
 851 999 l 1,30,-1
 534 999 l 1,31,-1
 431 543 l 1,28,-1
EndSplineSet
EndChar

StartChar: dollar
Encoding: 36 36 7
Width: 1145
Flags: HW
LayerCount: 2
Fore
SplineSet
634 656 m 1,0,-1
 634 122 l 1,1,2
 784 138 784 138 853.5 208.5 c 128,-1,3
 923 279 923 279 923 373 c 0,4,5
 923 432 923 432 913 469.5 c 128,-1,6
 903 507 903 507 872 542 c 0,7,8
 818 603 818 603 634 656 c 1,0,-1
533 844 m 1,9,-1
 533 1357 l 1,10,11
 390 1339 390 1339 316.5 1267 c 128,-1,12
 243 1195 243 1195 243 1102 c 0,13,14
 244 1015 244 1015 294 957 c 0,15,16
 352 890 352 890 533 844 c 1,9,-1
533 682 m 1,17,18
 293 735 293 735 184 829.5 c 128,-1,19
 75 924 75 924 75 1096.5 c 128,-1,20
 75 1269 75 1269 203 1377 c 128,-1,21
 331 1485 331 1485 533 1501 c 1,22,-1
 533 1617 l 1,23,-1
 634 1617 l 1,24,-1
 634 1502 l 1,25,26
 882 1494 882 1494 1045 1397 c 1,27,-1
 1030 1259 l 1,28,-1
 1013 1259 l 1,29,30
 956 1296 956 1296 847.5 1328 c 128,-1,31
 739 1360 739 1360 634 1362 c 1,32,-1
 634 820 l 1,33,34
 762 789 762 789 844 756 c 128,-1,35
 926 723 926 723 986 673 c 0,36,37
 1098 579 1098 579 1097 387 c 0,38,39
 1096 204 1096 204 964 98 c 0,40,41
 837 -4 837 -4 634 -20 c 1,42,-1
 634 -134 l 1,43,-1
 533 -134 l 1,44,-1
 533 -23 l 1,45,46
 253 -17 253 -17 45 126 c 1,47,-1
 69 266 l 1,48,-1
 98 266 l 1,49,50
 175 196 175 196 297.5 158.5 c 128,-1,51
 420 121 420 121 533 118 c 1,52,-1
 533 682 l 1,17,18
EndSplineSet
EndChar

StartChar: percent
Encoding: 37 37 8
Width: 1719
Flags: HW
LayerCount: 2
Fore
SplineSet
239 889.5 m 128,-1,1
 284 824 284 824 377.5 824 c 128,-1,2
 471 824 471 824 516 893 c 128,-1,3
 561 962 561 962 561 1111.5 c 128,-1,4
 561 1261 561 1261 517 1325.5 c 128,-1,5
 473 1390 473 1390 379 1390 c 128,-1,6
 285 1390 285 1390 239.5 1322 c 128,-1,7
 194 1254 194 1254 194 1104.5 c 128,-1,0
 194 955 194 955 239 889.5 c 128,-1,1
378 725 m 0,8,9
 66 725 66 725 66 1100 c 0,10,11
 66 1394 66 1394 256 1462 c 0,12,13
 310 1482 310 1482 380 1481 c 0,14,15
 687 1481 687 1481 687 1110 c 0,16,17
 687 943 687 943 619 838 c 0,18,19
 546 725 546 725 378 725 c 0,8,9
404 0 m 1,20,-1
 1173 1481 l 1,21,-1
 1313 1481 l 1,22,-1
 551 0 l 1,23,-1
 404 0 l 1,20,-1
1204.5 164 m 128,-1,25
 1249 98 1249 98 1342 98 c 128,-1,26
 1435 98 1435 98 1481 167 c 128,-1,27
 1527 236 1527 236 1527 385 c 128,-1,28
 1527 534 1527 534 1482.5 598 c 128,-1,29
 1438 662 1438 662 1344 662 c 128,-1,30
 1250 662 1250 662 1205 595 c 128,-1,31
 1160 528 1160 528 1160 379 c 128,-1,24
 1160 230 1160 230 1204.5 164 c 128,-1,25
1343 -1 m 1,32,33
 1031 -1 1031 -1 1031 374 c 0,34,35
 1031 540 1031 540 1099 644 c 0,36,37
 1173 756 1173 756 1343 756 c 0,38,39
 1653 756 1653 756 1653 385 c 0,40,41
 1653 218 1653 218 1585 113 c 0,42,43
 1511 -1 1511 -1 1343 -1 c 1,32,33
EndSplineSet
EndChar

StartChar: ampersand
Encoding: 38 38 9
Width: 1420
Flags: HW
LayerCount: 2
Fore
SplineSet
1047 111 m 1,0,1
 868 -23 868 -23 611.5 -23 c 128,-1,2
 355 -23 355 -23 203 86.5 c 128,-1,3
 51 196 51 196 51 388 c 0,4,5
 51 565 51 565 181 697 c 0,6,7
 251 768 251 768 354 814 c 1,8,9
 152 1002 152 1002 152 1172 c 0,10,11
 152 1419 152 1419 426 1484 c 0,12,13
 506 1503 506 1503 608.5 1503 c 128,-1,14
 711 1503 711 1503 789.5 1476 c 128,-1,15
 868 1449 868 1449 916 1403 c 0,16,17
 1007 1315 1007 1315 1006 1187 c 0,18,19
 1006 1179 1006 1179 1006 1170 c 1,20,21
 1006 930 1006 930 587 771 c 1,22,23
 591 768 591 768 820.5 535 c 128,-1,24
 1050 302 1050 302 1053 298 c 1,25,26
 1100 348 1100 348 1138 450 c 128,-1,27
 1176 552 1176 552 1189 670 c 1,28,-1
 1328 654 l 1,29,30
 1318 520 1318 520 1273 401.5 c 128,-1,31
 1228 283 1228 283 1152 205 c 1,32,-1
 1209 154 l 2,33,34
 1266 102 1266 102 1324 51 c 2,35,-1
 1381 0 l 1,36,-1
 1166 0 l 1,37,38
 1107 55 1107 55 1047 111 c 1,0,1
941 207 m 1,39,-1
 439 712 l 1,40,41
 353 670 353 670 281 583.5 c 128,-1,42
 209 497 209 497 209 383.5 c 128,-1,43
 209 270 209 270 307.5 194.5 c 128,-1,44
 406 119 406 119 614 119 c 0,45,46
 722 119 722 119 789.5 138.5 c 128,-1,47
 857 158 857 158 941 207 c 1,39,-1
586 1379 m 1,48,49
 325 1369 325 1369 313 1170 c 1,50,51
 313 1107 313 1107 351.5 1044.5 c 128,-1,52
 390 982 390 982 493 870 c 1,53,54
 678 930 678 930 768.5 1007.5 c 128,-1,55
 859 1085 859 1085 859 1169 c 0,56,57
 859 1379 859 1379 586 1379 c 1,48,49
EndSplineSet
EndChar

StartChar: quotesingle
Encoding: 39 39 10
Width: 386
Flags: HW
LayerCount: 2
Fore
SplineSet
127 893 m 1,0,-1
 87 1481 l 1,1,-1
 304 1481 l 1,2,-1
 229 893 l 1,3,-1
 127 893 l 1,0,-1
EndSplineSet
EndChar

StartChar: parenleft
Encoding: 40 40 11
Width: 577
Flags: HW
LayerCount: 2
Fore
SplineSet
413 -225 m 1,0,1
 296 -100 296 -100 220 20 c 0,2,3
 50 288 50 288 50 640 c 0,4,5
 50 1091 50 1091 413 1481 c 1,6,-1
 534 1481 l 1,7,-1
 534 1445 l 1,8,9
 215 1081 215 1081 215 637 c 128,-1,10
 215 193 215 193 534 -187 c 1,11,-1
 534 -225 l 1,12,-1
 413 -225 l 1,0,1
EndSplineSet
EndChar

StartChar: parenright
Encoding: 41 41 12
Width: 578
Flags: HW
LayerCount: 2
Fore
SplineSet
166 -225 m 1,0,-1
 45 -225 l 1,1,-1
 45 -187 l 1,2,3
 364 193 364 193 364 637 c 128,-1,4
 364 1081 364 1081 45 1445 c 1,5,-1
 45 1481 l 1,6,-1
 166 1481 l 1,7,8
 529 1091 529 1091 529 640 c 0,9,10
 529 288 529 288 359 20 c 0,11,12
 283 -100 283 -100 166 -225 c 1,0,-1
EndSplineSet
EndChar

StartChar: asterisk
Encoding: 42 42 13
Width: 981
Flags: HW
LayerCount: 2
Fore
SplineSet
112 1282 m 0,0,1
 140 1310 140 1310 174 1312 c 0,2,3
 175 1312 175 1312 176 1312 c 0,4,5
 210 1312 210 1312 238 1295 c 0,6,7
 268 1278 268 1278 303.5 1247 c 0,8,9
 340 1216 340 1216 392 1164 c 2,10,-1
 452 1103 l 1,11,12
 448 1120 448 1120 435 1168.5 c 128,-1,13
 422 1217 422 1217 415 1247 c 0,14,15
 394 1337 394 1337 394 1387.5 c 128,-1,16
 394 1438 394 1438 423.5 1464.5 c 128,-1,17
 453 1491 453 1491 492 1491 c 128,-1,18
 531 1491 531 1491 560.5 1464 c 128,-1,19
 590 1437 590 1437 590 1398.5 c 128,-1,20
 590 1360 590 1360 583 1318.5 c 128,-1,21
 576 1277 576 1277 569 1247 c 128,-1,22
 562 1217 562 1217 549 1168.5 c 128,-1,23
 536 1120 536 1120 532 1103 c 1,24,-1
 592 1164 l 2,25,26
 693 1265 693 1265 736 1289 c 0,27,28
 777 1313 777 1313 811 1313 c 0,29,-1
 812 1312 l 0,30,31
 846 1312 846 1312 873.5 1283.5 c 128,-1,32
 901 1255 901 1255 901 1205.5 c 128,-1,33
 901 1156 901 1156 848 1127 c 1,34,35
 792 1095 792 1095 686.5 1066.5 c 128,-1,36
 581 1038 581 1038 571 1035 c 1,37,38
 582 1032 582 1032 654 1012 c 0,39,40
 792 975 792 975 846 945 c 128,-1,41
 900 915 900 915 900 867 c 0,42,43
 900 866 900 866 900 865 c 0,44,45
 899 816 899 816 871.5 787.5 c 0,46,47
 844 758 844 758 810 758 c 0,48,49
 809 758 809 758 808 758 c 0,50,51
 774 758 774 758 746 775 c 0,52,53
 716 792 716 792 680.5 823 c 0,54,55
 644 854 644 854 592 906 c 2,56,-1
 532 967 l 1,57,58
 536 950 536 950 549 901.5 c 128,-1,59
 562 853 562 853 569 823 c 0,60,61
 590 733 590 733 590 682.5 c 128,-1,62
 590 632 590 632 560.5 605.5 c 128,-1,63
 531 579 531 579 492 579 c 128,-1,64
 453 579 453 579 423.5 606 c 128,-1,65
 394 633 394 633 394 671.5 c 128,-1,66
 394 710 394 710 401 751.5 c 128,-1,67
 408 793 408 793 415 823 c 128,-1,68
 422 853 422 853 435 901.5 c 128,-1,69
 448 950 448 950 452 967 c 1,70,-1
 392 906 l 2,71,72
 291 805 291 805 248 781 c 0,73,74
 207 757 207 757 173 757 c 0,75,-1
 172 758 l 0,76,77
 138 758 138 758 110.5 786.5 c 128,-1,78
 83 815 83 815 83 864.5 c 128,-1,79
 83 914 83 914 136 943 c 1,80,81
 192 975 192 975 297.5 1003.5 c 128,-1,82
 403 1032 403 1032 413 1035 c 1,83,84
 402 1038 402 1038 330 1058 c 0,85,86
 192 1095 192 1095 138 1125 c 128,-1,87
 84 1155 84 1155 84 1203 c 0,88,89
 83 1252 83 1252 112 1282 c 0,0,1
EndSplineSet
EndChar

StartChar: plus
Encoding: 43 43 14
Width: 1200
Flags: HW
LayerCount: 2
Fore
SplineSet
525 76 m 1,0,-1
 525 495 l 1,1,-1
 93 495 l 1,2,-1
 93 632 l 1,3,-1
 525 632 l 1,4,-1
 525 1038 l 1,5,-1
 663 1038 l 1,6,-1
 663 632 l 1,7,-1
 1106 632 l 1,8,-1
 1106 495 l 1,9,-1
 663 495 l 1,10,-1
 663 76 l 1,11,-1
 525 76 l 1,0,-1
EndSplineSet
EndChar

StartChar: comma
Encoding: 44 44 15
Width: 401
Flags: HW
LayerCount: 2
Fore
SplineSet
103 -232 m 1,0,-1
 132 279 l 1,1,-1
 325 279 l 1,2,-1
 212 -232 l 1,3,-1
 103 -232 l 1,0,-1
EndSplineSet
EndChar

StartChar: hyphen
Encoding: 45 45 16
Width: 792
Flags: HW
LayerCount: 2
Fore
SplineSet
98 562 m 1,0,-1
 98 717 l 1,1,-1
 694 717 l 1,2,-1
 694 562 l 1,3,-1
 98 562 l 1,0,-1
EndSplineSet
EndChar

StartChar: period
Encoding: 46 46 17
Width: 484
Flags: HW
LayerCount: 2
Fore
SplineSet
349.5 41.5 m 128,-1,1
 307 -1 307 -1 245.5 -1 c 128,-1,2
 184 -1 184 -1 141 41.5 c 128,-1,3
 98 84 98 84 98 144.5 c 128,-1,4
 98 205 98 205 141.5 248 c 128,-1,5
 185 291 185 291 246 291 c 128,-1,6
 307 291 307 291 349.5 248 c 128,-1,7
 392 205 392 205 392 144.5 c 128,-1,0
 392 84 392 84 349.5 41.5 c 128,-1,1
EndSplineSet
EndChar

StartChar: slash
Encoding: 47 47 18
Width: 852
Flags: HW
LayerCount: 2
Fore
SplineSet
-5 0 m 1,0,-1
 684 1481 l 1,1,-1
 856 1481 l 1,2,-1
 170 0 l 1,3,-1
 -5 0 l 1,0,-1
EndSplineSet
EndChar

StartChar: zero
Encoding: 48 48 19
Width: 1320
Flags: HW
LayerCount: 2
Fore
SplineSet
555 130 m 128,-1,1
 605 118 605 118 671 118 c 128,-1,2
 737 118 737 118 792.5 135.5 c 128,-1,3
 848 153 848 153 886 182 c 128,-1,4
 924 211 924 211 951.5 258 c 128,-1,5
 979 305 979 305 995 353.5 c 128,-1,6
 1011 402 1011 402 1020 470 c 0,7,8
 1034 575 1034 575 1034 693 c 128,-1,9
 1034 811 1034 811 1031 874 c 128,-1,10
 1028 937 1028 937 1018 1004.5 c 128,-1,11
 1008 1072 1008 1072 991.5 1122.5 c 128,-1,12
 975 1173 975 1173 947.5 1220 c 128,-1,13
 920 1267 920 1267 882 1297 c 128,-1,14
 844 1327 844 1327 789.5 1344.5 c 128,-1,15
 735 1362 735 1362 667 1362 c 128,-1,16
 599 1362 599 1362 544.5 1344.5 c 128,-1,17
 490 1327 490 1327 452 1298 c 128,-1,18
 414 1269 414 1269 386 1222.5 c 128,-1,19
 358 1176 358 1176 341.5 1126 c 0,20,21
 326 1076 326 1076 316 1008 c 0,22,23
 300 896 300 896 300 778.5 c 128,-1,24
 300 661 300 661 302 607.5 c 128,-1,25
 304 554 304 554 310 493 c 128,-1,26
 316 432 316 432 328 387.5 c 128,-1,27
 340 343 340 343 358 298 c 128,-1,28
 376 253 376 253 404 222 c 128,-1,29
 432 191 432 191 468.5 166.5 c 128,-1,0
 505 142 505 142 555 130 c 128,-1,1
654 -23 m 0,30,31
 514 -23 514 -23 406 27 c 128,-1,32
 298 77 298 77 235 176 c 0,33,34
 115 365 115 365 115 725 c 0,35,36
 116 1101 116 1101 232 1295 c 0,37,38
 357 1503 357 1503 667 1503 c 0,39,40
 1023 1503 1023 1503 1143 1214 c 0,41,42
 1218 1034 1218 1034 1218 736 c 0,43,44
 1218 277 1218 277 1046 107 c 0,45,46
 914 -23 914 -23 654 -23 c 0,30,31
EndSplineSet
EndChar

StartChar: one
Encoding: 49 49 20
Width: 961
Flags: HW
LayerCount: 2
Fore
SplineSet
168 0 m 1,0,-1
 168 137 l 1,1,-1
 444 137 l 1,2,-1
 444 1265 l 1,3,-1
 166 1191 l 1,4,-1
 166 1317 l 1,5,6
 358 1358 358 1358 416 1416 c 0,7,8
 442 1442 442 1442 459 1481 c 1,9,-1
 626 1481 l 1,10,-1
 626 137 l 1,11,-1
 898 137 l 1,12,-1
 898 0 l 1,13,-1
 168 0 l 1,0,-1
EndSplineSet
EndChar

StartChar: two
Encoding: 50 50 21
Width: 1172
Flags: HW
LayerCount: 2
Fore
SplineSet
112 0 m 1,0,-1
 112 156 l 1,1,2
 438 459 438 459 536 557 c 0,3,4
 790 811 790 811 855 966 c 0,5,6
 883 1033 883 1033 883 1083.5 c 128,-1,7
 883 1134 883 1134 876.5 1171 c 128,-1,8
 870 1208 870 1208 851 1244.5 c 128,-1,9
 832 1281 832 1281 802 1306 c 0,10,11
 735 1362 735 1362 603 1362 c 0,12,13
 410 1362 410 1362 218 1264 c 0,14,15
 182 1246 182 1246 172 1237 c 1,16,-1
 135 1371 l 1,17,18
 192 1421 192 1421 330.5 1462 c 128,-1,19
 469 1503 469 1503 591 1503 c 0,20,21
 821 1503 821 1503 943.5 1400 c 128,-1,22
 1066 1297 1066 1297 1066 1115 c 0,23,24
 1066 965 1066 965 975 825 c 0,25,26
 902 712 902 712 832.5 636.5 c 128,-1,27
 763 561 763 561 719 516 c 128,-1,28
 675 471 675 471 597 397.5 c 128,-1,29
 519 324 519 324 463.5 274 c 128,-1,30
 408 224 408 224 312 137 c 1,31,-1
 1056 137 l 1,32,-1
 1056 0 l 1,33,-1
 112 0 l 1,0,-1
EndSplineSet
EndChar

StartChar: three
Encoding: 51 51 22
Width: 1164
Flags: HW
LayerCount: 2
Fore
SplineSet
541 -23 m 0,0,1
 396 -23 396 -23 287.5 13.5 c 128,-1,2
 179 50 179 50 128 87 c 1,3,-1
 128 218 l 1,4,-1
 172 218 l 1,5,6
 212 183 212 183 318.5 150.5 c 128,-1,7
 425 118 425 118 549 118 c 0,8,9
 906 118 906 118 906 398 c 0,10,11
 906 552 906 552 809.5 641 c 128,-1,12
 713 730 713 730 511 730 c 2,13,-1
 357 730 l 1,14,-1
 357 854 l 1,15,-1
 500 854 l 2,16,17
 846 854 846 854 846 1111 c 0,18,19
 846 1362 846 1362 542 1362 c 0,20,21
 385 1362 385 1362 321 1341 c 0,22,23
 210 1305 210 1305 178 1279 c 1,24,-1
 128 1279 l 1,25,-1
 128 1399 l 1,26,27
 279 1503 279 1503 546 1503 c 0,28,29
 904 1503 904 1503 1000 1269 c 0,30,31
 1026 1205 1026 1205 1026 1133 c 0,32,33
 1026 995 1026 995 948 910.5 c 128,-1,34
 870 826 870 826 745 797 c 1,35,36
 893 765 893 765 986.5 660 c 128,-1,37
 1080 555 1080 555 1080 404 c 0,38,39
 1080 188 1080 188 939.5 82.5 c 128,-1,40
 799 -23 799 -23 541 -23 c 0,0,1
EndSplineSet
EndChar

StartChar: four
Encoding: 52 52 23
Width: 1192
Flags: HW
LayerCount: 2
Fore
SplineSet
785 0 m 1,0,-1
 785 286 l 1,1,-1
 71 286 l 1,2,-1
 71 430 l 1,3,-1
 716 1481 l 1,4,-1
 968 1481 l 1,5,-1
 968 421 l 1,6,-1
 1134 421 l 1,7,-1
 1134 286 l 1,8,-1
 968 286 l 1,9,-1
 968 0 l 1,10,-1
 785 0 l 1,0,-1
251 421 m 1,11,-1
 785 421 l 1,12,-1
 785 1329 l 1,13,-1
 251 421 l 1,11,-1
EndSplineSet
EndChar

StartChar: five
Encoding: 53 53 24
Width: 1214
Flags: HW
LayerCount: 2
Fore
SplineSet
984.5 89 m 128,-1,1
 847 -23 847 -23 582 -23 c 128,-1,2
 317 -23 317 -23 142 78 c 1,3,-1
 142 217 l 1,4,-1
 193 217 l 1,5,6
 256 154 256 154 424 128 c 0,7,8
 494 118 494 118 584 118 c 128,-1,9
 674 118 674 118 748 141 c 128,-1,10
 822 164 822 164 863 205 c 0,11,12
 941 283 941 283 941 400 c 0,13,14
 941 564 941 564 842 642 c 0,15,16
 707 749 707 749 389 774 c 1,17,-1
 182 792 l 1,18,-1
 182 1481 l 1,19,-1
 991 1481 l 1,20,-1
 991 1344 l 1,21,-1
 342 1344 l 1,22,-1
 342 914 l 2,23,24
 342 913 342 913 468 905 c 1,25,26
 776 889 776 889 949 767 c 128,-1,27
 1122 645 1122 645 1122 423 c 128,-1,0
 1122 201 1122 201 984.5 89 c 128,-1,1
EndSplineSet
EndChar

StartChar: six
Encoding: 54 54 25
Width: 1234
Flags: HW
LayerCount: 2
Fore
SplineSet
989 107.5 m 128,-1,1
 851 -23 851 -23 626.5 -23 c 128,-1,2
 402 -23 402 -23 262 127.5 c 128,-1,3
 122 278 122 278 122 536 c 0,4,5
 122 766 122 766 210 982 c 128,-1,6
 298 1198 298 1198 468 1336 c 0,7,8
 645 1480 645 1480 885 1481 c 1,9,-1
 918 1349 l 1,10,11
 790 1348 790 1348 681.5 1293.5 c 0,12,13
 574 1238 574 1238 498 1146 c 0,14,15
 347 961 347 961 301 702 c 1,16,17
 372 844 372 844 582 882 c 0,18,19
 628 890 628 890 667 890 c 0,20,21
 787 890 787 890 890 840.5 c 128,-1,22
 993 791 993 791 1060 689.5 c 128,-1,23
 1127 588 1127 588 1127 453 c 0,24,0
 1127 238 1127 238 989 107.5 c 128,-1,1
615 118 m 0,25,26
 871 118 871 118 933 326 c 0,27,28
 950 384 950 384 950 447 c 128,-1,29
 950 510 950 510 930.5 562.5 c 128,-1,30
 911 615 911 615 875 658 c 0,31,32
 795 753 795 753 647 753 c 0,33,34
 398 754 398 754 332 548 c 0,35,36
 314 490 314 490 313 422 c 0,37,38
 313 303 313 303 395 210.5 c 128,-1,39
 477 118 477 118 615 118 c 0,25,26
EndSplineSet
EndChar

StartChar: seven
Encoding: 55 55 26
Width: 1119
Flags: HW
LayerCount: 2
Fore
SplineSet
305 0 m 1,0,-1
 841 1344 l 1,1,-1
 284 1344 l 1,2,-1
 284 1151 l 1,3,-1
 116 1151 l 1,4,-1
 116 1481 l 1,5,-1
 1022 1481 l 1,6,-1
 1022 1349 l 1,7,-1
 489 0 l 1,8,-1
 305 0 l 1,0,-1
EndSplineSet
EndChar

StartChar: eight
Encoding: 56 56 27
Width: 1254
Flags: HW
LayerCount: 2
Fore
SplineSet
627 -23 m 0,0,1
 506 -23 506 -23 404 9.5 c 128,-1,2
 302 42 302 42 236 96 c 0,3,4
 96 211 96 211 96 358 c 0,5,6
 96 532 96 532 271 670 c 0,7,8
 351 733 351 733 472 794 c 1,9,10
 291 887 291 887 215 977.5 c 128,-1,11
 139 1068 139 1068 139 1169 c 0,12,13
 139 1311 139 1311 277 1407 c 128,-1,14
 415 1503 415 1503 634.5 1503 c 128,-1,15
 854 1503 854 1503 987.5 1412 c 128,-1,16
 1121 1321 1121 1321 1121 1189 c 128,-1,17
 1121 1057 1121 1057 1058 962 c 128,-1,18
 995 867 995 867 845 780 c 1,19,20
 1158 626 1158 626 1158 424 c 128,-1,21
 1158 222 1158 222 1015.5 99.5 c 128,-1,22
 873 -23 873 -23 627 -23 c 0,0,1
636 118 m 0,23,24
 849 118 849 118 932 240 c 0,25,26
 974 302 974 302 974 379 c 0,27,28
 974 582 974 582 576 727 c 1,29,30
 366 615 366 615 296 473 c 0,31,32
 270 421 270 421 271 369 c 0,33,34
 271 118 271 118 636 118 c 0,23,24
740 835 m 1,35,36
 743 838 743 838 765.5 856 c 128,-1,37
 788 874 788 874 803 887.5 c 128,-1,38
 818 901 818 901 843 926 c 128,-1,39
 868 951 868 951 885.5 976 c 0,40,41
 902 1001 902 1001 920 1032 c 0,42,43
 956 1095 956 1095 956 1180 c 128,-1,44
 956 1265 956 1265 867.5 1313.5 c 128,-1,45
 779 1362 779 1362 643 1362 c 0,46,47
 394 1362 394 1362 338 1234 c 0,48,49
 324 1203 324 1203 324 1161.5 c 128,-1,50
 324 1120 324 1120 366 1069 c 128,-1,51
 408 1018 408 1018 472 974 c 0,52,53
 608 881 608 881 740 835 c 1,35,36
EndSplineSet
EndChar

StartChar: nine
Encoding: 57 57 28
Width: 1221
Flags: HW
LayerCount: 2
Fore
SplineSet
348 -23 m 1,0,-1
 320 104 l 1,1,2
 447 105 447 105 558 160 c 128,-1,3
 669 215 669 215 745 306 c 0,4,5
 904 497 904 497 933 748 c 1,6,7
 862 612 862 612 656 576 c 0,8,9
 610 568 610 568 546.5 568 c 128,-1,10
 483 568 483 568 401 597 c 128,-1,11
 319 626 319 626 254 680 c 128,-1,12
 189 734 189 734 150 818 c 128,-1,13
 111 902 111 902 111 1004 c 0,14,15
 111 1219 111 1219 248.5 1350 c 128,-1,16
 386 1481 386 1481 610.5 1481 c 128,-1,17
 835 1481 835 1481 975 1330.5 c 128,-1,18
 1115 1180 1115 1180 1115 922 c 0,19,20
 1114 618 1114 618 986 380 c 0,21,22
 848 126 848 126 616 29 c 0,23,24
 492 -23 492 -23 348 -23 c 1,0,-1
423.5 750 m 128,-1,26
 494 705 494 705 586.5 705 c 128,-1,27
 679 705 679 705 745 731.5 c 128,-1,28
 811 758 811 758 849 805 c 0,29,30
 924 898 924 898 924 1030 c 128,-1,31
 924 1162 924 1162 842 1262 c 128,-1,32
 760 1362 760 1362 623 1362 c 0,33,34
 410 1362 410 1362 332 1210 c 0,35,36
 288 1125 288 1125 288 1026 c 128,-1,37
 288 927 288 927 320.5 861 c 128,-1,25
 353 795 353 795 423.5 750 c 128,-1,26
EndSplineSet
EndChar

StartChar: colon
Encoding: 58 58 29
Width: 486
Flags: HW
LayerCount: 2
Fore
SplineSet
350 44.5 m 128,-1,1
 305 0 305 0 242.5 0 c 128,-1,2
 180 0 180 0 135.5 44.5 c 128,-1,3
 91 89 91 89 91 151.5 c 128,-1,4
 91 214 91 214 135.5 258.5 c 128,-1,5
 180 303 180 303 242.5 303 c 128,-1,6
 305 303 305 303 350 258.5 c 128,-1,7
 395 214 395 214 395 151.5 c 128,-1,0
 395 89 395 89 350 44.5 c 128,-1,1
350 773 m 128,-1,9
 305 728 305 728 242.5 728 c 128,-1,10
 180 728 180 728 135.5 773 c 128,-1,11
 91 818 91 818 91 880.5 c 128,-1,12
 91 943 91 943 135.5 987.5 c 128,-1,13
 180 1032 180 1032 242.5 1032 c 128,-1,14
 305 1032 305 1032 350 987.5 c 128,-1,15
 395 943 395 943 395 880.5 c 128,-1,8
 395 818 395 818 350 773 c 128,-1,9
EndSplineSet
EndChar

StartChar: semicolon
Encoding: 59 59 30
Width: 458
Flags: HW
LayerCount: 2
Fore
SplineSet
125 -232 m 1,0,-1
 154 279 l 1,1,-1
 346 279 l 1,2,-1
 233 -232 l 1,3,-1
 125 -232 l 1,0,-1
349 776 m 128,-1,5
 305 732 305 732 242.5 732 c 128,-1,6
 180 732 180 732 136 776 c 128,-1,7
 92 820 92 820 92 882.5 c 128,-1,8
 92 945 92 945 136 988.5 c 128,-1,9
 180 1032 180 1032 242.5 1032 c 128,-1,10
 305 1032 305 1032 349 988.5 c 128,-1,11
 393 945 393 945 393 882.5 c 128,-1,4
 393 820 393 820 349 776 c 128,-1,5
EndSplineSet
EndChar

StartChar: less
Encoding: 60 60 31
Width: 1114
Flags: HW
LayerCount: 2
Fore
SplineSet
1109 -14 m 1,0,-1
 1 504 l 1,1,-1
 1 641 l 1,2,-1
 1109 1157 l 1,3,-1
 1109 979 l 1,4,-1
 192 569 l 1,5,-1
 1109 155 l 1,6,-1
 1109 -14 l 1,0,-1
EndSplineSet
EndChar

StartChar: equal
Encoding: 61 61 32
Width: 1210
Flags: HW
LayerCount: 2
Fore
SplineSet
98 335 m 1,0,-1
 98 460 l 1,1,-1
 1112 460 l 1,2,-1
 1112 335 l 1,3,-1
 98 335 l 1,0,-1
98 793 m 1,4,-1
 98 918 l 1,5,-1
 1112 918 l 1,6,-1
 1112 793 l 1,7,-1
 98 793 l 1,4,-1
EndSplineSet
EndChar

StartChar: greater
Encoding: 62 62 33
Width: 1114
Flags: HW
LayerCount: 2
Fore
SplineSet
6 -14 m 1,0,-1
 6 165 l 1,1,-1
 923 575 l 1,2,-1
 6 989 l 1,3,-1
 6 1157 l 1,4,-1
 1114 640 l 1,5,-1
 1114 502 l 1,6,-1
 6 -14 l 1,0,-1
EndSplineSet
EndChar

StartChar: question
Encoding: 63 63 34
Width: 906
Flags: HW
LayerCount: 2
Fore
SplineSet
366 459 m 1,0,-1
 307 500 l 1,1,2
 475 732 475 732 525 809 c 0,3,4
 675 1041 675 1041 675 1145 c 0,5,6
 675 1364 675 1364 444 1364 c 0,7,8
 352 1364 352 1364 253 1328.5 c 128,-1,9
 154 1293 154 1293 73 1240 c 1,10,-1
 73 1384 l 1,11,12
 271 1503 271 1503 458.5 1503 c 128,-1,13
 646 1503 646 1503 740 1409 c 128,-1,14
 834 1315 834 1315 834 1174 c 0,15,16
 834 1018 834 1018 710 844 c 0,17,18
 604 694 604 694 455 548 c 0,19,20
 425 518 425 518 366 459 c 1,0,-1
350 -2 m 128,-1,22
 289 -2 289 -2 246 40 c 128,-1,23
 203 82 203 82 203 142.5 c 128,-1,24
 203 203 203 203 246 246 c 128,-1,25
 289 289 289 289 349.5 289 c 128,-1,26
 410 289 410 289 452 246 c 128,-1,27
 494 203 494 203 494 142 c 128,-1,28
 494 81 494 81 452.5 39.5 c 128,-1,21
 411 -2 411 -2 350 -2 c 128,-1,22
EndSplineSet
EndChar

StartChar: at
Encoding: 64 64 35
Width: 1691
Flags: HW
LayerCount: 2
Fore
SplineSet
1284 -1 m 1,0,1
 1102 -119 1102 -119 841 -119 c 0,2,3
 495 -119 495 -119 290 81 c 128,-1,4
 85 281 85 281 85 609 c 0,5,6
 85 772 85 772 144.5 912.5 c 128,-1,7
 204 1053 204 1053 308 1152.5 c 128,-1,8
 412 1252 412 1252 558.5 1308.5 c 128,-1,9
 705 1365 705 1365 895 1365 c 128,-1,10
 1085 1365 1085 1365 1252.5 1277 c 128,-1,11
 1420 1189 1420 1189 1513 1033 c 128,-1,12
 1606 877 1606 877 1606 669 c 128,-1,13
 1606 461 1606 461 1508 315.5 c 128,-1,14
 1410 170 1410 170 1259 170 c 0,15,16
 1176 170 1176 170 1116.5 215.5 c 128,-1,17
 1057 261 1057 261 1044 324 c 1,18,19
 1006 258 1006 258 929 226 c 128,-1,20
 852 194 852 194 767.5 194 c 128,-1,21
 683 194 683 194 614.5 226 c 128,-1,22
 546 258 546 258 504 314 c 0,23,24
 419 426 419 426 419 606.5 c 128,-1,25
 419 787 419 787 525.5 917 c 128,-1,26
 632 1047 632 1047 816 1047 c 0,27,28
 909 1047 909 1047 979 1007.5 c 128,-1,29
 1049 968 1049 968 1083 920 c 1,30,-1
 1104 1015 l 1,31,-1
 1206 1015 l 1,32,-1
 1144 470 l 2,33,34
 1140 439 1140 439 1140 399.5 c 128,-1,35
 1140 360 1140 360 1151 327 c 128,-1,36
 1162 294 1162 294 1182 280 c 0,37,38
 1218 254 1218 254 1267 254 c 1,39,40
 1361 254 1361 254 1426 367.5 c 128,-1,41
 1491 481 1491 481 1491 664 c 0,42,43
 1491 972 1491 972 1271 1142 c 0,44,45
 1117 1260 1117 1260 877 1261 c 0,46,47
 510 1261 510 1261 333 984 c 0,48,49
 230 823 230 823 230 608 c 0,50,51
 230 302 230 302 404 144 c 0,52,53
 572 -10 572 -10 843 -9 c 0,54,55
 1057 -9 1057 -9 1241 92 c 1,56,-1
 1284 -1 l 1,0,1
699 296 m 0,57,58
 740 278 740 278 790.5 278.5 c 128,-1,59
 841 279 841 279 885 292.5 c 128,-1,60
 929 306 929 306 956 326 c 0,61,62
 1012 366 1012 366 1018 385 c 1,63,-1
 1068 838 l 1,64,65
 1034 886 1034 886 974.5 918.5 c 128,-1,66
 915 951 915 951 835 951 c 0,67,68
 707 951 707 951 632.5 863.5 c 128,-1,69
 558 776 558 776 558 589 c 0,70,71
 558 356 558 356 699 296 c 0,57,58
EndSplineSet
EndChar

StartChar: A
Encoding: 65 65 36
Width: 1302
Flags: HW
LayerCount: 2
Fore
SplineSet
23 0 m 1,0,-1
 524 1481 l 1,1,-1
 759 1481 l 1,2,-1
 1279 0 l 1,3,-1
 1095 0 l 1,4,-1
 964 397 l 1,5,-1
 339 397 l 1,6,-1
 206 0 l 1,7,-1
 23 0 l 1,0,-1
384 533 m 1,8,-1
 915 533 l 1,9,-1
 643 1347 l 1,10,-1
 384 533 l 1,8,-1
EndSplineSet
EndChar

StartChar: B
Encoding: 66 66 37
Width: 1272
Flags: HW
LayerCount: 2
Fore
SplineSet
135 0 m 1,0,-1
 135 1481 l 1,1,-1
 556 1481 l 2,2,3
 829 1481 829 1481 964.5 1396 c 128,-1,4
 1100 1311 1100 1311 1100 1106 c 0,5,6
 1100 1010 1100 1010 1037.5 929.5 c 128,-1,7
 975 849 975 849 864 820 c 1,8,-1
 864 813 l 1,9,10
 1013 794 1013 794 1107 691.5 c 128,-1,11
 1201 589 1201 589 1201 461 c 128,-1,12
 1201 333 1201 333 1160.5 245 c 128,-1,13
 1120 157 1120 157 1044 104 c 0,14,15
 895 0 895 0 634 0 c 2,16,-1
 135 0 l 1,0,-1
318 137 m 1,17,-1
 664 137 l 2,18,19
 950 137 950 137 1004 335 c 0,20,21
 1018 386 1018 386 1018 451 c 0,22,23
 1018 571 1018 571 913 649 c 128,-1,24
 808 727 808 727 665 727 c 2,25,-1
 318 727 l 1,26,-1
 318 137 l 1,17,-1
318 856 m 1,27,-1
 607 856 l 2,28,29
 764 856 764 856 840.5 926.5 c 128,-1,30
 917 997 917 997 917 1106.5 c 128,-1,31
 917 1216 917 1216 836 1280 c 128,-1,32
 755 1344 755 1344 604 1344 c 2,33,-1
 318 1344 l 1,34,-1
 318 856 l 1,27,-1
EndSplineSet
EndChar

StartChar: C
Encoding: 67 67 38
Width: 1227
Flags: HW
LayerCount: 2
Fore
SplineSet
738 -23 m 0,0,1
 403 -23 403 -23 249 172.5 c 128,-1,2
 95 368 95 368 95 739 c 128,-1,3
 95 1110 95 1110 268.5 1306.5 c 128,-1,4
 442 1503 442 1503 745 1503 c 0,5,6
 878 1503 878 1503 992 1465.5 c 128,-1,7
 1106 1428 1106 1428 1162 1384 c 1,8,-1
 1120 1255 l 1,9,10
 1035 1322 1035 1322 880 1350 c 0,11,12
 815 1362 815 1362 738 1362 c 128,-1,13
 661 1362 661 1362 592 1342 c 128,-1,14
 523 1322 523 1322 463 1276 c 0,15,16
 404 1230 404 1230 362 1160 c 0,17,18
 274 1010 274 1010 273 743 c 0,19,20
 274 404 274 404 400 258 c 0,21,22
 520 119 520 119 744 118 c 0,23,24
 849 118 849 118 944.5 147 c 128,-1,25
 1040 176 1040 176 1084 204 c 1,26,-1
 1127 233 l 1,27,-1
 1160 105 l 1,28,29
 1094 49 1094 49 986 13 c 128,-1,30
 878 -23 878 -23 738 -23 c 0,0,1
EndSplineSet
EndChar

StartChar: D
Encoding: 68 68 39
Width: 1416
Flags: HW
LayerCount: 2
Fore
SplineSet
318 137 m 1,0,-1
 574 137 l 2,1,2
 862 137 862 137 999.5 283.5 c 128,-1,3
 1137 430 1137 430 1137 732 c 0,4,5
 1137 1034 1137 1034 994 1188 c 128,-1,6
 851 1342 851 1342 579 1342 c 2,7,-1
 318 1342 l 1,8,-1
 318 137 l 1,0,-1
135 0 m 1,9,-1
 135 1481 l 1,10,-1
 552 1481 l 2,11,12
 921 1481 921 1481 1120 1296.5 c 128,-1,13
 1319 1112 1319 1112 1319 739 c 0,14,15
 1319 366 1319 366 1128 183 c 128,-1,16
 937 0 937 0 547 0 c 2,17,-1
 135 0 l 1,9,-1
EndSplineSet
EndChar

StartChar: E
Encoding: 69 69 40
Width: 1052
Flags: HW
LayerCount: 2
Fore
SplineSet
135 0 m 1,0,-1
 135 1481 l 1,1,-1
 955 1481 l 1,2,-1
 955 1344 l 1,3,-1
 318 1344 l 1,4,-1
 318 851 l 1,5,-1
 890 851 l 1,6,-1
 890 715 l 1,7,-1
 318 715 l 1,8,-1
 318 137 l 1,9,-1
 976 137 l 1,10,-1
 976 0 l 1,11,-1
 135 0 l 1,0,-1
EndSplineSet
EndChar

StartChar: F
Encoding: 70 70 41
Width: 994
Flags: HW
LayerCount: 2
Fore
SplineSet
135 0 m 1,0,-1
 135 1481 l 1,1,-1
 965 1481 l 1,2,-1
 965 1343 l 1,3,-1
 318 1343 l 1,4,-1
 318 855 l 1,5,-1
 907 855 l 1,6,-1
 907 717 l 1,7,-1
 318 717 l 1,8,-1
 318 0 l 1,9,-1
 135 0 l 1,0,-1
EndSplineSet
EndChar

StartChar: G
Encoding: 71 71 42
Width: 1412
Flags: HW
LayerCount: 2
Fore
SplineSet
776 -23 m 0,0,1
 95 -23 95 -23 95 746 c 0,2,3
 95 1113 95 1113 278.5 1308 c 128,-1,4
 462 1503 462 1503 798 1503 c 0,5,6
 1035 1503 1035 1503 1246 1395 c 1,7,-1
 1206 1259 l 1,8,9
 1206 1265 1206 1265 1146.5 1288.5 c 128,-1,10
 1087 1312 1087 1312 1039 1326 c 0,11,12
 921 1362 921 1362 806 1362 c 0,13,14
 557 1362 557 1362 417 1210.5 c 128,-1,15
 277 1059 277 1059 277 739.5 c 128,-1,16
 277 420 277 420 402 269 c 128,-1,17
 527 118 527 118 799 118 c 0,18,19
 895 118 895 118 977.5 134.5 c 128,-1,20
 1060 151 1060 151 1096.5 166.5 c 128,-1,21
 1133 182 1133 182 1131 184 c 1,22,-1
 1131 665 l 1,23,-1
 731 665 l 1,24,-1
 731 806 l 1,25,-1
 1290 806 l 1,26,-1
 1290 106 l 1,27,28
 1237 70 1237 70 1147 38 c 0,29,30
 977 -23 977 -23 776 -23 c 0,0,1
EndSplineSet
EndChar

StartChar: H
Encoding: 72 72 43
Width: 1390
Flags: HW
LayerCount: 2
Fore
SplineSet
135 0 m 1,0,-1
 135 1481 l 1,1,-1
 318 1481 l 1,2,-1
 318 830 l 1,3,-1
 1072 830 l 1,4,-1
 1072 1481 l 1,5,-1
 1255 1481 l 1,6,-1
 1255 0 l 1,7,-1
 1072 0 l 1,8,-1
 1072 697 l 1,9,-1
 318 697 l 1,10,-1
 318 0 l 1,11,-1
 135 0 l 1,0,-1
EndSplineSet
EndChar

StartChar: I
Encoding: 73 73 44
Width: 828
Flags: HW
LayerCount: 2
Fore
SplineSet
99 0 m 1,0,-1
 99 125 l 1,1,-1
 323 125 l 1,2,-1
 323 1355 l 1,3,-1
 99 1355 l 1,4,-1
 99 1481 l 1,5,-1
 730 1481 l 1,6,-1
 730 1355 l 1,7,-1
 506 1355 l 1,8,-1
 506 125 l 1,9,-1
 730 125 l 1,10,-1
 730 0 l 1,11,-1
 99 0 l 1,0,-1
EndSplineSet
EndChar

StartChar: J
Encoding: 74 74 45
Width: 884
Flags: HW
LayerCount: 2
Fore
SplineSet
378 -19 m 0,0,1
 241 -19 241 -19 95 54 c 1,2,-1
 127 184 l 1,3,-1
 151 172 l 1,4,5
 258 118 258 118 361 118.5 c 128,-1,6
 464 119 464 119 516 188.5 c 128,-1,7
 568 258 568 258 568 432 c 2,8,-1
 568 1344 l 1,9,-1
 329 1344 l 1,10,-1
 329 1481 l 1,11,-1
 751 1481 l 1,12,-1
 751 430 l 2,13,14
 751 202 751 202 663.5 91.5 c 128,-1,15
 576 -19 576 -19 378 -19 c 0,0,1
EndSplineSet
EndChar

StartChar: K
Encoding: 75 75 46
Width: 1253
Flags: HW
LayerCount: 2
Fore
SplineSet
135 0 m 1,0,-1
 135 1481 l 1,1,-1
 318 1481 l 1,2,-1
 318 707 l 1,3,-1
 319 707 l 1,4,-1
 602 1029 l 1,5,6
 619 1044 619 1044 892 1372 c 1,7,-1
 982 1481 l 1,8,-1
 1219 1481 l 1,9,-1
 705 892 l 1,10,-1
 1246 0 l 1,11,-1
 1037 0 l 1,12,13
 948 152 948 152 645 662 c 1,14,-1
 578 772 l 1,15,-1
 318 495 l 1,16,-1
 318 0 l 1,17,-1
 135 0 l 1,0,-1
EndSplineSet
EndChar

StartChar: L
Encoding: 76 76 47
Width: 1021
Flags: HW
LayerCount: 2
Fore
SplineSet
135 0 m 1,0,-1
 135 1481 l 1,1,-1
 318 1481 l 1,2,-1
 318 137 l 1,3,-1
 986 137 l 1,4,-1
 986 0 l 1,5,-1
 135 0 l 1,0,-1
EndSplineSet
EndChar

StartChar: M
Encoding: 77 77 48
Width: 1576
Flags: HW
LayerCount: 2
Fore
SplineSet
135 0 m 1,0,-1
 135 1481 l 1,1,-1
 318 1481 l 1,2,-1
 793 636 l 1,3,-1
 1266 1481 l 1,4,-1
 1441 1481 l 1,5,-1
 1441 0 l 1,6,-1
 1259 0 l 1,7,-1
 1259 955 l 1,8,-1
 1266 1171 l 1,9,-1
 866 449 l 1,10,-1
 722 449 l 1,11,-1
 311 1171 l 1,12,-1
 318 955 l 1,13,-1
 318 0 l 1,14,-1
 135 0 l 1,0,-1
EndSplineSet
EndChar

StartChar: N
Encoding: 78 78 49
Width: 1500
Flags: HW
LayerCount: 2
Fore
SplineSet
135 0 m 1,0,-1
 135 1481 l 1,1,-1
 281 1481 l 1,2,3
 1187 286 1187 286 1189 283 c 1,4,-1
 1183 536 l 1,5,-1
 1183 1481 l 1,6,-1
 1365 1481 l 1,7,-1
 1365 0 l 1,8,-1
 1204 0 l 1,9,-1
 311 1180 l 1,10,-1
 317 981 l 1,11,-1
 317 0 l 1,12,-1
 135 0 l 1,0,-1
EndSplineSet
EndChar

StartChar: O
Encoding: 79 79 50
Width: 1554
Flags: HW
LayerCount: 2
Fore
SplineSet
573 153 m 128,-1,1
 662 118 662 118 775.5 118 c 128,-1,2
 889 118 889 118 976.5 153 c 128,-1,3
 1064 188 1064 188 1119 245.5 c 128,-1,4
 1174 303 1174 303 1210 385 c 0,5,6
 1274 534 1274 534 1274 740 c 0,7,8
 1274 1208 1274 1208 978 1327 c 0,9,10
 890 1362 890 1362 776 1362 c 128,-1,11
 662 1362 662 1362 572.5 1325.5 c 128,-1,12
 483 1289 483 1289 428.5 1230.5 c 128,-1,13
 374 1172 374 1172 339 1088 c 0,14,15
 278 942 278 942 278 740 c 0,16,17
 278 403 278 403 430 245 c 0,18,0
 484 188 484 188 573 153 c 128,-1,1
777 -23 m 0,19,20
 434 -23 434 -23 262 186 c 0,21,22
 95 389 95 389 95 743.5 c 128,-1,23
 95 1098 95 1098 267.5 1300.5 c 128,-1,24
 440 1503 440 1503 777 1503 c 0,25,26
 1004 1502 1004 1502 1158 1408 c 0,27,28
 1460 1224 1460 1224 1459 740 c 0,29,30
 1459 259 1459 259 1158 73 c 0,31,32
 1003 -23 1003 -23 777 -23 c 0,19,20
EndSplineSet
EndChar

StartChar: P
Encoding: 80 80 51
Width: 1145
Flags: HW
LayerCount: 2
Fore
SplineSet
135 0 m 1,0,-1
 135 1481 l 1,1,-1
 537 1481 l 2,2,3
 810 1481 810 1481 944 1379.5 c 128,-1,4
 1078 1278 1078 1278 1078 1054 c 0,5,6
 1078 908 1078 908 1002 810 c 0,7,8
 855 622 855 622 464 622 c 2,9,-1
 318 622 l 1,10,-1
 318 0 l 1,11,-1
 135 0 l 1,0,-1
318 759 m 1,12,-1
 454 759 l 2,13,14
 680 759 680 759 788 829 c 128,-1,15
 896 899 896 899 896 1056 c 0,16,17
 896 1201 896 1201 823 1270 c 0,18,19
 745 1344 745 1344 535 1344 c 2,20,-1
 318 1344 l 1,21,-1
 318 759 l 1,12,-1
EndSplineSet
EndChar

StartChar: Q
Encoding: 81 81 52
Width: 1554
Flags: HW
LayerCount: 2
Fore
SplineSet
936 139 m 1,0,1
 1196 214 1196 214 1257 542 c 0,2,3
 1274 634 1274 634 1274 736.5 c 128,-1,4
 1274 839 1274 839 1260 925.5 c 128,-1,5
 1246 1012 1246 1012 1210.5 1094 c 128,-1,6
 1175 1176 1175 1176 1120 1234 c 0,7,8
 999 1362 999 1362 777 1362 c 0,9,10
 662 1362 662 1362 572.5 1325.5 c 128,-1,11
 483 1289 483 1289 428.5 1230.5 c 128,-1,12
 374 1172 374 1172 339 1088 c 0,13,14
 278 942 278 942 278 740 c 0,15,16
 278 403 278 403 428 246 c 0,17,18
 549 120 549 120 773 118 c 1,19,-1
 715 260 l 1,20,-1
 887 260 l 1,21,-1
 936 139 l 1,0,1
777 -23 m 0,22,23
 434 -23 434 -23 262 186 c 0,24,25
 95 389 95 389 95 743.5 c 128,-1,26
 95 1098 95 1098 267.5 1300.5 c 128,-1,27
 440 1503 440 1503 777 1503 c 0,28,29
 1004 1502 1004 1502 1158 1408 c 0,30,31
 1460 1224 1460 1224 1459 740 c 0,32,33
 1459 448 1459 448 1341 255 c 128,-1,34
 1223 62 1223 62 991 2 c 1,35,-1
 1133 -350 l 1,36,-1
 987 -407 l 1,37,-1
 830 -22 l 1,38,39
 813 -23 813 -23 777 -23 c 0,22,23
EndSplineSet
EndChar

StartChar: R
Encoding: 82 82 53
Width: 1257
Flags: HW
LayerCount: 2
Fore
SplineSet
1143 1100 m 0,0,1
 1143 807 1143 807 847 708 c 1,2,-1
 1219 47 l 1,3,-1
 1219 0 l 1,4,-1
 1043 0 l 1,5,-1
 666 685 l 1,6,-1
 318 685 l 1,7,-1
 318 0 l 1,8,-1
 135 0 l 1,9,-1
 135 1481 l 1,10,-1
 642 1481 l 2,11,12
 912 1482 912 1482 1037 1374 c 0,13,14
 1143 1282 1143 1282 1143 1100 c 0,0,1
318 822 m 1,15,-1
 641 822 l 2,16,17
 806 822 806 822 886 896 c 128,-1,18
 966 970 966 970 966 1092 c 0,19,20
 966 1344 966 1344 657 1344 c 2,21,-1
 318 1344 l 1,22,-1
 318 822 l 1,15,-1
EndSplineSet
EndChar

StartChar: S
Encoding: 83 83 54
Width: 1209
Flags: HW
LayerCount: 2
Fore
SplineSet
82 126 m 1,0,-1
 106 266 l 1,1,-1
 135 266 l 1,2,3
 216 194 216 194 344.5 156 c 128,-1,4
 473 118 473 118 580.5 118 c 128,-1,5
 688 118 688 118 763.5 140 c 128,-1,6
 839 162 839 162 880 200 c 0,7,8
 960 273 960 273 960 367.5 c 128,-1,9
 960 462 960 462 932.5 511.5 c 128,-1,10
 905 561 905 561 818.5 602.5 c 128,-1,11
 732 644 732 644 524.5 692.5 c 128,-1,12
 317 741 317 741 214.5 833.5 c 128,-1,13
 112 926 112 926 112 1104 c 128,-1,14
 112 1282 112 1282 260 1392.5 c 128,-1,15
 408 1503 408 1503 655 1503 c 128,-1,16
 902 1503 902 1503 1082 1397 c 1,17,-1
 1067 1259 l 1,18,-1
 1050 1259 l 1,19,20
 991 1297 991 1297 878 1329.5 c 128,-1,21
 765 1362 765 1362 659 1362 c 0,22,23
 472 1362 472 1362 376 1286 c 128,-1,24
 280 1210 280 1210 280 1102 c 0,25,26
 280 1010 280 1010 336 950 c 0,27,28
 400 882 400 882 610 834 c 1,29,30
 834 784 834 784 926 735 c 128,-1,31
 1018 686 1018 686 1056 640 c 0,32,33
 1134 545 1134 545 1134 400 c 128,-1,34
 1134 255 1134 255 1061 161 c 0,35,36
 918 -23 918 -23 608 -23 c 129,-1,37
 298 -23 298 -23 82 126 c 1,0,-1
EndSplineSet
EndChar

StartChar: T
Encoding: 84 84 55
Width: 1115
Flags: HW
LayerCount: 2
Fore
SplineSet
467 0 m 1,0,-1
 467 1344 l 1,1,-1
 23 1344 l 1,2,-1
 23 1481 l 1,3,-1
 1091 1481 l 1,4,-1
 1091 1344 l 1,5,-1
 650 1344 l 1,6,-1
 650 0 l 1,7,-1
 467 0 l 1,0,-1
EndSplineSet
EndChar

StartChar: U
Encoding: 85 85 56
Width: 1423
Flags: HW
LayerCount: 2
Fore
SplineSet
116 478 m 2,0,-1
 116 1481 l 1,1,-1
 298 1481 l 1,2,-1
 298 476 l 2,3,4
 298 118 298 118 711.5 118 c 128,-1,5
 1125 118 1125 118 1125 476 c 2,6,-1
 1125 1481 l 1,7,-1
 1308 1481 l 1,8,-1
 1308 478 l 2,9,10
 1308 234 1308 234 1147.5 105.5 c 128,-1,11
 987 -23 987 -23 715.5 -23 c 128,-1,12
 444 -23 444 -23 280 105 c 128,-1,13
 116 233 116 233 116 478 c 2,0,-1
EndSplineSet
EndChar

StartChar: V
Encoding: 86 86 57
Width: 1312
Flags: HW
LayerCount: 2
Fore
SplineSet
530 0 m 1,0,-1
 -17 1481 l 1,1,-1
 173 1481 l 1,2,-1
 660 115 l 1,3,-1
 661 115 l 1,4,-1
 1137 1481 l 1,5,-1
 1329 1481 l 1,6,-1
 792 0 l 1,7,-1
 530 0 l 1,0,-1
EndSplineSet
EndChar

StartChar: W
Encoding: 87 87 58
Width: 1963
Flags: HW
LayerCount: 2
Fore
SplineSet
410 0 m 1,0,-1
 12 1481 l 1,1,-1
 190 1481 l 1,2,-1
 504 284 l 1,3,-1
 507 284 l 1,4,-1
 577 529 l 1,5,-1
 860 1481 l 1,6,-1
 1119 1481 l 1,7,-1
 1397 526 l 1,8,-1
 1463 285 l 1,9,-1
 1524 525 l 1,10,-1
 1778 1481 l 1,11,-1
 1952 1481 l 1,12,-1
 1542 0 l 1,13,-1
 1366 0 l 1,14,-1
 993 1353 l 1,15,-1
 585 0 l 1,16,-1
 410 0 l 1,0,-1
EndSplineSet
EndChar

StartChar: X
Encoding: 88 88 59
Width: 1371
Flags: HW
LayerCount: 2
Fore
SplineSet
-1 0 m 1,0,-1
 581 741 l 1,1,-1
 31 1481 l 1,2,-1
 218 1481 l 1,3,-1
 681 848 l 1,4,-1
 802 1004 l 1,5,-1
 1159 1481 l 1,6,-1
 1372 1481 l 1,7,-1
 783 722 l 1,8,-1
 1337 0 l 1,9,-1
 1144 0 l 1,10,-1
 682 617 l 1,11,-1
 541 437 l 1,12,-1
 209 0 l 1,13,-1
 -1 0 l 1,0,-1
EndSplineSet
EndChar

StartChar: Y
Encoding: 89 89 60
Width: 1303
Flags: HW
LayerCount: 2
Fore
SplineSet
552 0 m 1,0,-1
 552 683 l 1,1,-1
 -42 1481 l 1,2,-1
 156 1481 l 1,3,-1
 642 827 l 1,4,-1
 1142 1481 l 1,5,-1
 1344 1481 l 1,6,-1
 734 687 l 1,7,-1
 734 0 l 1,8,-1
 552 0 l 1,0,-1
EndSplineSet
EndChar

StartChar: Z
Encoding: 90 90 61
Width: 1101
Flags: HW
LayerCount: 2
Fore
SplineSet
91 0 m 1,0,-1
 91 144 l 1,1,-1
 834 1344 l 1,2,-1
 98 1344 l 1,3,-1
 98 1481 l 1,4,-1
 1021 1481 l 1,5,-1
 1021 1345 l 1,6,-1
 284 137 l 1,7,-1
 1045 137 l 1,8,-1
 1045 0 l 1,9,-1
 91 0 l 1,0,-1
EndSplineSet
EndChar

StartChar: bracketleft
Encoding: 91 91 62
Width: 623
Flags: HW
LayerCount: 2
Fore
SplineSet
95 -211 m 1,0,-1
 95 1481 l 1,1,-1
 540 1481 l 1,2,-1
 540 1344 l 1,3,-1
 277 1344 l 1,4,-1
 277 -75 l 1,5,-1
 540 -75 l 1,6,-1
 540 -211 l 1,7,-1
 95 -211 l 1,0,-1
EndSplineSet
EndChar

StartChar: backslash
Encoding: 92 92 63
Width: 852
Flags: HW
LayerCount: 2
Fore
SplineSet
684 0 m 1,0,-1
 -6 1481 l 1,1,-1
 166 1481 l 1,2,-1
 854 0 l 1,3,-1
 684 0 l 1,0,-1
EndSplineSet
EndChar

StartChar: bracketright
Encoding: 93 93 64
Width: 624
Flags: HW
LayerCount: 2
Fore
SplineSet
85 -211 m 1,0,-1
 85 -75 l 1,1,-1
 347 -75 l 1,2,-1
 347 1344 l 1,3,-1
 85 1344 l 1,4,-1
 85 1481 l 1,5,-1
 530 1481 l 1,6,-1
 530 -211 l 1,7,-1
 85 -211 l 1,0,-1
EndSplineSet
EndChar

StartChar: asciicircum
Encoding: 94 94 65
Width: 1358
Flags: HW
LayerCount: 2
Fore
SplineSet
75 692 m 1,0,-1
 550 1481 l 1,1,-1
 781 1481 l 1,2,-1
 1284 694 l 1,3,-1
 1059 694 l 1,4,-1
 666 1366 l 1,5,-1
 290 692 l 1,6,-1
 75 692 l 1,0,-1
EndSplineSet
EndChar

StartChar: underscore
Encoding: 95 95 66
Width: 718
Flags: HW
LayerCount: 2
Fore
SplineSet
6 -120 m 1,0,-1
 6 0 l 1,1,-1
 712 0 l 1,2,-1
 712 -120 l 1,3,-1
 6 -120 l 1,0,-1
EndSplineSet
EndChar

StartChar: grave
Encoding: 96 96 67
Width: 422
Flags: HW
LayerCount: 2
Fore
SplineSet
417 1123 m 1,0,-1
 294 1123 l 1,1,-1
 11 1466 l 1,2,-1
 236 1466 l 1,3,-1
 417 1123 l 1,0,-1
EndSplineSet
EndChar

StartChar: a
Encoding: 97 97 68
Width: 1053
Flags: HW
LayerCount: 2
Fore
SplineSet
626 50.5 m 128,-1,1
 535 -21 535 -21 395.5 -21 c 128,-1,2
 256 -21 256 -21 165.5 60.5 c 128,-1,3
 75 142 75 142 73 274 c 1,4,5
 73 444 73 444 191 528 c 0,6,7
 296 603 296 603 524 622 c 0,8,9
 624 630 624 630 762 630 c 1,10,11
 762 790 762 790 709.5 854 c 128,-1,12
 657 918 657 918 539.5 918 c 128,-1,13
 422 918 422 918 321.5 892.5 c 128,-1,14
 221 867 221 867 179 848 c 1,15,-1
 139 981 l 1,16,17
 171 1002 171 1002 287 1030 c 128,-1,18
 403 1058 403 1058 516.5 1058 c 128,-1,19
 630 1058 630 1058 705 1035.5 c 128,-1,20
 780 1013 780 1013 825.5 975.5 c 0,21,22
 870 938 870 938 898 880 c 0,23,24
 944 782 944 782 945 619 c 2,25,-1
 945 0 l 1,26,-1
 762 0 l 1,27,-1
 762 239 l 1,28,0
 717 122 717 122 626 50.5 c 128,-1,1
431 116 m 0,29,30
 586 116 586 116 674 225.5 c 128,-1,31
 762 335 762 335 762 512 c 1,32,33
 459 512 459 512 344 448 c 0,34,35
 242 391 242 391 242 282 c 0,36,37
 242 203 242 203 299 159.5 c 128,-1,38
 356 116 356 116 431 116 c 0,29,30
EndSplineSet
EndChar

StartChar: b
Encoding: 98 98 69
Width: 1152
Flags: HW
LayerCount: 2
Fore
SplineSet
591 -21 m 0,0,1
 502 -21 502 -21 424.5 12 c 128,-1,2
 347 45 347 45 303 101 c 1,3,-1
 303 0 l 1,4,-1
 121 0 l 1,5,-1
 121 1481 l 1,6,-1
 303 1481 l 1,7,-1
 303 888 l 1,8,9
 343 964 343 964 442 1011 c 128,-1,10
 541 1058 541 1058 630.5 1058 c 128,-1,11
 720 1058 720 1058 797 1025.5 c 128,-1,12
 874 993 874 993 933 930 c 0,13,14
 1059 795 1059 795 1059 533 c 128,-1,15
 1059 271 1059 271 930.5 125 c 128,-1,16
 802 -21 802 -21 591 -21 c 0,0,1
303 198 m 1,17,18
 435 119 435 119 579.5 119 c 128,-1,19
 724 119 724 119 803 228.5 c 128,-1,20
 882 338 882 338 882 522.5 c 128,-1,21
 882 707 882 707 801.5 812.5 c 128,-1,22
 721 918 721 918 589 918 c 0,23,24
 500 918 500 918 411.5 864.5 c 128,-1,25
 323 811 323 811 303 764 c 1,26,-1
 303 198 l 1,17,18
EndSplineSet
EndChar

StartChar: c
Encoding: 99 99 70
Width: 1025
Flags: HW
LayerCount: 2
Fore
SplineSet
623 -21 m 0,0,1
 388 -21 388 -21 244 107 c 0,2,3
 94 242 94 242 93 512 c 0,4,5
 93 646 93 646 134 752 c 0,6,7
 174 858 174 858 246 924 c 0,8,9
 393 1058 393 1058 596 1058 c 128,-1,10
 799 1058 799 1058 961 966 c 1,11,-1
 925 829 l 1,12,13
 882 858 882 858 800.5 888 c 128,-1,14
 719 918 719 918 623 918 c 0,15,16
 463 918 463 918 366.5 808 c 128,-1,17
 270 698 270 698 270 513.5 c 128,-1,18
 270 329 270 329 362.5 224 c 128,-1,19
 455 119 455 119 616 119 c 128,-1,20
 777 119 777 119 919 204 c 1,21,-1
 952 67 l 1,22,23
 810 -21 810 -21 623 -21 c 0,0,1
EndSplineSet
EndChar

StartChar: d
Encoding: 100 100 71
Width: 1151
Flags: HW
LayerCount: 2
Fore
SplineSet
547 -21 m 1,0,1
 358 -20 358 -20 229 112 c 0,2,3
 93 251 93 251 93 511 c 0,4,5
 93 774 93 774 223 920 c 0,6,7
 346 1058 346 1058 531 1058 c 0,8,9
 625 1058 625 1058 715 1022.5 c 128,-1,10
 805 987 805 987 848 911 c 1,11,-1
 848 1481 l 1,12,-1
 1030 1481 l 1,13,-1
 1030 0 l 1,14,-1
 848 0 l 1,15,-1
 848 142 l 1,16,17
 811 68 811 68 729 26 c 128,-1,18
 647 -16 647 -16 547 -21 c 1,0,1
573 119 m 0,19,20
 665 119 665 119 748 161.5 c 128,-1,21
 831 204 831 204 848 247 c 1,22,-1
 848 793 l 1,23,24
 828 837 828 837 745.5 877.5 c 128,-1,25
 663 918 663 918 571 918 c 0,26,27
 438 918 438 918 354 813 c 128,-1,28
 270 708 270 708 270 522 c 128,-1,29
 270 336 270 336 346 227.5 c 128,-1,30
 422 119 422 119 573 119 c 0,19,20
EndSplineSet
EndChar

StartChar: e
Encoding: 101 101 72
Width: 1115
Flags: HW
LayerCount: 2
Fore
SplineSet
778.5 -7 m 128,-1,1
 707 -21 707 -21 612 -21 c 128,-1,2
 517 -21 517 -21 422 12.5 c 128,-1,3
 327 46 327 46 253 110 c 128,-1,4
 179 174 179 174 136 277 c 128,-1,5
 93 380 93 380 93 510 c 0,6,7
 93 763 93 763 232 910.5 c 128,-1,8
 371 1058 371 1058 585 1058 c 0,9,10
 698 1058 698 1058 785 1014 c 128,-1,11
 872 970 872 970 924 892 c 0,12,13
 1030 736 1030 736 1030 509 c 2,14,-1
 1030 475 l 1,15,-1
 269 475 l 1,16,17
 278 306 278 306 379.5 212.5 c 128,-1,18
 481 119 481 119 641 119 c 0,19,20
 729 119 729 119 813 149.5 c 128,-1,21
 897 180 897 180 947 228 c 1,22,-1
 967 228 l 1,23,-1
 1011 102 l 1,24,25
 979 68 979 68 914.5 37.5 c 128,-1,0
 850 7 850 7 778.5 -7 c 128,-1,1
272 596 m 1,26,-1
 856 596 l 1,27,28
 852 707 852 707 800 802 c 0,29,30
 772 854 772 854 717 886 c 128,-1,31
 662 918 662 918 587 918 c 0,32,33
 457 918 457 918 372 828 c 128,-1,34
 287 738 287 738 272 596 c 1,26,-1
EndSplineSet
EndChar

StartChar: f
Encoding: 102 102 73
Width: 706
Flags: HW
LayerCount: 2
Fore
SplineSet
515 1433 m 0,0,1
 589 1433 589 1433 672 1422 c 1,2,-1
 672 1281 l 1,3,4
 610 1292 610 1292 561 1292 c 128,-1,5
 512 1292 512 1292 479.5 1283.5 c 0,6,7
 446 1275 446 1275 424 1246 c 0,8,9
 386 1198 386 1198 387 1032 c 1,10,-1
 663 1032 l 1,11,-1
 663 907 l 1,12,-1
 388 907 l 1,13,-1
 388 0 l 1,14,-1
 205 0 l 1,15,-1
 205 907 l 1,16,-1
 25 907 l 1,17,-1
 25 1032 l 1,18,-1
 205 1032 l 1,19,-1
 205 1069 l 2,20,21
 204 1260 204 1260 272 1344 c 0,22,23
 344 1432 344 1432 515 1433 c 0,0,1
EndSplineSet
EndChar

StartChar: g
Encoding: 103 103 74
Width: 1151
Flags: HW
LayerCount: 2
Fore
SplineSet
557 -386 m 0,0,1
 474 -386 474 -386 388 -366 c 0,2,3
 262 -337 262 -337 219 -311 c 1,4,-1
 254 -179 l 1,5,6
 300 -205 300 -205 389 -227 c 128,-1,7
 478 -249 478 -249 558 -249 c 0,8,9
 715 -249 715 -249 781.5 -175 c 128,-1,10
 848 -101 848 -101 848 56 c 2,11,-1
 848 112 l 1,12,13
 738 -21 738 -21 543 -21 c 128,-1,14
 348 -21 348 -21 220.5 120.5 c 128,-1,15
 93 262 93 262 93 518 c 128,-1,16
 93 774 93 774 213 916 c 128,-1,17
 333 1058 333 1058 540 1058 c 0,18,19
 632 1058 632 1058 716.5 1012.5 c 128,-1,20
 801 967 801 967 847 892 c 1,21,-1
 847 1032 l 1,22,-1
 1030 1032 l 1,23,-1
 1030 144 l 2,24,25
 1030 -236 1030 -236 826 -336 c 0,26,27
 724 -386 724 -386 557 -386 c 0,0,1
563 918 m 0,28,29
 270 918 270 918 270 518 c 0,30,31
 270 331 270 331 349 225 c 128,-1,32
 428 119 428 119 564 119 c 0,33,34
 746 119 746 119 847 239 c 1,35,-1
 847 793 l 1,36,37
 798 853 798 853 716 885.5 c 128,-1,38
 634 918 634 918 563 918 c 0,28,29
EndSplineSet
EndChar

StartChar: h
Encoding: 104 104 75
Width: 1136
Flags: HW
LayerCount: 2
Fore
SplineSet
121 0 m 1,0,-1
 121 1481 l 1,1,-1
 303 1481 l 1,2,-1
 303 863 l 1,3,4
 363 957 363 957 469 1007.5 c 128,-1,5
 575 1058 575 1058 688 1058 c 0,6,7
 840 1058 840 1058 935.5 963 c 128,-1,8
 1031 868 1031 868 1031 691 c 2,9,-1
 1031 0 l 1,10,-1
 848 0 l 1,11,-1
 848 703 l 2,12,13
 848 868 848 868 706 908 c 0,14,15
 670 918 670 918 617 918 c 128,-1,16
 564 918 564 918 501.5 897.5 c 128,-1,17
 439 877 439 877 397 848 c 0,18,19
 303 783 303 783 303 746 c 2,20,-1
 303 0 l 1,21,-1
 121 0 l 1,0,-1
EndSplineSet
EndChar

StartChar: i
Encoding: 105 105 76
Width: 499
Flags: HW
LayerCount: 2
Fore
SplineSet
153 0 m 1,0,-1
 153 1032 l 1,1,-1
 336 1032 l 1,2,-1
 336 0 l 1,3,-1
 153 0 l 1,0,-1
251 1186 m 128,-1,5
 192 1186 192 1186 159 1222 c 128,-1,6
 126 1258 126 1258 126 1308 c 0,7,8
 126 1358 126 1358 158 1393 c 128,-1,9
 190 1428 190 1428 250 1428 c 0,10,11
 310 1428 310 1428 342 1392 c 128,-1,12
 374 1356 374 1356 374 1307 c 128,-1,13
 374 1258 374 1258 342 1222 c 128,-1,4
 310 1186 310 1186 251 1186 c 128,-1,5
EndSplineSet
EndChar

StartChar: j
Encoding: 106 106 77
Width: 522
Flags: HW
LayerCount: 2
Fore
SplineSet
-55 -228 m 1,0,1
 -4 -231 -4 -231 33.5 -231 c 128,-1,2
 71 -231 71 -231 91 -228 c 128,-1,3
 111 -225 111 -225 132 -212.5 c 128,-1,4
 153 -200 153 -200 164 -176 c 0,5,6
 189 -123 189 -123 189 -9 c 2,7,-1
 189 1032 l 1,8,-1
 372 1032 l 1,9,-1
 372 10 l 2,10,11
 372 -219 372 -219 297 -302 c 0,12,13
 233 -373 233 -373 96 -373 c 129,-1,14
 -41 -373 -41 -373 -55 -366 c 1,15,-1
 -55 -228 l 1,0,1
283 1186 m 128,-1,17
 224 1186 224 1186 191 1222.5 c 128,-1,18
 158 1259 158 1259 158 1308.5 c 128,-1,19
 158 1358 158 1358 190 1393.5 c 128,-1,20
 222 1429 222 1429 282 1429 c 128,-1,21
 342 1429 342 1429 374.5 1393 c 128,-1,22
 407 1357 407 1357 407 1308 c 128,-1,23
 407 1259 407 1259 374.5 1222.5 c 128,-1,16
 342 1186 342 1186 283 1186 c 128,-1,17
EndSplineSet
EndChar

StartChar: k
Encoding: 107 107 78
Width: 1062
Flags: HW
LayerCount: 2
Fore
SplineSet
115 0 m 1,0,-1
 115 1481 l 1,1,-1
 298 1481 l 1,2,-1
 298 583 l 1,3,-1
 827 1032 l 1,4,-1
 1024 1032 l 1,5,-1
 1024 988 l 1,6,-1
 583 607 l 1,7,-1
 1052 51 l 1,8,-1
 1052 0 l 1,9,-1
 878 0 l 1,10,-1
 449 528 l 1,11,-1
 298 410 l 1,12,-1
 298 0 l 1,13,-1
 115 0 l 1,0,-1
EndSplineSet
EndChar

StartChar: l
Encoding: 108 108 79
Width: 567
Flags: HW
LayerCount: 2
Fore
SplineSet
453 -9 m 2,0,1
 294 -8 294 -8 229 36 c 0,2,3
 205 52 205 52 189.5 66 c 128,-1,4
 174 80 174 80 163 106 c 128,-1,5
 152 132 152 132 146.5 150 c 128,-1,6
 141 168 141 168 138 202 c 0,7,8
 134 247 134 247 134 316 c 2,9,-1
 134 1481 l 1,10,-1
 316 1481 l 1,11,-1
 316 310 l 2,12,13
 316 251 316 251 323.5 219 c 128,-1,14
 331 187 331 187 355.5 166 c 128,-1,15
 380 145 380 145 421 138.5 c 128,-1,16
 462 132 462 132 535 132 c 1,17,-1
 535 -9 l 1,18,-1
 453 -9 l 2,0,1
EndSplineSet
EndChar

StartChar: m
Encoding: 109 109 80
Width: 1685
Flags: HW
LayerCount: 2
Fore
SplineSet
121 0 m 1,0,-1
 121 1032 l 1,1,-1
 303 1032 l 1,2,-1
 303 869 l 1,3,4
 352 957 352 957 446.5 1007.5 c 128,-1,5
 541 1058 541 1058 648 1058 c 0,6,7
 851 1058 851 1058 918 882 c 1,8,9
 982 968 982 968 1077.5 1013 c 128,-1,10
 1173 1058 1173 1058 1269 1058 c 0,11,12
 1409 1058 1409 1058 1494.5 963 c 128,-1,13
 1580 868 1580 868 1580 680 c 2,14,-1
 1580 0 l 1,15,-1
 1397 0 l 1,16,-1
 1397 658 l 2,17,18
 1397 918 1397 918 1202 918 c 0,19,20
 1139 918 1139 918 1075.5 886 c 128,-1,21
 1012 854 1012 854 976.5 817.5 c 128,-1,22
 941 781 941 781 941 760 c 2,23,-1
 941 0 l 1,24,-1
 759 0 l 1,25,-1
 759 683 l 2,26,27
 759 799 759 799 705.5 858.5 c 128,-1,28
 652 918 652 918 566 918 c 0,29,30
 480 918 480 918 401 861 c 128,-1,31
 322 804 322 804 303 748 c 1,32,-1
 303 0 l 1,33,-1
 121 0 l 1,0,-1
EndSplineSet
EndChar

StartChar: n
Encoding: 110 110 81
Width: 1136
Flags: HW
LayerCount: 2
Fore
SplineSet
121 0 m 1,0,-1
 121 1032 l 1,1,-1
 303 1032 l 1,2,-1
 303 863 l 1,3,4
 363 957 363 957 469 1007.5 c 128,-1,5
 575 1058 575 1058 688 1058 c 0,6,7
 840 1058 840 1058 935.5 963 c 128,-1,8
 1031 868 1031 868 1031 691 c 2,9,-1
 1031 0 l 1,10,-1
 848 0 l 1,11,-1
 848 703 l 2,12,13
 848 868 848 868 706 908 c 0,14,15
 670 918 670 918 617 918 c 128,-1,16
 564 918 564 918 501.5 897.5 c 128,-1,17
 439 877 439 877 397 848 c 0,18,19
 303 783 303 783 303 746 c 2,20,-1
 303 0 l 1,21,-1
 121 0 l 1,0,-1
EndSplineSet
EndChar

StartChar: o
Encoding: 111 111 82
Width: 1189
Flags: HW
LayerCount: 2
Fore
SplineSet
359.5 227.5 m 128,-1,1
 449 119 449 119 599.5 119 c 128,-1,2
 750 119 750 119 833.5 228.5 c 128,-1,3
 917 338 917 338 917 525.5 c 128,-1,4
 917 713 917 713 830.5 815.5 c 128,-1,5
 744 918 744 918 597.5 918 c 128,-1,6
 451 918 451 918 360.5 814 c 128,-1,7
 270 710 270 710 270 523 c 128,-1,0
 270 336 270 336 359.5 227.5 c 128,-1,1
780 10.5 m 128,-1,9
 692 -21 692 -21 603 -21 c 128,-1,10
 514 -21 514 -21 442.5 -2.5 c 128,-1,11
 371 16 371 16 306.5 58 c 128,-1,12
 242 100 242 100 195 162 c 128,-1,13
 148 224 148 224 120.5 316.5 c 128,-1,14
 93 409 93 409 93 522 c 128,-1,15
 93 635 93 635 122 727 c 128,-1,16
 151 819 151 819 198.5 879.5 c 128,-1,17
 246 940 246 940 312 981 c 0,18,19
 435 1058 435 1058 592 1058 c 0,20,21
 797 1058 797 1058 940 937 c 0,22,23
 1012 876 1012 876 1054 769.5 c 128,-1,24
 1096 663 1096 663 1096 522.5 c 128,-1,25
 1096 382 1096 382 1054 274.5 c 128,-1,26
 1012 167 1012 167 940 104.5 c 128,-1,8
 868 42 868 42 780 10.5 c 128,-1,9
EndSplineSet
EndChar

StartChar: p
Encoding: 112 112 83
Width: 1152
Flags: HW
LayerCount: 2
Fore
SplineSet
121 -388 m 1,0,-1
 121 1032 l 1,1,-1
 303 1032 l 1,2,-1
 303 890 l 1,3,4
 350 964 350 964 441.5 1011 c 128,-1,5
 533 1058 533 1058 626 1058 c 0,6,7
 832 1058 832 1058 945.5 915.5 c 128,-1,8
 1059 773 1059 773 1059 515 c 128,-1,9
 1059 257 1059 257 937.5 118 c 128,-1,10
 816 -21 816 -21 610 -21 c 128,-1,11
 404 -21 404 -21 303 109 c 1,12,-1
 303 -388 l 1,13,-1
 121 -388 l 1,0,-1
589 119 m 1,14,15
 726 119 726 119 801 224 c 128,-1,16
 876 329 876 329 876 516 c 0,17,18
 876 686 876 686 814 796 c 0,19,20
 745 918 745 918 591 918 c 1,21,22
 522 918 522 918 437 885.5 c 128,-1,23
 352 853 352 853 303 792 c 1,24,-1
 303 236 l 1,25,26
 340 190 340 190 402 162 c 0,27,28
 532 120 532 120 589 119 c 1,14,15
EndSplineSet
EndChar

StartChar: q
Encoding: 113 113 84
Width: 1151
Flags: HW
LayerCount: 2
Fore
SplineSet
848 -388 m 1,0,-1
 848 112 l 1,1,2
 744 -21 744 -21 549 -21 c 0,3,4
 353 -21 353 -21 225 119 c 0,5,6
 93 264 93 264 93 521 c 128,-1,7
 93 778 93 778 214.5 918 c 128,-1,8
 336 1058 336 1058 541 1058 c 0,9,10
 638 1058 638 1058 720.5 1021.5 c 128,-1,11
 803 985 803 985 848 913 c 1,12,-1
 848 1032 l 1,13,-1
 1031 1032 l 1,14,-1
 1031 -388 l 1,15,-1
 848 -388 l 1,0,-1
571 119 m 0,16,17
 634 119 634 119 716.5 147 c 128,-1,18
 799 175 799 175 848 236 c 1,19,-1
 848 792 l 1,20,21
 799 856 799 856 713.5 887 c 128,-1,22
 628 918 628 918 557.5 918 c 128,-1,23
 487 918 487 918 437 896.5 c 128,-1,24
 387 875 387 875 356.5 839 c 0,25,26
 326 804 326 804 307 750 c 0,27,28
 274 657 274 657 274 491 c 128,-1,29
 274 325 274 325 352.5 222 c 128,-1,30
 431 119 431 119 571 119 c 0,16,17
EndSplineSet
EndChar

StartChar: r
Encoding: 114 114 85
Width: 710
Flags: HW
LayerCount: 2
Fore
SplineSet
121 0 m 1,0,-1
 121 1032 l 1,1,-1
 303 1032 l 1,2,-1
 303 904 l 1,3,-1
 304 904 l 1,4,5
 351 958 351 958 431 997 c 128,-1,6
 511 1036 511 1036 588 1036 c 0,7,8
 665 1036 665 1036 703 1016 c 1,9,-1
 681 857 l 1,10,11
 627 880 627 880 551 880 c 0,12,13
 399 880 399 880 303 784 c 1,14,-1
 303 0 l 1,15,-1
 121 0 l 1,0,-1
EndSplineSet
EndChar

StartChar: s
Encoding: 115 115 86
Width: 969
Flags: HW
LayerCount: 2
Fore
SplineSet
88 71 m 1,0,-1
 114 200 l 1,1,-1
 141 200 l 1,2,3
 317 119 317 119 453 119 c 0,4,5
 732 119 732 119 732 289 c 0,6,7
 732 355 732 355 698 385 c 0,8,9
 639 437 639 437 479 471 c 1,10,11
 241 519 241 519 162 589 c 0,12,13
 84 658 84 658 84 782 c 128,-1,14
 84 906 84 906 183.5 982 c 128,-1,15
 283 1058 283 1058 479 1058 c 128,-1,16
 675 1058 675 1058 830 984 c 1,17,-1
 818 857 l 1,18,-1
 791 857 l 1,19,20
 630 918 630 918 487 918 c 0,21,22
 332 918 332 918 280 843 c 0,23,24
 260 813 260 813 259.5 760 c 128,-1,25
 259 707 259 707 315 675.5 c 128,-1,26
 371 644 371 644 552 607.5 c 128,-1,27
 733 571 733 571 813 499.5 c 128,-1,28
 893 428 893 428 893 284.5 c 128,-1,29
 893 141 893 141 787 60 c 128,-1,30
 681 -21 681 -21 461 -21 c 128,-1,31
 241 -21 241 -21 88 71 c 1,0,-1
EndSplineSet
EndChar

StartChar: t
Encoding: 116 116 87
Width: 793
Flags: HW
LayerCount: 2
Fore
SplineSet
528 -13 m 0,0,1
 345 -13 345 -13 268.5 67 c 128,-1,2
 192 147 192 147 192 328 c 2,3,-1
 192 907 l 1,4,-1
 52 907 l 1,5,-1
 52 1032 l 1,6,-1
 192 1032 l 1,7,-1
 192 1312 l 1,8,-1
 375 1362 l 1,9,-1
 375 1032 l 1,10,-1
 712 1032 l 1,11,-1
 712 907 l 1,12,-1
 375 907 l 1,13,-1
 375 326 l 2,14,15
 375 217 375 217 420.5 169 c 128,-1,16
 466 121 466 121 556 121 c 0,17,18
 608 121 608 121 660 127.5 c 128,-1,19
 712 134 712 134 712 135 c 2,20,-1
 712 5 l 1,21,22
 619 -13 619 -13 528 -13 c 0,0,1
EndSplineSet
EndChar

StartChar: u
Encoding: 117 117 88
Width: 1136
Flags: HW
LayerCount: 2
Fore
SplineSet
460 -21 m 0,0,1
 306 -21 306 -21 205.5 72.5 c 128,-1,2
 105 166 105 166 105 341 c 2,3,-1
 105 1032 l 1,4,-1
 288 1032 l 1,5,-1
 288 340 l 2,6,7
 288 227 288 227 351.5 173 c 128,-1,8
 415 119 415 119 495 119 c 128,-1,9
 575 119 575 119 636.5 137 c 128,-1,10
 698 155 698 155 737 183 c 0,11,12
 816 240 816 240 833 290 c 1,13,-1
 833 1032 l 1,14,-1
 1016 1032 l 1,15,-1
 1016 0 l 1,16,-1
 833 0 l 1,17,-1
 833 162 l 1,18,19
 773 70 773 70 673.5 24.5 c 128,-1,20
 574 -21 574 -21 460 -21 c 0,0,1
EndSplineSet
EndChar

StartChar: v
Encoding: 118 118 89
Width: 1058
Flags: HW
LayerCount: 2
Fore
SplineSet
422 0 m 1,0,-1
 6 1032 l 1,1,-1
 194 1032 l 1,2,-1
 536 144 l 1,3,-1
 538 144 l 1,4,-1
 854 1032 l 1,5,-1
 1051 1032 l 1,6,-1
 643 0 l 1,7,-1
 422 0 l 1,0,-1
EndSplineSet
EndChar

StartChar: w
Encoding: 119 119 90
Width: 1609
Flags: HW
LayerCount: 2
Fore
SplineSet
348 0 m 1,0,-1
 42 1032 l 1,1,-1
 223 1032 l 1,2,-1
 417 333 l 1,3,-1
 461 155 l 1,4,-1
 462 155 l 1,5,-1
 506 333 l 1,6,-1
 696 1032 l 1,7,-1
 921 1032 l 1,8,-1
 1112 340 l 1,9,-1
 1155 164 l 1,10,-1
 1198 339 l 1,11,-1
 1380 1032 l 1,12,-1
 1567 1032 l 1,13,-1
 1259 0 l 1,14,-1
 1046 0 l 1,15,-1
 813 875 l 1,16,-1
 810 875 l 1,17,-1
 566 0 l 1,18,-1
 348 0 l 1,0,-1
EndSplineSet
EndChar

StartChar: x
Encoding: 120 120 91
Width: 1131
Flags: HW
LayerCount: 2
Fore
SplineSet
38 0 m 1,0,-1
 459 513 l 1,1,-1
 34 1032 l 1,2,-1
 244 1032 l 1,3,-1
 485 727 l 1,4,-1
 562 633 l 1,5,-1
 880 1032 l 1,6,-1
 1097 1032 l 1,7,-1
 669 511 l 1,8,-1
 1093 0 l 1,9,-1
 884 0 l 1,10,-1
 618 331 l 1,11,-1
 566 400 l 1,12,-1
 250 0 l 1,13,-1
 38 0 l 1,0,-1
EndSplineSet
EndChar

StartChar: y
Encoding: 121 121 92
Width: 1057
Flags: HW
LayerCount: 2
Fore
SplineSet
287 -391 m 1,0,1
 360 -260 360 -260 441 -50 c 1,2,-1
 7 1032 l 1,3,-1
 197 1032 l 1,4,-1
 533 152 l 1,5,-1
 860 1032 l 1,6,-1
 1059 1032 l 1,7,-1
 604 -102 l 2,8,9
 560 -212 560 -212 517 -301.5 c 128,-1,10
 474 -391 474 -391 473 -391 c 2,11,-1
 287 -391 l 1,0,1
EndSplineSet
EndChar

StartChar: z
Encoding: 122 122 93
Width: 961
Flags: HW
LayerCount: 2
Fore
SplineSet
91 0 m 1,0,-1
 91 144 l 1,1,-1
 685 907 l 1,2,-1
 117 907 l 1,3,-1
 117 1032 l 1,4,-1
 884 1032 l 1,5,-1
 884 899 l 1,6,-1
 281 125 l 1,7,-1
 890 125 l 1,8,-1
 890 0 l 1,9,-1
 91 0 l 1,0,-1
EndSplineSet
EndChar

StartChar: braceleft
Encoding: 123 123 94
Width: 882
Flags: HW
LayerCount: 2
Fore
SplineSet
749 -224 m 2,0,1
 559 -224 559 -224 484 -189 c 0,2,3
 414 -157 414 -157 387 -98 c 0,4,5
 355 -30 355 -30 355 79 c 2,6,-1
 355 242 l 2,7,8
 355 401 355 401 283.5 473.5 c 128,-1,9
 212 546 212 546 46 546 c 1,10,-1
 46 711 l 1,11,12
 212 711 212 711 283.5 783 c 128,-1,13
 355 855 355 855 355 1014 c 2,14,-1
 355 1179 l 2,15,16
 355 1329 355 1329 417 1400 c 0,17,18
 470 1461 470 1461 604 1475 c 0,19,20
 660 1481 660 1481 744 1481 c 2,21,-1
 832 1481 l 1,22,-1
 832 1344 l 1,23,-1
 677 1344 l 2,24,25
 584 1344 584 1344 558 1305 c 0,26,27
 536 1271 536 1271 536 1185 c 2,28,-1
 536 1021 l 2,29,30
 536 856 536 856 477 762.5 c 128,-1,31
 418 669 418 669 297 632 c 1,32,-1
 297 625 l 1,33,34
 417 587 417 587 476.5 495 c 128,-1,35
 536 403 536 403 536 240 c 2,36,-1
 536 65 l 2,37,38
 536 -20 536 -20 554 -46.5 c 128,-1,39
 572 -73 572 -73 600 -80 c 128,-1,40
 628 -87 628 -87 676 -87 c 2,41,-1
 832 -87 l 1,42,-1
 832 -224 l 1,43,-1
 749 -224 l 2,0,1
EndSplineSet
EndChar

StartChar: bar
Encoding: 124 124 95
Width: 379
Flags: HW
LayerCount: 2
Fore
SplineSet
98 -338 m 1,0,-1
 98 1481 l 1,1,-1
 281 1481 l 1,2,-1
 281 -338 l 1,3,-1
 98 -338 l 1,0,-1
EndSplineSet
EndChar

StartChar: braceright
Encoding: 125 125 96
Width: 882
Flags: HW
LayerCount: 2
Fore
SplineSet
134 -224 m 2,0,-1
 51 -224 l 1,1,-1
 51 -87 l 1,2,-1
 207 -87 l 2,3,4
 301 -86 301 -86 325 -52 c 0,5,6
 347 -20 347 -20 347 65 c 2,7,-1
 347 240 l 2,8,9
 347 403 347 403 406.5 495 c 128,-1,10
 466 587 466 587 586 625 c 1,11,-1
 586 632 l 1,12,13
 465 669 465 669 406 762.5 c 128,-1,14
 347 856 347 856 347 1021 c 2,15,-1
 347 1185 l 2,16,17
 347 1271 347 1271 328.5 1299 c 128,-1,18
 310 1327 310 1327 282 1335.5 c 128,-1,19
 254 1344 254 1344 206 1344 c 2,20,-1
 51 1344 l 1,21,-1
 51 1481 l 1,22,-1
 139 1481 l 2,23,24
 301 1481 301 1481 369 1457 c 128,-1,25
 437 1433 437 1433 466 1400 c 0,26,27
 528 1329 528 1329 528 1179 c 2,28,-1
 528 1014 l 2,29,30
 528 855 528 855 599.5 783 c 128,-1,31
 671 711 671 711 837 711 c 1,32,-1
 837 546 l 1,33,34
 671 546 671 546 599.5 473.5 c 128,-1,35
 528 401 528 401 528 242 c 2,36,-1
 528 79 l 2,37,38
 528 -88 528 -88 455 -152 c 0,39,40
 404 -196 404 -196 343 -208 c 0,41,42
 255 -224 255 -224 134 -224 c 2,0,-1
EndSplineSet
EndChar

StartChar: asciitilde
Encoding: 126 126 97
Width: 1347
Flags: HW
LayerCount: 2
Fore
SplineSet
666 416 m 0,0,1
 604 460 604 460 549 506 c 0,2,3
 416 614 416 614 379 613 c 0,4,5
 315 613 315 613 280 535.5 c 128,-1,6
 245 458 245 458 244 315 c 1,7,-1
 63 357 l 1,8,9
 85 814 85 814 371 814 c 0,10,11
 471 814 471 814 614 705 c 0,12,13
 674 660 674 660 732 614 c 0,14,15
 873 505 873 505 963 505 c 0,16,17
 1044 504 1044 504 1074 594 c 0,18,19
 1101 674 1101 674 1103 807 c 1,20,-1
 1286 772 l 1,21,22
 1273 539 1273 539 1198 424 c 128,-1,23
 1123 309 1123 309 969.5 308.5 c 128,-1,24
 816 308 816 308 666 416 c 0,0,1
EndSplineSet
EndChar

StartChar: exclamdown
Encoding: 161 161 99
Width: 496
Flags: HW
LayerCount: 2
Fore
SplineSet
373 1051 m 128,-1,1
 436 1051 436 1051 479.5 1008 c 0,2,3
 523 964 523 964 523 902 c 128,-1,4
 523 840 523 840 479 796.5 c 128,-1,5
 435 753 435 753 373 753 c 128,-1,6
 311 753 311 753 266.5 796.5 c 128,-1,7
 222 840 222 840 222 902 c 128,-1,8
 222 964 222 964 266 1007.5 c 128,-1,0
 310 1051 310 1051 373 1051 c 128,-1,1
404 564 m 1,9,-1
 493 -432 l 1,10,-1
 250 -432 l 1,11,-1
 338 564 l 1,12,-1
 404 564 l 1,9,-1
EndSplineSet
EndChar

StartChar: cent
Encoding: 162 162 100
Width: 997
Flags: HW
LayerCount: 2
Fore
SplineSet
477 915 m 1,0,1
 337 899 337 899 253.5 791.5 c 128,-1,2
 170 684 170 684 170 513.5 c 128,-1,3
 170 343 170 343 250 239.5 c 128,-1,4
 330 136 330 136 477 121 c 1,5,-1
 477 915 l 1,0,1
583 1052 m 1,6,7
 728 1039 728 1039 861 966 c 1,8,-1
 825 829 l 1,9,10
 792 852 792 852 726.5 878.5 c 128,-1,11
 661 905 661 905 583 914 c 1,12,-1
 583 122 l 1,13,14
 709 136 709 136 819 204 c 1,15,-1
 852 67 l 1,16,17
 734 -7 734 -7 583 -19 c 1,18,-1
 583 -290 l 1,19,-1
 477 -290 l 1,20,-1
 477 -20 l 1,21,22
 255 -7 255 -7 124 126.5 c 128,-1,23
 -7 260 -7 260 -7 512 c 0,24,25
 -7 772 -7 772 137 912 c 0,26,27
 272 1044 272 1044 477 1054 c 1,28,-1
 477 1304 l 1,29,-1
 583 1304 l 1,30,-1
 583 1052 l 1,6,7
EndSplineSet
EndChar

StartChar: sterling
Encoding: 163 163 101
Width: 1215
Flags: HW
LayerCount: 2
Fore
SplineSet
728 1367 m 0,0,1
 433 1367 433 1367 433 1131 c 0,2,3
 433 1087 433 1087 475 954 c 128,-1,4
 517 821 517 821 519 810 c 1,5,-1
 964 810 l 1,6,-1
 964 686 l 1,7,-1
 540 686 l 1,8,9
 546 626 546 626 546 561 c 128,-1,10
 546 496 546 496 502 362 c 128,-1,11
 458 228 458 228 410 149 c 1,12,13
 452 148 452 148 584 133 c 128,-1,14
 716 118 716 118 776 118 c 128,-1,15
 836 118 836 118 938.5 134 c 128,-1,16
 1041 150 1041 150 1109 175 c 1,17,-1
 1144 36 l 1,18,19
 1089 15 1089 15 988.5 -4 c 128,-1,20
 888 -23 888 -23 816 -23 c 128,-1,21
 744 -23 744 -23 584 -3.5 c 128,-1,22
 424 16 424 16 369 16 c 128,-1,23
 314 16 314 16 270.5 11 c 128,-1,24
 227 6 227 6 168.5 -3 c 128,-1,25
 110 -12 110 -12 80 -16 c 1,26,-1
 80 109 l 1,27,28
 97 112 97 112 128.5 116.5 c 128,-1,29
 160 121 160 121 179 124 c 0,30,31
 230 132 230 132 256 144 c 1,32,33
 364 398 364 398 364 579 c 0,34,35
 364 613 364 613 362 627 c 128,-1,36
 360 641 360 641 359 650 c 128,-1,37
 358 659 358 659 356.5 665.5 c 128,-1,38
 355 672 355 672 353.5 676.5 c 128,-1,39
 352 681 352 681 352 684 c 1,40,-1
 351 686 l 1,41,-1
 89 686 l 1,42,-1
 89 810 l 1,43,-1
 325 810 l 1,44,45
 314 864 314 864 271 990 c 128,-1,46
 228 1116 228 1116 228 1173 c 0,47,48
 228 1323 228 1323 362.5 1413.5 c 128,-1,49
 497 1504 497 1504 707 1504 c 0,50,51
 818 1504 818 1504 920.5 1473.5 c 128,-1,52
 1023 1443 1023 1443 1066 1400 c 1,53,-1
 1066 1248 l 1,54,-1
 1007 1248 l 1,55,56
 973 1298 973 1298 921 1326 c 128,-1,57
 869 1354 869 1354 826.5 1360.5 c 128,-1,58
 784 1367 784 1367 728 1367 c 0,0,1
EndSplineSet
EndChar

StartChar: currency
Encoding: 164 164 102
Width: 1024
Flags: HW
LayerCount: 2
Fore
SplineSet
750 347 m 1,0,1
 651 272 651 272 515 272 c 128,-1,2
 379 272 379 272 276 347 c 1,3,-1
 181 252 l 1,4,-1
 79 352 l 1,5,-1
 173 448 l 1,6,7
 99 538 99 538 99 683 c 128,-1,8
 99 828 99 828 173 924 c 1,9,-1
 79 1018 l 1,10,-1
 181 1117 l 1,11,-1
 276 1024 l 1,12,13
 374 1099 374 1099 512.5 1099 c 128,-1,14
 651 1099 651 1099 750 1026 c 1,15,-1
 845 1117 l 1,16,-1
 944 1018 l 1,17,-1
 852 924 l 1,18,19
 927 824 927 824 927 684 c 128,-1,20
 927 544 927 544 852 446 c 1,21,-1
 944 352 l 1,22,-1
 845 252 l 1,23,-1
 750 347 l 1,0,1
322.5 483 m 128,-1,25
 395 408 395 408 514.5 408 c 128,-1,26
 634 408 634 408 706.5 483 c 128,-1,27
 779 558 779 558 779 685 c 128,-1,28
 779 812 779 812 706.5 887.5 c 128,-1,29
 634 963 634 963 514.5 963 c 128,-1,30
 395 963 395 963 322.5 887.5 c 128,-1,31
 250 812 250 812 250 685 c 128,-1,24
 250 558 250 558 322.5 483 c 128,-1,25
EndSplineSet
EndChar

StartChar: yen
Encoding: 165 165 103
Width: 1466
Flags: HW
LayerCount: 2
Fore
SplineSet
625 0 m 1,0,-1
 625 362 l 1,1,-1
 225 362 l 1,2,-1
 225 458 l 1,3,-1
 625 458 l 1,4,-1
 625 623 l 1,5,-1
 225 623 l 1,6,-1
 225 719 l 1,7,-1
 608 719 l 1,8,-1
 64 1481 l 1,9,-1
 259 1481 l 1,10,-1
 718 825 l 1,11,-1
 1201 1481 l 1,12,-1
 1402 1481 l 1,13,-1
 820 719 l 1,14,-1
 1216 719 l 1,15,-1
 1216 623 l 1,16,-1
 808 623 l 1,17,-1
 808 458 l 1,18,-1
 1216 458 l 1,19,-1
 1216 362 l 1,20,-1
 808 362 l 1,21,-1
 808 0 l 1,22,-1
 625 0 l 1,0,-1
EndSplineSet
EndChar

StartChar: brokenbar
Encoding: 166 166 104
Width: 331
Flags: HW
LayerCount: 2
Fore
SplineSet
98 -337 m 1,0,-1
 98 337 l 1,1,-1
 233 337 l 1,2,-1
 233 -337 l 1,3,-1
 98 -337 l 1,0,-1
98 625 m 1,4,-1
 98 1296 l 1,5,-1
 233 1296 l 1,6,-1
 233 625 l 1,7,-1
 98 625 l 1,4,-1
EndSplineSet
EndChar

StartChar: section
Encoding: 167 167 105
Width: 984
Flags: HW
LayerCount: 2
Fore
SplineSet
903 233 m 0,0,1
 903 -70 903 -70 482 -74 c 0,2,3
 376 -74 376 -74 269 -50.5 c 128,-1,4
 162 -27 162 -27 88 17 c 1,5,-1
 114 159 l 1,6,7
 285 71 285 71 479 71 c 0,8,9
 606 71 606 71 669 109.5 c 128,-1,10
 732 148 732 148 732 236 c 0,11,12
 732 302 732 302 700 334 c 0,13,14
 646 388 646 388 485 421 c 0,15,16
 304 458 304 458 257 481.5 c 128,-1,17
 210 505 210 505 177 527 c 0,18,19
 144 548 144 548 126 574 c 0,20,21
 84 633 84 633 83 713 c 0,22,23
 83 915 83 915 260 976 c 1,24,25
 83 1051 83 1051 83 1212 c 0,26,27
 83 1352 83 1352 174 1427.5 c 128,-1,28
 265 1503 265 1503 467 1503 c 128,-1,29
 669 1503 669 1503 828 1427 c 1,30,-1
 815 1287 l 1,31,32
 736 1319 736 1319 632.5 1340.5 c 128,-1,33
 529 1362 529 1362 475.5 1362 c 128,-1,34
 422 1362 422 1362 389.5 1356.5 c 0,35,36
 357 1350 357 1350 326 1336 c 0,37,38
 261 1306 261 1306 261 1228 c 128,-1,39
 261 1150 261 1150 316 1119 c 128,-1,40
 371 1088 371 1088 514.5 1053 c 128,-1,41
 658 1018 658 1018 718.5 994.5 c 128,-1,42
 779 971 779 971 823.5 935 c 128,-1,43
 868 899 868 899 885.5 849.5 c 128,-1,44
 903 800 903 800 903 726 c 0,45,46
 903 556 903 556 774 484 c 1,47,48
 903 413 903 413 903 233 c 0,0,1
599 546 m 1,49,-1
 601 546 l 1,50,51
 732 603 732 603 732 735 c 0,52,53
 732 782 732 782 717 810 c 0,54,55
 683 873 683 873 485 913 c 0,56,57
 483 913 483 913 448 921 c 1,58,59
 350 908 350 908 298 859 c 128,-1,60
 246 810 246 810 246 736.5 c 128,-1,61
 246 663 246 663 307.5 628.5 c 128,-1,62
 369 594 369 594 561 555 c 0,63,64
 588 550 588 550 599 546 c 1,49,-1
EndSplineSet
EndChar

StartChar: dieresis
Encoding: 168 168 106
Width: 690
Flags: HW
LayerCount: 2
Fore
SplineSet
97 1217 m 1,0,-1
 97 1424 l 1,1,-1
 278 1424 l 1,2,-1
 278 1217 l 1,3,-1
 97 1217 l 1,0,-1
413 1217 m 1,4,-1
 413 1424 l 1,5,-1
 593 1424 l 1,6,-1
 593 1217 l 1,7,-1
 413 1217 l 1,4,-1
EndSplineSet
EndChar

StartChar: copyright
Encoding: 169 169 107
Width: 1728
Flags: HW
LayerCount: 2
Fore
SplineSet
617 27 m 128,-1,1
 737 -21 737 -21 885 -21 c 128,-1,2
 1033 -21 1033 -21 1183.5 61 c 128,-1,3
 1334 143 1334 143 1428 292.5 c 128,-1,4
 1522 442 1522 442 1522 601 c 128,-1,5
 1522 760 1522 760 1466.5 882 c 128,-1,6
 1411 1004 1411 1004 1319.5 1087.5 c 128,-1,7
 1228 1171 1228 1171 1108.5 1219.5 c 128,-1,8
 989 1268 989 1268 861 1268 c 128,-1,9
 733 1268 733 1268 611.5 1218 c 128,-1,10
 490 1168 490 1168 399.5 1083 c 128,-1,11
 309 998 309 998 254.5 877.5 c 128,-1,12
 200 757 200 757 200 621 c 128,-1,13
 200 485 200 485 256.5 363 c 128,-1,14
 313 241 313 241 405 158 c 128,-1,0
 497 75 497 75 617 27 c 128,-1,1
1163 -64.5 m 128,-1,16
 1019 -125 1019 -125 865 -125 c 128,-1,17
 711 -125 711 -125 569 -67.5 c 128,-1,18
 427 -10 427 -10 320.5 88 c 128,-1,19
 214 186 214 186 149.5 326 c 128,-1,20
 85 466 85 466 85 619 c 128,-1,21
 85 772 85 772 147.5 910.5 c 128,-1,22
 210 1049 210 1049 314.5 1150 c 128,-1,23
 419 1251 419 1251 563 1311.5 c 128,-1,24
 707 1372 707 1372 861 1372 c 128,-1,25
 1015 1372 1015 1372 1158 1312 c 128,-1,26
 1301 1252 1301 1252 1407 1151.5 c 128,-1,27
 1513 1051 1513 1051 1577 912 c 128,-1,28
 1641 773 1641 773 1641 623.5 c 128,-1,29
 1641 474 1641 474 1578.5 336 c 128,-1,30
 1516 198 1516 198 1411.5 97 c 128,-1,15
 1307 -4 1307 -4 1163 -64.5 c 128,-1,16
879 218 m 0,31,32
 782 218 782 218 704 253 c 128,-1,33
 626 288 626 288 577.5 346 c 128,-1,34
 529 404 529 404 503.5 476 c 128,-1,35
 478 548 478 548 478 626 c 128,-1,36
 478 704 478 704 503.5 776.5 c 128,-1,37
 529 849 529 849 577.5 907.5 c 128,-1,38
 626 966 626 966 704 1001 c 128,-1,39
 782 1036 782 1036 879 1036 c 0,40,41
 1026 1036 1026 1036 1144 952 c 1,42,-1
 1108 874 l 1,43,44
 1001 945 1001 945 874 945 c 128,-1,45
 747 945 747 945 673 851 c 128,-1,46
 599 757 599 757 599 628 c 128,-1,47
 599 499 599 499 673.5 404 c 128,-1,48
 748 309 748 309 875 309 c 128,-1,49
 1002 309 1002 309 1108 380 c 1,50,-1
 1144 302 l 1,51,52
 1026 218 1026 218 879 218 c 0,31,32
EndSplineSet
EndChar

StartChar: ordfeminine
Encoding: 170 170 108
Width: 791
Flags: HW
LayerCount: 2
Fore
SplineSet
552 748 m 1,0,1
 459 655 459 655 309 655 c 0,2,3
 228 655 228 655 160 705 c 0,4,5
 85 760 85 760 85 878 c 0,6,7
 85 1018 85 1018 210 1074 c 0,8,9
 327 1126 327 1126 554 1126 c 1,10,11
 554 1229 554 1229 521.5 1268.5 c 128,-1,12
 489 1308 489 1308 375 1308 c 128,-1,13
 261 1308 261 1308 145 1256 c 1,14,-1
 111 1368 l 1,15,16
 235 1429 235 1429 400 1429 c 128,-1,17
 565 1429 565 1429 631.5 1358.5 c 128,-1,18
 698 1288 698 1288 698 1140 c 2,19,-1
 698 669 l 1,20,-1
 554 669 l 1,21,-1
 554 748 l 1,22,-1
 552 748 l 1,0,1
337 777 m 0,23,24
 404 777 404 777 469.5 813 c 128,-1,25
 535 849 535 849 554 882 c 1,26,-1
 554 1025 l 1,27,28
 225 1025 225 1025 225 891 c 0,29,30
 225 777 225 777 337 777 c 0,23,24
EndSplineSet
EndChar

StartChar: guillemotleft
Encoding: 171 171 109
Width: 885
Flags: HW
LayerCount: 2
Fore
SplineSet
468 160 m 1,0,1
 95 463 95 463 1 533 c 1,2,-1
 1 635 l 1,3,-1
 468 1021 l 1,4,-1
 468 815 l 1,5,-1
 162 582 l 1,6,7
 462 359 462 359 468 354 c 1,8,-1
 468 160 l 1,0,1
879 160 m 1,9,10
 505 463 505 463 411 533 c 1,11,-1
 411 635 l 1,12,-1
 879 1021 l 1,13,-1
 879 815 l 1,14,-1
 572 582 l 1,15,16
 874 359 874 359 879 354 c 1,17,-1
 879 160 l 1,9,10
EndSplineSet
EndChar

StartChar: logicalnot
Encoding: 172 172 110
Width: 1182
Flags: HW
LayerCount: 2
Fore
SplineSet
956 260 m 1,0,-1
 956 650 l 1,1,-1
 94 650 l 1,2,-1
 94 776 l 1,3,-1
 1084 776 l 1,4,-1
 1084 260 l 1,5,-1
 956 260 l 1,0,-1
EndSplineSet
EndChar

StartChar: uni00AD
Encoding: 173 173 111
Width: 775
Flags: HW
LayerCount: 2
Fore
SplineSet
98 513 m 1,0,-1
 98 630 l 1,1,-1
 676 630 l 1,2,-1
 676 513 l 1,3,-1
 98 513 l 1,0,-1
EndSplineSet
EndChar

StartChar: registered
Encoding: 174 174 112
Width: 1729
Flags: HW
LayerCount: 2
Fore
SplineSet
555 234 m 1,0,-1
 555 1058 l 1,1,-1
 843 1058 l 2,2,3
 1033 1058 1033 1058 1119 992 c 0,4,5
 1192 936 1192 936 1192 833 c 128,-1,6
 1192 730 1192 730 1137 672.5 c 128,-1,7
 1082 615 1082 615 995 607 c 1,8,-1
 1223 277 l 1,9,-1
 1223 234 l 1,10,-1
 1121 234 l 1,11,-1
 878 592 l 1,12,-1
 675 592 l 1,13,-1
 675 234 l 1,14,-1
 555 234 l 1,0,-1
675 683 m 1,15,-1
 900 683 l 2,16,17
 983 683 983 683 1029.5 718.5 c 128,-1,18
 1076 754 1076 754 1076 800 c 128,-1,19
 1076 846 1076 846 1073.5 864.5 c 128,-1,20
 1071 883 1071 883 1059 905.5 c 0,21,22
 1048 928 1048 928 1024 938 c 0,23,24
 965 965 965 965 845 965 c 2,25,-1
 675 965 l 1,26,-1
 675 683 l 1,15,-1
618 27 m 128,-1,28
 738 -21 738 -21 886 -21 c 128,-1,29
 1034 -21 1034 -21 1184.5 61 c 128,-1,30
 1335 143 1335 143 1429 292.5 c 128,-1,31
 1523 442 1523 442 1523 601 c 128,-1,32
 1523 760 1523 760 1467.5 882 c 128,-1,33
 1412 1004 1412 1004 1320.5 1087.5 c 128,-1,34
 1229 1171 1229 1171 1109.5 1219.5 c 128,-1,35
 990 1268 990 1268 862 1268 c 128,-1,36
 734 1268 734 1268 612.5 1218 c 128,-1,37
 491 1168 491 1168 400.5 1083 c 128,-1,38
 310 998 310 998 255.5 877.5 c 128,-1,39
 201 757 201 757 201 621 c 128,-1,40
 201 485 201 485 257.5 363 c 128,-1,41
 314 241 314 241 406 158 c 128,-1,27
 498 75 498 75 618 27 c 128,-1,28
1164 -64.5 m 128,-1,43
 1020 -125 1020 -125 866 -125 c 128,-1,44
 712 -125 712 -125 570 -67.5 c 128,-1,45
 428 -10 428 -10 321.5 88 c 128,-1,46
 215 186 215 186 150.5 326 c 128,-1,47
 86 466 86 466 86 619 c 128,-1,48
 86 772 86 772 148.5 910.5 c 128,-1,49
 211 1049 211 1049 315.5 1150 c 128,-1,50
 420 1251 420 1251 564 1311.5 c 128,-1,51
 708 1372 708 1372 862 1372 c 128,-1,52
 1016 1372 1016 1372 1159 1312 c 128,-1,53
 1302 1252 1302 1252 1408 1151.5 c 128,-1,54
 1514 1051 1514 1051 1578 912 c 128,-1,55
 1642 773 1642 773 1642 623.5 c 128,-1,56
 1642 474 1642 474 1579.5 336 c 128,-1,57
 1517 198 1517 198 1412.5 97 c 128,-1,42
 1308 -4 1308 -4 1164 -64.5 c 128,-1,43
EndSplineSet
EndChar

StartChar: macron
Encoding: 175 175 113
Width: 750
Flags: HW
LayerCount: 2
Fore
SplineSet
99 1179 m 1,0,-1
 99 1295 l 1,1,-1
 651 1295 l 1,2,-1
 651 1179 l 1,3,-1
 99 1179 l 1,0,-1
EndSplineSet
EndChar

StartChar: degree
Encoding: 176 176 114
Width: 813
Flags: HW
LayerCount: 2
Fore
SplineSet
250 911 m 128,-1,1
 310 847 310 847 407.5 847 c 128,-1,2
 505 847 505 847 564 911 c 128,-1,3
 623 975 623 975 623 1068 c 128,-1,4
 623 1161 623 1161 563.5 1225 c 128,-1,5
 504 1289 504 1289 407 1289 c 128,-1,6
 310 1289 310 1289 250 1225 c 128,-1,7
 190 1161 190 1161 190 1068 c 128,-1,0
 190 975 190 975 250 911 c 128,-1,1
633.5 849.5 m 128,-1,9
 542 760 542 760 407.5 760 c 128,-1,10
 273 760 273 760 181 850 c 128,-1,11
 89 940 89 940 89 1069 c 128,-1,12
 89 1198 89 1198 181.5 1286.5 c 128,-1,13
 274 1375 274 1375 408 1375 c 128,-1,14
 542 1375 542 1375 633.5 1286.5 c 128,-1,15
 725 1198 725 1198 725 1068.5 c 128,-1,8
 725 939 725 939 633.5 849.5 c 128,-1,9
EndSplineSet
EndChar

StartChar: plusminus
Encoding: 177 177 115
Width: 1189
Flags: HW
LayerCount: 2
Fore
SplineSet
521 286 m 1,0,-1
 521 643 l 1,1,-1
 148 643 l 1,2,-1
 148 778 l 1,3,-1
 521 778 l 1,4,-1
 521 1122 l 1,5,-1
 658 1122 l 1,6,-1
 658 778 l 1,7,-1
 1042 778 l 1,8,-1
 1042 643 l 1,9,-1
 658 643 l 1,10,-1
 658 286 l 1,11,-1
 521 286 l 1,0,-1
162 0 m 1,12,-1
 162 136 l 1,13,-1
 1024 136 l 1,14,-1
 1024 0 l 1,15,-1
 162 0 l 1,12,-1
EndSplineSet
EndChar

StartChar: uni00B2
Encoding: 178 178 116
Width: 1523
Flags: HW
LayerCount: 2
Fore
SplineSet
256 0 m 1,0,-1
 1088 1430 l 1,1,-1
 1215 1430 l 1,2,-1
 383 0 l 1,3,-1
 256 0 l 1,0,-1
914 0 m 1,4,-1
 914 98 l 1,5,6
 1279 454 1279 454 1279 601 c 0,7,8
 1279 664 1279 664 1246.5 696 c 128,-1,9
 1214 728 1214 728 1153 728 c 128,-1,10
 1092 728 1092 728 1033 706 c 128,-1,11
 974 684 974 684 950 661 c 1,12,-1
 926 756 l 1,13,14
 954 784 954 784 1023 807 c 128,-1,15
 1092 830 1092 830 1152 830 c 0,16,17
 1269 830 1269 830 1332.5 769.5 c 128,-1,18
 1396 709 1396 709 1396 604 c 0,19,20
 1396 488 1396 488 1302 362 c 0,21,22
 1228 264 1228 264 1064 100 c 1,23,-1
 1399 100 l 1,24,-1
 1399 0 l 1,25,-1
 914 0 l 1,4,-1
10 552 m 1,26,-1
 10 653 l 1,27,-1
 151 653 l 1,28,-1
 151 1240 l 1,29,-1
 -4 1194 l 1,30,-1
 -4 1277 l 1,31,32
 99 1301 99 1301 135 1374 c 1,33,-1
 285 1374 l 1,34,-1
 285 653 l 1,35,-1
 426 653 l 1,36,-1
 426 552 l 1,37,-1
 10 552 l 1,26,-1
EndSplineSet
EndChar

StartChar: acute
Encoding: 180 180 117
Width: 422
Flags: HW
LayerCount: 2
Fore
SplineSet
5 1123 m 1,0,-1
 192 1466 l 1,1,-1
 417 1466 l 1,2,-1
 128 1123 l 1,3,-1
 5 1123 l 1,0,-1
EndSplineSet
EndChar

StartChar: paragraph
Encoding: 182 182 118
Width: 1115
Flags: HW
LayerCount: 2
Fore
SplineSet
587 -260 m 1,0,-1
 587 815 l 1,1,2
 333 815 333 815 206.5 894.5 c 128,-1,3
 80 974 80 974 80 1151 c 128,-1,4
 80 1328 80 1328 203.5 1404.5 c 128,-1,5
 327 1481 327 1481 605 1481 c 2,6,-1
 1023 1481 l 1,7,-1
 1023 -260 l 1,8,-1
 890 -260 l 1,9,-1
 890 1373 l 1,10,-1
 718 1373 l 1,11,-1
 718 -260 l 1,12,-1
 587 -260 l 1,0,-1
EndSplineSet
EndChar

StartChar: periodcentered
Encoding: 183 183 119
Width: 484
Flags: HW
LayerCount: 2
Fore
SplineSet
243 452 m 128,-1,1
 180 452 180 452 135.5 495 c 128,-1,2
 91 538 91 538 91 600 c 128,-1,3
 91 662 91 662 136 706.5 c 128,-1,4
 181 751 181 751 243 751 c 128,-1,5
 305 751 305 751 349 707 c 0,6,7
 393 662 393 662 393 600 c 128,-1,8
 393 538 393 538 349.5 495 c 128,-1,0
 306 452 306 452 243 452 c 128,-1,1
EndSplineSet
EndChar

StartChar: cedilla
Encoding: 184 184 120
Width: 561
Flags: HW
LayerCount: 2
Fore
SplineSet
240 -497 m 0,0,1
 201 -497 201 -497 143.5 -484.5 c 128,-1,2
 86 -472 86 -472 49 -454 c 1,3,-1
 81 -366 l 1,4,-1
 112 -366 l 1,5,6
 129 -386 129 -386 167 -399 c 0,7,8
 206 -412 206 -412 258 -412 c 128,-1,9
 310 -412 310 -412 352.5 -380 c 128,-1,10
 395 -348 395 -348 395 -294 c 128,-1,11
 395 -240 395 -240 366.5 -212 c 128,-1,12
 338 -184 338 -184 302 -184 c 128,-1,13
 266 -184 266 -184 225 -195 c 1,14,15
 190 -184 190 -184 178 -182 c 1,16,-1
 241 2 l 1,17,-1
 321 2 l 1,18,-1
 281 -115 l 1,19,20
 393 -118 393 -118 449 -160.5 c 128,-1,21
 505 -203 505 -203 505 -289 c 128,-1,22
 505 -375 505 -375 441.5 -436 c 128,-1,23
 378 -497 378 -497 240 -497 c 0,0,1
EndSplineSet
EndChar

StartChar: ordmasculine
Encoding: 186 186 121
Width: 884
Flags: HW
LayerCount: 2
Fore
SplineSet
443 777 m 0,0,1
 638 777 638 777 638 1038 c 0,2,3
 638 1178 638 1178 589.5 1242.5 c 128,-1,4
 541 1307 541 1307 443 1307 c 0,5,6
 297 1308 297 1308 260 1172 c 0,7,8
 245 1118 245 1118 245 1038 c 0,9,10
 245 899 245 899 292.5 838 c 128,-1,11
 340 777 340 777 443 777 c 0,0,1
702 747 m 128,-1,13
 610 645 610 645 442.5 645 c 128,-1,14
 275 645 275 645 182 747 c 128,-1,15
 89 849 89 849 89 1039 c 128,-1,16
 89 1229 89 1229 182.5 1329 c 128,-1,17
 276 1429 276 1429 443.5 1429 c 128,-1,18
 611 1429 611 1429 702.5 1329 c 128,-1,19
 794 1229 794 1229 794 1039 c 128,-1,12
 794 849 794 849 702 747 c 128,-1,13
EndSplineSet
EndChar

StartChar: guillemotright
Encoding: 187 187 122
Width: 972
Flags: HW
LayerCount: 2
Fore
SplineSet
52 159 m 1,0,-1
 52 367 l 1,1,-1
 360 600 l 1,2,3
 58 823 58 823 52 827 c 1,4,-1
 52 1021 l 1,5,6
 427 718 427 718 521 648 c 1,7,-1
 521 545 l 1,8,-1
 52 159 l 1,0,-1
462 159 m 1,9,-1
 462 367 l 1,10,-1
 769 600 l 1,11,12
 468 823 468 823 462 827 c 1,13,-1
 462 1021 l 1,14,15
 837 718 837 718 931 648 c 1,16,-1
 931 545 l 1,17,-1
 462 159 l 1,9,-1
EndSplineSet
EndChar

StartChar: onequarter
Encoding: 188 188 123
Width: 1359
Flags: HW
LayerCount: 2
Fore
SplineSet
1165 0 m 1,0,-1
 1165 120 l 1,1,-1
 755 120 l 1,2,-1
 755 223 l 1,3,-1
 1103 818 l 1,4,-1
 1274 818 l 1,5,-1
 1274 223 l 1,6,-1
 1360 223 l 1,7,-1
 1360 120 l 1,8,-1
 1274 120 l 1,9,-1
 1274 0 l 1,10,-1
 1165 0 l 1,0,-1
247 0 m 1,11,-1
 1077 1429 l 1,12,-1
 1206 1429 l 1,13,-1
 374 0 l 1,14,-1
 247 0 l 1,11,-1
873 223 m 1,15,-1
 1165 223 l 1,16,-1
 1165 728 l 1,17,-1
 873 223 l 1,15,-1
-30 552 m 1,18,-1
 -30 653 l 1,19,-1
 111 653 l 1,20,-1
 111 1240 l 1,21,-1
 -44 1194 l 1,22,-1
 -44 1277 l 1,23,24
 59 1301 59 1301 95 1374 c 1,25,-1
 245 1374 l 1,26,-1
 245 653 l 1,27,-1
 386 653 l 1,28,-1
 386 552 l 1,29,-1
 -30 552 l 1,18,-1
EndSplineSet
EndChar

StartChar: onehalf
Encoding: 189 189 124
Width: 1539
Flags: HW
LayerCount: 2
Fore
SplineSet
263 0 m 1,0,-1
 1095 1429 l 1,1,-1
 1222 1429 l 1,2,-1
 390 0 l 1,3,-1
 263 0 l 1,0,-1
921 0 m 1,4,-1
 921 98 l 1,5,6
 1286 454 1286 454 1286 601 c 0,7,8
 1286 664 1286 664 1253.5 696 c 128,-1,9
 1221 728 1221 728 1160 728 c 128,-1,10
 1099 728 1099 728 1040 706 c 128,-1,11
 981 684 981 684 957 661 c 1,12,-1
 933 756 l 1,13,14
 961 784 961 784 1030 807 c 128,-1,15
 1099 830 1099 830 1159 830 c 0,16,17
 1276 830 1276 830 1339.5 769.5 c 128,-1,18
 1403 709 1403 709 1403 604 c 0,19,20
 1402 488 1402 488 1308 362 c 0,21,22
 1234 264 1234 264 1071 100 c 1,23,-1
 1406 100 l 1,24,-1
 1406 0 l 1,25,-1
 921 0 l 1,4,-1
17 552 m 1,26,-1
 17 653 l 1,27,-1
 158 653 l 1,28,-1
 158 1240 l 1,29,-1
 3 1194 l 1,30,-1
 3 1277 l 1,31,32
 106 1301 106 1301 142 1374 c 1,33,-1
 292 1374 l 1,34,-1
 292 653 l 1,35,-1
 433 653 l 1,36,-1
 433 552 l 1,37,-1
 17 552 l 1,26,-1
EndSplineSet
EndChar

StartChar: threequarters
Encoding: 190 190 125
Width: 1422
Flags: HW
LayerCount: 2
Fore
SplineSet
1227 0 m 1,0,-1
 1227 120 l 1,1,-1
 818 120 l 1,2,-1
 818 223 l 1,3,-1
 1165 818 l 1,4,-1
 1335 818 l 1,5,-1
 1335 223 l 1,6,-1
 1422 223 l 1,7,-1
 1422 120 l 1,8,-1
 1335 120 l 1,9,-1
 1335 0 l 1,10,-1
 1227 0 l 1,0,-1
309 0 m 1,11,-1
 1141 1429 l 1,12,-1
 1268 1429 l 1,13,-1
 436 0 l 1,14,-1
 309 0 l 1,11,-1
936 223 m 1,15,-1
 1227 223 l 1,16,-1
 1227 728 l 1,17,-1
 936 223 l 1,15,-1
43 1321 m 1,18,19
 129 1382 129 1382 277 1382 c 128,-1,20
 425 1382 425 1382 498 1320.5 c 128,-1,21
 571 1259 571 1259 571 1178 c 128,-1,22
 571 1097 571 1097 535 1056 c 128,-1,23
 499 1015 499 1015 438 988 c 1,24,25
 502 968 502 968 551 914 c 128,-1,26
 600 860 600 860 600 784 c 0,27,28
 600 677 600 677 516.5 611 c 128,-1,29
 433 545 433 545 287 545 c 0,30,31
 206 545 206 545 141.5 564.5 c 128,-1,32
 77 584 77 584 43 607 c 1,33,-1
 43 704 l 1,34,-1
 75 704 l 1,35,36
 134 645 134 645 250 645 c 0,37,38
 468 645 468 645 469 784 c 0,39,40
 469 849 469 849 415.5 898.5 c 128,-1,41
 362 948 362 948 254 948 c 2,42,-1
 188 948 l 1,43,-1
 188 1032 l 1,44,-1
 254 1032 l 2,45,46
 438 1032 438 1032 438 1168 c 0,47,48
 438 1220 438 1220 395 1250 c 128,-1,49
 352 1280 352 1280 283 1280 c 0,50,51
 161 1280 161 1280 96 1240 c 1,52,-1
 75 1226 l 1,53,-1
 43 1226 l 1,54,-1
 43 1321 l 1,18,19
EndSplineSet
EndChar

StartChar: questiondown
Encoding: 191 191 126
Width: 1019
Flags: HW
LayerCount: 2
Fore
SplineSet
744 590 m 1,0,-1
 803 549 l 1,1,2
 635 317 635 317 585 240 c 0,3,4
 435 8 435 8 435 -96 c 0,5,6
 435 -315 435 -315 666 -315 c 0,7,8
 758 -315 758 -315 857 -279.5 c 128,-1,9
 956 -244 956 -244 1037 -191 c 1,10,-1
 1037 -335 l 1,11,12
 839 -454 839 -454 651.5 -454 c 128,-1,13
 464 -454 464 -454 370 -360 c 128,-1,14
 276 -266 276 -266 276 -125 c 0,15,16
 276 30 276 30 400 204 c 0,17,18
 506 354 506 354 655 502 c 0,19,20
 685 532 685 532 744 590 c 1,0,-1
760 1051 m 128,-1,22
 821 1051 821 1051 864 1009 c 128,-1,23
 907 967 907 967 907 906.5 c 128,-1,24
 907 846 907 846 864 803 c 128,-1,25
 821 760 821 760 760.5 760 c 128,-1,26
 700 760 700 760 658 803 c 128,-1,27
 616 846 616 846 616 907 c 128,-1,28
 616 968 616 968 657.5 1009.5 c 128,-1,21
 699 1051 699 1051 760 1051 c 128,-1,22
EndSplineSet
EndChar

StartChar: AE
Encoding: 198 198 133
Width: 1863
Flags: HW
LayerCount: 2
Fore
SplineSet
23 0 m 1,0,-1
 910 1481 l 1,1,-1
 1753 1481 l 1,2,-1
 1753 1344 l 1,3,-1
 1182 1344 l 1,4,-1
 1182 835 l 1,5,-1
 1672 835 l 1,6,-1
 1672 698 l 1,7,-1
 1182 698 l 1,8,-1
 1182 137 l 1,9,-1
 1751 137 l 1,10,-1
 1751 0 l 1,11,-1
 1000 0 l 1,12,-1
 1000 351 l 1,13,-1
 431 351 l 1,14,-1
 219 0 l 1,15,-1
 23 0 l 1,0,-1
509 487 m 1,16,-1
 1000 487 l 1,17,-1
 1000 1330 l 1,18,-1
 997 1330 l 1,19,-1
 509 487 l 1,16,-1
EndSplineSet
EndChar

StartChar: Eth
Encoding: 208 208 143
Width: 1416
Flags: HW
LayerCount: 2
Fore
SplineSet
318 137 m 1,0,-1
 574 137 l 2,1,2
 862 137 862 137 999.5 283.5 c 128,-1,3
 1137 430 1137 430 1137 732 c 0,4,5
 1137 1034 1137 1034 994 1188 c 128,-1,6
 851 1342 851 1342 579 1342 c 2,7,-1
 318 1342 l 1,8,-1
 318 840 l 1,9,-1
 687 840 l 1,10,-1
 687 720 l 1,11,-1
 318 720 l 1,12,-1
 318 137 l 1,0,-1
0 720 m 1,13,-1
 0 840 l 1,14,-1
 135 840 l 1,15,-1
 135 1481 l 1,16,-1
 552 1481 l 2,17,18
 921 1481 921 1481 1120 1296.5 c 128,-1,19
 1319 1112 1319 1112 1319 739 c 0,20,21
 1319 366 1319 366 1128 183 c 128,-1,22
 937 0 937 0 547 0 c 2,23,-1
 135 0 l 1,24,-1
 135 720 l 1,25,-1
 0 720 l 1,13,-1
EndSplineSet
EndChar

StartChar: multiply
Encoding: 215 215 150
Width: 1051
Flags: HW
LayerCount: 2
Fore
SplineSet
182 40 m 1,0,-1
 76 146 l 1,1,-1
 421 487 l 1,2,-1
 76 830 l 1,3,-1
 182 937 l 1,4,-1
 524 593 l 1,5,-1
 866 937 l 1,6,-1
 974 830 l 1,7,-1
 628 487 l 1,8,-1
 974 146 l 1,9,-1
 866 40 l 1,10,-1
 524 385 l 1,11,-1
 182 40 l 1,0,-1
EndSplineSet
EndChar

StartChar: Oslash
Encoding: 216 216 151
Width: 1565
Flags: HW
LayerCount: 2
Fore
SplineSet
1164 73 m 0,0,1
 1009 -23 1009 -23 762.5 -23 c 128,-1,2
 516 -23 516 -23 345 112 c 1,3,-1
 254 0 l 1,4,-1
 60 0 l 1,5,-1
 241 222 l 1,6,7
 102 416 102 416 102 740 c 0,8,9
 102 1094 102 1094 270 1296 c 0,10,11
 442 1504 442 1504 783 1503 c 0,12,13
 1033 1503 1033 1503 1196 1388 c 1,14,-1
 1271 1481 l 1,15,-1
 1467 1481 l 1,16,-1
 1306 1285 l 1,17,18
 1465 1089 1465 1089 1465 740 c 0,19,20
 1465 259 1465 259 1164 73 c 0,0,1
357 362 m 1,21,-1
 1094 1263 l 1,22,23
 974 1362 974 1362 783 1362 c 0,24,25
 668 1362 668 1362 578.5 1325.5 c 128,-1,26
 489 1289 489 1289 434.5 1230.5 c 128,-1,27
 380 1172 380 1172 345 1088 c 0,28,29
 284 942 284 942 284 727 c 128,-1,30
 284 512 284 512 357 362 c 1,21,-1
783 118 m 0,31,32
 1100 118 1100 118 1216 385 c 0,33,34
 1280 534 1280 534 1280 764 c 128,-1,35
 1280 994 1280 994 1192 1145 c 1,36,-1
 447 235 l 1,37,38
 570 118 570 118 783 118 c 0,31,32
EndSplineSet
EndChar

StartChar: Thorn
Encoding: 222 222 157
Width: 1151
Flags: HW
LayerCount: 2
Fore
SplineSet
176 0 m 1,0,-1
 176 1481 l 1,1,-1
 358 1481 l 1,2,-1
 358 1139 l 1,3,-1
 664 1139 l 2,4,5
 874 1139 874 1139 988.5 1031.5 c 128,-1,6
 1103 924 1103 924 1103 743 c 0,7,8
 1103 562 1103 562 988 455.5 c 128,-1,9
 873 349 873 349 663 349 c 2,10,-1
 358 349 l 1,11,-1
 358 0 l 1,12,-1
 176 0 l 1,0,-1
358 485 m 1,13,-1
 660 485 l 2,14,15
 778 485 778 485 849 546.5 c 128,-1,16
 920 608 920 608 920 742 c 0,17,18
 920 876 920 876 849 939.5 c 128,-1,19
 778 1003 778 1003 659 1003 c 2,20,-1
 358 1003 l 1,21,-1
 358 485 l 1,13,-1
EndSplineSet
EndChar

StartChar: germandbls
Encoding: 223 223 158
Width: 1234
Flags: HW
LayerCount: 2
Fore
SplineSet
121 0 m 1,0,-1
 121 1033 l 2,1,2
 121 1503 121 1503 610 1503 c 0,3,4
 798 1503 798 1503 919.5 1412 c 128,-1,5
 1041 1321 1041 1321 1041 1174 c 0,6,7
 1041 1080 1041 1080 972 996.5 c 128,-1,8
 903 913 903 913 795 896 c 1,9,-1
 795 895 l 1,10,11
 980 845 980 845 1080 718.5 c 128,-1,12
 1180 592 1180 592 1180 436 c 0,13,14
 1180 207 1180 207 991 87 c 0,15,16
 854 0 854 0 632 0 c 2,17,-1
 510 0 l 1,18,-1
 510 130 l 1,19,-1
 624 130 l 2,20,21
 811 130 811 130 906 219.5 c 128,-1,22
 1001 309 1001 309 1001 442 c 0,23,24
 1001 588 1001 588 895 706 c 0,25,26
 843 764 843 764 758 798.5 c 128,-1,27
 673 833 673 833 567 833 c 1,28,-1
 567 948 l 1,29,30
 787 948 787 948 842 1090 c 0,31,32
 857 1128 857 1128 857 1173 c 0,33,34
 857 1255 857 1255 786.5 1311 c 128,-1,35
 716 1367 716 1367 594 1367 c 0,36,37
 303 1367 303 1367 303 1055 c 2,38,-1
 303 0 l 1,39,-1
 121 0 l 1,0,-1
EndSplineSet
EndChar

StartChar: ae
Encoding: 230 230 165
Width: 1758
Flags: HW
LayerCount: 2
Fore
SplineSet
502 918 m 0,0,1
 320 918 320 918 175 841 c 1,2,-1
 138 973 l 1,3,4
 186 1008 186 1008 292 1033 c 128,-1,5
 398 1058 398 1058 477.5 1058 c 128,-1,6
 557 1058 557 1058 610.5 1049 c 128,-1,7
 664 1040 664 1040 714 1018 c 0,8,9
 817 972 817 972 863 844 c 1,10,11
 910 939 910 939 1015.5 998.5 c 128,-1,12
 1121 1058 1121 1058 1227.5 1058 c 128,-1,13
 1334 1058 1334 1058 1422.5 1015 c 128,-1,14
 1511 972 1511 972 1565 897 c 0,15,16
 1673 747 1673 747 1673 515 c 2,17,-1
 1673 480 l 1,18,-1
 929 480 l 1,19,20
 930 317 930 317 1025 218 c 128,-1,21
 1120 119 1120 119 1287 119 c 0,22,23
 1395 119 1395 119 1471.5 150.5 c 128,-1,24
 1548 182 1548 182 1589 219 c 1,25,-1
 1610 219 l 1,26,-1
 1655 100 l 1,27,28
 1590 46 1590 46 1501.5 12.5 c 128,-1,29
 1413 -21 1413 -21 1299.5 -21 c 128,-1,30
 1186 -21 1186 -21 1112 3.5 c 128,-1,31
 1038 28 1038 28 987 67 c 0,32,33
 890 141 890 141 851 234 c 1,34,35
 798 109 798 109 686 44 c 128,-1,36
 574 -21 574 -21 421 -21 c 0,37,38
 255 -21 255 -21 152 82 c 0,39,40
 73 161 73 161 73 295.5 c 128,-1,41
 73 430 73 430 177 500.5 c 128,-1,42
 281 571 281 571 526 591 c 1,43,44
 638 596 638 596 760 596 c 1,45,46
 754 804 754 804 690 862 c 0,47,48
 628 918 628 918 502 918 c 0,0,1
419 119 m 0,49,50
 595 119 595 119 676.5 207 c 128,-1,51
 758 295 758 295 760 480 c 1,52,53
 386 480 386 480 293 405 c 0,54,55
 262 380 262 380 252.5 356.5 c 128,-1,56
 243 333 243 333 243 300 c 0,57,58
 243 216 243 216 288.5 167.5 c 128,-1,59
 334 119 334 119 419 119 c 0,49,50
932 596 m 1,60,-1
 1498 596 l 1,61,62
 1494 752 1494 752 1410 846 c 0,63,64
 1344 918 1344 918 1233 918 c 0,65,66
 1032 918 1032 918 958 708 c 0,67,68
 938 654 938 654 932 596 c 1,60,-1
EndSplineSet
EndChar

StartChar: eth
Encoding: 240 240 175
Width: 1850
Flags: HW
LayerCount: 2
Fore
SplineSet
985.5 126.5 m 128,-1,1
 846 -23 846 -23 621.5 -23 c 128,-1,2
 397 -23 397 -23 258.5 107.5 c 128,-1,3
 120 238 120 238 120 453 c 0,4,5
 120 588 120 588 187.5 689.5 c 128,-1,6
 255 791 255 791 358.5 840.5 c 128,-1,7
 462 890 462 890 581 890 c 0,8,9
 661 890 661 890 740 863 c 0,10,11
 888 812 888 812 943 709 c 1,12,13
 895 990 895 990 733 1165 c 1,14,-1
 580 1014 l 1,15,-1
 486 1099 l 1,16,-1
 639 1250 l 1,17,18
 502 1348 502 1348 330 1349 c 1,19,20
 358 1481 358 1481 363 1481 c 0,21,22
 576 1481 576 1481 749 1359 c 1,23,-1
 912 1520 l 1,24,-1
 1005 1436 l 1,25,-1
 845 1276 l 1,26,27
 979 1141 979 1141 1052 942 c 128,-1,28
 1125 743 1125 743 1125 534 c 0,29,0
 1125 276 1125 276 985.5 126.5 c 128,-1,1
642 114 m 0,30,31
 726 114 726 114 796 160 c 0,32,33
 934 251 934 251 935 422 c 0,34,35
 935 559 935 559 860 652 c 0,36,37
 778 753 778 753 602 753 c 0,38,39
 454 753 454 753 374 658 c 0,40,41
 298 569 298 569 298 455 c 0,42,43
 298 114 298 114 642 114 c 0,30,31
EndSplineSet
EndChar

StartChar: divide
Encoding: 247 247 182
Width: 1187
Flags: HW
LayerCount: 2
Fore
SplineSet
687.5 45.5 m 128,-1,1
 642 0 642 0 578.5 0 c 128,-1,2
 515 0 515 0 470 45.5 c 128,-1,3
 425 91 425 91 425 154.5 c 128,-1,4
 425 218 425 218 469.5 263.5 c 128,-1,5
 514 309 514 309 578 309 c 128,-1,6
 642 309 642 309 687.5 263.5 c 128,-1,7
 733 218 733 218 733 154.5 c 128,-1,0
 733 91 733 91 687.5 45.5 c 128,-1,1
98 448 m 1,8,-1
 98 604 l 1,9,-1
 1089 604 l 1,10,-1
 1089 448 l 1,11,-1
 98 448 l 1,8,-1
687.5 783 m 128,-1,13
 642 737 642 737 578.5 737 c 128,-1,14
 515 737 515 737 470 783 c 128,-1,15
 425 829 425 829 425 893 c 128,-1,16
 425 957 425 957 469.5 1002 c 128,-1,17
 514 1047 514 1047 578 1047 c 128,-1,18
 642 1047 642 1047 687.5 1002 c 128,-1,19
 733 957 733 957 733 893 c 128,-1,12
 733 829 733 829 687.5 783 c 128,-1,13
EndSplineSet
EndChar

StartChar: oslash
Encoding: 248 248 183
Width: 1178
Flags: HW
LayerCount: 2
Fore
SplineSet
276 77 m 1,0,-1
 208 -4 l 1,1,-1
 75 -4 l 1,2,-1
 204 146 l 1,3,4
 89 287 89 287 89 521 c 0,5,6
 89 843 89 843 308 981 c 0,7,8
 430 1058 430 1058 607 1058 c 128,-1,9
 784 1058 784 1058 910 957 c 1,10,-1
 979 1034 l 1,11,-1
 1112 1034 l 1,12,-1
 982 885 l 1,13,14
 1092 746 1092 746 1092 520 c 0,15,16
 1092 197 1092 197 877 58 c 0,17,18
 755 -21 755 -21 579.5 -21 c 128,-1,19
 404 -21 404 -21 276 77 c 1,0,-1
323 281 m 1,20,-1
 803 832 l 1,21,22
 723 908 723 908 585.5 908 c 128,-1,23
 448 908 448 908 359.5 805.5 c 128,-1,24
 271 703 271 703 271 539.5 c 128,-1,25
 271 376 271 376 323 281 c 1,20,-1
590 126 m 0,26,27
 746 126 746 126 827.5 230 c 128,-1,28
 909 334 909 334 909 495.5 c 128,-1,29
 909 657 909 657 863 749 c 1,30,-1
 386 201 l 1,31,32
 469 126 469 126 590 126 c 0,26,27
EndSplineSet
EndChar

StartChar: thorn
Encoding: 254 254 189
Width: 1157
Flags: HW
LayerCount: 2
Fore
SplineSet
132 -388 m 1,0,-1
 132 1481 l 1,1,-1
 313 1481 l 1,2,-1
 313 889 l 1,3,4
 360 964 360 964 445.5 1011 c 128,-1,5
 531 1058 531 1058 623 1058 c 0,6,7
 829 1058 829 1058 949.5 912.5 c 128,-1,8
 1070 767 1070 767 1070 510.5 c 128,-1,9
 1070 254 1070 254 948.5 116.5 c 128,-1,10
 827 -21 827 -21 630 -21 c 0,11,12
 537 -21 537 -21 452 15.5 c 128,-1,13
 367 52 367 52 313 119 c 1,14,-1
 313 -388 l 1,15,-1
 132 -388 l 1,0,-1
600 119 m 1,16,17
 737 119 737 119 812 222 c 128,-1,18
 887 325 887 325 887 511 c 0,19,20
 886 738 886 738 804 836 c 0,21,22
 736 918 736 918 608 918 c 0,23,24
 536 918 536 918 449 886 c 128,-1,25
 362 854 362 854 313 791 c 1,26,-1
 313 231 l 1,27,28
 350 186 350 186 413 159 c 0,29,30
 544 121 544 121 600 119 c 1,16,17
EndSplineSet
EndChar

StartChar: Dcroat
Encoding: 272 272 207
Width: 1416
Flags: HW
LayerCount: 2
Fore
SplineSet
318 137 m 1,0,-1
 574 137 l 2,1,2
 862 137 862 137 999.5 283.5 c 128,-1,3
 1137 430 1137 430 1137 732 c 0,4,5
 1137 1034 1137 1034 994 1188 c 128,-1,6
 851 1342 851 1342 579 1342 c 2,7,-1
 318 1342 l 1,8,-1
 318 840 l 1,9,-1
 687 840 l 1,10,-1
 687 720 l 1,11,-1
 318 720 l 1,12,-1
 318 137 l 1,0,-1
0 720 m 1,13,-1
 0 840 l 1,14,-1
 135 840 l 1,15,-1
 135 1481 l 1,16,-1
 552 1481 l 2,17,18
 921 1481 921 1481 1120 1296.5 c 128,-1,19
 1319 1112 1319 1112 1319 739 c 0,20,21
 1319 366 1319 366 1128 183 c 128,-1,22
 937 0 937 0 547 0 c 2,23,-1
 135 0 l 1,24,-1
 135 720 l 1,25,-1
 0 720 l 1,13,-1
EndSplineSet
EndChar

StartChar: dcroat
Encoding: 273 273 208
Width: 1141
Flags: HW
LayerCount: 2
Fore
SplineSet
573 119 m 0,0,1
 665 119 665 119 748 161.5 c 128,-1,2
 831 204 831 204 848 247 c 1,3,-1
 848 793 l 1,4,5
 828 837 828 837 745.5 877.5 c 128,-1,6
 663 918 663 918 571 918 c 0,7,8
 438 918 438 918 354 813 c 128,-1,9
 270 708 270 708 270 522 c 128,-1,10
 270 336 270 336 346 227.5 c 128,-1,11
 422 119 422 119 573 119 c 0,0,1
528 1208 m 1,12,-1
 528 1324 l 1,13,-1
 848 1324 l 1,14,-1
 848 1429 l 1,15,-1
 1030 1429 l 1,16,-1
 1030 1324 l 1,17,-1
 1141 1324 l 1,18,-1
 1141 1208 l 1,19,-1
 1030 1208 l 1,20,-1
 1030 0 l 1,21,-1
 848 0 l 1,22,-1
 848 142 l 1,23,24
 810 67 810 67 727.5 23 c 128,-1,25
 645 -21 645 -21 549.5 -21 c 128,-1,26
 454 -21 454 -21 373 13 c 0,27,28
 292 48 292 48 229 112 c 0,29,30
 93 251 93 251 93 511 c 0,31,32
 93 774 93 774 223 920 c 0,33,34
 346 1058 346 1058 531 1058 c 0,35,36
 625 1058 625 1058 715 1022.5 c 128,-1,37
 805 987 805 987 848 911 c 1,38,-1
 848 1208 l 1,39,-1
 528 1208 l 1,12,-1
EndSplineSet
EndChar

StartChar: Hbar
Encoding: 294 294 226
Width: 1390
Flags: HW
LayerCount: 2
Fore
SplineSet
1072 1208 m 1,0,-1
 318 1208 l 1,1,-1
 318 830 l 1,2,-1
 1072 830 l 1,3,-1
 1072 1208 l 1,0,-1
55 1208 m 1,4,-1
 55 1324 l 1,5,-1
 135 1324 l 1,6,-1
 135 1481 l 1,7,-1
 318 1481 l 1,8,-1
 318 1324 l 1,9,-1
 1072 1324 l 1,10,-1
 1072 1481 l 1,11,-1
 1255 1481 l 1,12,-1
 1255 1324 l 1,13,-1
 1333 1324 l 1,14,-1
 1333 1208 l 1,15,-1
 1255 1208 l 1,16,-1
 1255 0 l 1,17,-1
 1072 0 l 1,18,-1
 1072 697 l 1,19,-1
 318 697 l 1,20,-1
 318 0 l 1,21,-1
 135 0 l 1,22,-1
 135 1208 l 1,23,-1
 55 1208 l 1,4,-1
EndSplineSet
EndChar

StartChar: hbar
Encoding: 295 295 227
Width: 1136
Flags: HW
LayerCount: 2
Fore
SplineSet
0 1208 m 1,0,-1
 0 1324 l 1,1,-1
 121 1324 l 1,2,-1
 121 1434 l 1,3,-1
 303 1434 l 1,4,-1
 303 1324 l 1,5,-1
 687 1324 l 1,6,-1
 687 1208 l 1,7,-1
 303 1208 l 1,8,-1
 303 863 l 1,9,10
 363 957 363 957 469 1007.5 c 128,-1,11
 575 1058 575 1058 688 1058 c 0,12,13
 840 1058 840 1058 935.5 963 c 128,-1,14
 1031 868 1031 868 1031 691 c 2,15,-1
 1031 0 l 1,16,-1
 848 0 l 1,17,-1
 848 703 l 2,18,19
 848 868 848 868 706 908 c 0,20,21
 670 918 670 918 617 918 c 128,-1,22
 564 918 564 918 501.5 897.5 c 128,-1,23
 439 877 439 877 397 848 c 0,24,25
 303 783 303 783 303 746 c 2,26,-1
 303 0 l 1,27,-1
 121 0 l 1,28,-1
 121 1208 l 1,29,-1
 0 1208 l 1,0,-1
EndSplineSet
EndChar

StartChar: dotlessi
Encoding: 305 305 237
Width: 497
Flags: HW
LayerCount: 2
Fore
SplineSet
151 0 m 1,0,-1
 151 1032 l 1,1,-1
 334 1032 l 1,2,-1
 334 0 l 1,3,-1
 151 0 l 1,0,-1
EndSplineSet
EndChar

StartChar: kgreenlandic
Encoding: 312 312 244
Width: 1062
Flags: HW
LayerCount: 2
Fore
SplineSet
115 0 m 1,0,-1
 115 1032 l 1,1,-1
 298 1032 l 1,2,-1
 298 559 l 1,3,-1
 299 559 l 1,4,-1
 827 1032 l 1,5,-1
 1024 1032 l 1,6,-1
 1024 988 l 1,7,-1
 583 592 l 1,8,-1
 1052 51 l 1,9,-1
 1052 0 l 1,10,-1
 878 0 l 1,11,-1
 449 514 l 1,12,-1
 298 387 l 1,13,-1
 298 0 l 1,14,-1
 115 0 l 1,0,-1
EndSplineSet
EndChar

StartChar: Lslash
Encoding: 321 321 253
Width: 1116
Flags: HW
LayerCount: 2
Fore
SplineSet
227 0 m 1,0,-1
 227 524 l 1,1,-1
 75 415 l 1,2,-1
 75 567 l 1,3,-1
 227 675 l 1,4,-1
 227 1481 l 1,5,-1
 409 1481 l 1,6,-1
 409 807 l 1,7,-1
 722 1033 l 1,8,-1
 722 882 l 1,9,-1
 409 656 l 1,10,-1
 409 137 l 1,11,-1
 1078 137 l 1,12,-1
 1078 0 l 1,13,-1
 227 0 l 1,0,-1
EndSplineSet
EndChar

StartChar: lslash
Encoding: 322 322 254
Width: 567
Flags: HW
LayerCount: 2
Fore
SplineSet
452 -9 m 2,0,1
 283 -9 283 -9 203 51 c 0,2,3
 171 75 171 75 154.5 125 c 128,-1,4
 138 175 138 175 135.5 210.5 c 128,-1,5
 133 246 133 246 133 316 c 2,6,-1
 133 622 l 1,7,-1
 26 541 l 1,8,-1
 26 683 l 1,9,-1
 133 766 l 1,10,-1
 133 1429 l 1,11,-1
 316 1429 l 1,12,-1
 316 905 l 1,13,-1
 480 1033 l 1,14,-1
 480 890 l 1,15,-1
 316 762 l 1,16,-1
 316 310 l 2,17,18
 316 192 316 192 347.5 167 c 128,-1,19
 379 142 379 142 429.5 139 c 128,-1,20
 480 136 480 136 534 136 c 1,21,-1
 534 -9 l 1,22,-1
 452 -9 l 2,0,1
EndSplineSet
EndChar

StartChar: OE
Encoding: 338 338 267
Width: 1919
Flags: HW
LayerCount: 2
Fore
SplineSet
738 0 m 2,0,1
 244 0 244 0 134 425 c 0,2,3
 98 562 98 562 98.5 716.5 c 128,-1,4
 99 871 99 871 119.5 973.5 c 128,-1,5
 140 1076 140 1076 185.5 1169.5 c 0,6,7
 230 1264 230 1264 298 1332 c 0,8,9
 445 1482 445 1482 692 1481 c 2,10,-1
 1799 1481 l 1,11,-1
 1799 1344 l 1,12,-1
 1175 1344 l 1,13,-1
 1175 854 l 1,14,-1
 1718 854 l 1,15,-1
 1718 717 l 1,16,-1
 1175 717 l 1,17,-1
 1175 136 l 1,18,-1
 1799 136 l 1,19,-1
 1799 0 l 1,20,-1
 738 0 l 2,0,1
707 136 m 2,21,-1
 993 136 l 1,22,-1
 993 1344 l 1,23,-1
 712 1344 l 2,24,25
 476 1344 476 1344 374 1169 c 0,26,27
 280 1009 280 1009 281 757 c 0,28,29
 282 288 282 288 534 171 c 0,30,31
 610 136 610 136 707 136 c 2,21,-1
EndSplineSet
EndChar

StartChar: oe
Encoding: 339 339 268
Width: 1909
Flags: HW
LayerCount: 2
Fore
SplineSet
218 133 m 0,0,1
 164 190 164 190 128.5 289 c 128,-1,2
 93 388 93 388 93 502.5 c 128,-1,3
 93 617 93 617 115 701.5 c 128,-1,4
 137 786 137 786 172 841 c 128,-1,5
 207 896 207 896 254.5 937.5 c 128,-1,6
 302 979 302 979 347 1001.5 c 128,-1,7
 392 1024 392 1024 442 1038 c 0,8,9
 517 1058 517 1058 582 1058 c 0,10,11
 736 1058 736 1058 845 982.5 c 128,-1,12
 954 907 954 907 995 799 c 1,13,14
 1049 942 1049 942 1198 1017 c 0,15,16
 1280 1058 1280 1058 1383.5 1058 c 128,-1,17
 1487 1058 1487 1058 1574 1015.5 c 0,18,19
 1661 974 1661 974 1715 898 c 0,20,21
 1824 746 1824 746 1824 505 c 2,22,-1
 1824 475 l 1,23,-1
 1095 475 l 1,24,25
 1095 337 1095 337 1175 233 c 0,26,27
 1263 119 1263 119 1443 119 c 0,28,29
 1540 119 1540 119 1625 156 c 128,-1,30
 1710 193 1710 193 1740 228 c 1,31,-1
 1761 228 l 1,32,-1
 1805 101 l 1,33,34
 1669 -21 1669 -21 1419 -21 c 0,35,36
 1290 -21 1290 -21 1173 46 c 128,-1,37
 1056 113 1056 113 1001 217 c 1,38,39
 943 109 943 109 839 44 c 128,-1,40
 735 -21 735 -21 597 -21 c 0,41,42
 363 -21 363 -21 218 133 c 0,0,1
592 119 m 0,43,44
 636 119 636 119 678 130.5 c 128,-1,45
 720 142 720 142 762.5 170.5 c 0,46,47
 804 198 804 198 836 242 c 0,48,49
 906 339 906 339 907 512 c 0,50,51
 906 860 906 860 686 908 c 0,52,53
 640 918 640 918 592 918 c 128,-1,54
 544 918 544 918 504 907 c 128,-1,55
 464 896 464 896 421 867 c 128,-1,56
 378 838 378 838 345 794 c 0,57,58
 270 694 270 694 270 513 c 0,59,60
 270 274 270 274 420 172 c 0,61,62
 498 118 498 118 592 119 c 0,43,44
1102 596 m 1,63,-1
 1650 596 l 1,64,65
 1642 752 1642 752 1560 844 c 0,66,67
 1494 918 1494 918 1382 918 c 0,68,69
 1308 918 1308 918 1253 885.5 c 128,-1,70
 1198 853 1198 853 1168 799 c 0,71,72
 1117 706 1117 706 1102 596 c 1,63,-1
EndSplineSet
EndChar

StartChar: florin
Encoding: 402 402 307
Width: 1168
Flags: HW
LayerCount: 2
Fore
SplineSet
739 1025 m 0,0,1
 739 1021 739 1021 710 830 c 1,2,-1
 1003 830 l 1,3,-1
 984 725 l 1,4,-1
 693 725 l 1,5,6
 628 290 628 290 603 138 c 1,7,8
 564 -59 564 -59 474.5 -152.5 c 128,-1,9
 385 -246 385 -246 228 -246 c 0,10,11
 156 -246 156 -246 95 -225 c 1,12,-1
 120 -78 l 1,13,14
 167 -99 167 -99 214.5 -99 c 128,-1,15
 262 -99 262 -99 287.5 -89 c 0,16,17
 313 -80 313 -80 338 -52 c 0,18,19
 386 1 386 1 413.5 168 c 128,-1,20
 441 335 441 335 499 725 c 1,21,-1
 256 725 l 1,22,-1
 275 830 l 1,23,-1
 514 830 l 1,24,25
 537 984 537 984 551 1066 c 0,26,27
 584 1269 584 1269 690.5 1376 c 128,-1,28
 797 1483 797 1483 966 1483 c 0,29,30
 1037 1483 1037 1483 1089 1465 c 1,31,-1
 1067 1328 l 1,32,33
 1022 1348 1022 1348 939.5 1348 c 128,-1,34
 857 1348 857 1348 813.5 1276 c 128,-1,35
 770 1204 770 1204 739 1025 c 0,0,1
EndSplineSet
EndChar

StartChar: uni0237
Encoding: 567 567 350
Width: 522
Flags: HW
LayerCount: 2
Fore
SplineSet
94 -373 m 1,0,1
 18 -373 18 -373 -55 -366 c 1,2,-1
 -55 -224 l 1,3,4
 -19 -227 -19 -227 24.5 -227 c 128,-1,5
 68 -227 68 -227 94 -221 c 0,6,7
 120 -214 120 -214 144 -194 c 0,8,9
 190 -156 190 -156 190 -9 c 2,10,-1
 190 1032 l 1,11,-1
 372 1032 l 1,12,-1
 372 10 l 2,13,14
 372 -219 372 -219 297 -302 c 0,15,16
 233 -373 233 -373 94 -373 c 1,0,1
EndSplineSet
EndChar

StartChar: circumflex
Encoding: 710 710 351
Width: 858
Flags: HW
LayerCount: 2
Fore
SplineSet
76 1164 m 1,0,-1
 363 1506 l 1,1,-1
 494 1506 l 1,2,-1
 782 1164 l 1,3,-1
 630 1164 l 1,4,-1
 427 1398 l 1,5,-1
 228 1164 l 1,6,-1
 76 1164 l 1,0,-1
EndSplineSet
EndChar

StartChar: caron
Encoding: 711 711 352
Width: 872
Flags: HW
LayerCount: 2
Fore
SplineSet
368 1094 m 1,0,-1
 79 1435 l 1,1,-1
 235 1435 l 1,2,-1
 428 1204 l 1,3,-1
 645 1435 l 1,4,-1
 793 1435 l 1,5,-1
 486 1094 l 1,6,-1
 368 1094 l 1,0,-1
EndSplineSet
EndChar

StartChar: uni02C9
Encoding: 713 713 353
Width: 989
Flags: HW
LayerCount: 2
Fore
SplineSet
216 1159 m 1,0,-1
 216 1293 l 1,1,-1
 771 1293 l 1,2,-1
 771 1159 l 1,3,-1
 216 1159 l 1,0,-1
EndSplineSet
EndChar

StartChar: breve
Encoding: 728 728 354
Width: 857
Flags: HW
LayerCount: 2
Fore
SplineSet
746 1464 m 1,0,1
 744 1311 744 1311 659 1229 c 128,-1,2
 574 1147 574 1147 424 1147 c 0,3,4
 274 1147 274 1147 193.5 1227.5 c 128,-1,5
 113 1308 113 1308 111 1464 c 1,6,-1
 251 1464 l 1,7,8
 258 1381 258 1381 297.5 1335.5 c 128,-1,9
 337 1290 337 1290 428 1290 c 0,10,11
 590 1290 590 1290 603 1464 c 1,12,-1
 746 1464 l 1,0,1
EndSplineSet
EndChar

StartChar: dotaccent
Encoding: 729 729 355
Width: 487
Flags: HW
LayerCount: 2
Fore
SplineSet
233 1104 m 128,-1,1
 171 1104 171 1104 127 1148 c 128,-1,2
 83 1192 83 1192 83 1254 c 128,-1,3
 83 1316 83 1316 127 1360.5 c 128,-1,4
 171 1405 171 1405 233 1405 c 128,-1,5
 295 1405 295 1405 339.5 1360.5 c 128,-1,6
 384 1316 384 1316 384 1254 c 128,-1,7
 384 1192 384 1192 339.5 1148 c 128,-1,0
 295 1104 295 1104 233 1104 c 128,-1,1
EndSplineSet
EndChar

StartChar: ring
Encoding: 730 730 356
Width: 659
Flags: HW
LayerCount: 2
Fore
SplineSet
330 1049 m 128,-1,1
 392 1049 392 1049 433 1091.5 c 128,-1,2
 474 1134 474 1134 474 1195.5 c 128,-1,3
 474 1257 474 1257 432.5 1300.5 c 128,-1,4
 391 1344 391 1344 330.5 1344 c 128,-1,5
 270 1344 270 1344 228 1301 c 128,-1,6
 186 1258 186 1258 186 1195.5 c 128,-1,7
 186 1133 186 1133 227 1091 c 128,-1,0
 268 1049 268 1049 330 1049 c 128,-1,1
494 1040.5 m 128,-1,9
 427 977 427 977 330.5 977 c 128,-1,10
 234 977 234 977 166.5 1041 c 128,-1,11
 99 1105 99 1105 99 1196.5 c 128,-1,12
 99 1288 99 1288 167 1352 c 128,-1,13
 235 1416 235 1416 331 1416 c 128,-1,14
 427 1416 427 1416 494 1352.5 c 128,-1,15
 561 1289 561 1289 561 1196.5 c 128,-1,8
 561 1104 561 1104 494 1040.5 c 128,-1,9
EndSplineSet
EndChar

StartChar: ogonek
Encoding: 731 731 357
Width: 533
Flags: HW
LayerCount: 2
Fore
SplineSet
208 -174 m 1,0,1
 208 -290 208 -290 319 -290 c 0,2,3
 363 -290 363 -290 452 -264 c 1,4,-1
 464 -374 l 1,5,6
 365 -407 365 -407 275 -407 c 0,7,8
 185 -408 185 -408 131 -354 c 0,9,10
 76 -299 76 -299 76 -196 c 0,11,12
 76 -96 76 -96 163 5 c 1,13,-1
 270 5 l 1,14,15
 210 -89 210 -89 208 -174 c 1,0,1
EndSplineSet
EndChar

StartChar: tilde
Encoding: 732 732 358
Width: 856
Flags: HW
LayerCount: 2
Fore
SplineSet
588 1096 m 0,0,1
 513 1096 513 1096 416 1148.5 c 128,-1,2
 319 1201 319 1201 278 1201 c 0,3,4
 222 1201 222 1201 217 1097 c 1,5,-1
 78 1097 l 1,6,7
 78 1213 78 1213 128.5 1273.5 c 128,-1,8
 179 1334 179 1334 251 1334 c 128,-1,9
 323 1334 323 1334 387.5 1307 c 128,-1,10
 452 1280 452 1280 501 1253.5 c 128,-1,11
 550 1227 550 1227 578 1227 c 0,12,13
 634 1227 634 1227 640 1335 c 1,14,-1
 778 1335 l 1,15,16
 778 1096 778 1096 588 1096 c 0,0,1
EndSplineSet
EndChar

StartChar: hungarumlaut
Encoding: 733 733 359
Width: 667
Flags: HW
LayerCount: 2
Fore
SplineSet
2 1123 m 1,0,-1
 190 1466 l 1,1,-1
 374 1466 l 1,2,-1
 123 1123 l 1,3,-1
 2 1123 l 1,0,-1
253 1123 m 1,4,-1
 453 1466 l 1,5,-1
 665 1466 l 1,6,-1
 375 1123 l 1,7,-1
 253 1123 l 1,4,-1
EndSplineSet
EndChar

StartChar: uni0307
Encoding: 775 775 360
Width: 548
Flags: HW
LayerCount: 2
Fore
SplineSet
275 294 m 128,-1,1
 216 294 216 294 183 330 c 128,-1,2
 150 366 150 366 150 416 c 0,3,4
 150 466 150 466 182 501 c 128,-1,5
 214 536 214 536 274 536 c 0,6,7
 334 536 334 536 366 500 c 128,-1,8
 398 464 398 464 398 415 c 128,-1,9
 398 366 398 366 366 330 c 128,-1,0
 334 294 334 294 275 294 c 128,-1,1
EndSplineSet
EndChar

StartChar: uni030F
Encoding: 783 783 361
Width: 667
Flags: HW
LayerCount: 2
Fore
SplineSet
665 1123 m 1,0,-1
 544 1123 l 1,1,-1
 293 1466 l 1,2,-1
 477 1466 l 1,3,-1
 665 1123 l 1,0,-1
414 1123 m 1,4,-1
 292 1123 l 1,5,-1
 2 1466 l 1,6,-1
 214 1466 l 1,7,-1
 414 1123 l 1,4,-1
EndSplineSet
EndChar

StartChar: uni0311
Encoding: 785 785 362
Width: 857
Flags: HW
LayerCount: 2
Fore
SplineSet
111 1147 m 1,0,1
 113 1300 113 1300 198 1382 c 0,2,3
 284 1464 284 1464 434 1464 c 128,-1,4
 584 1464 584 1464 664 1383.5 c 128,-1,5
 744 1303 744 1303 746 1147 c 1,6,-1
 606 1147 l 1,7,8
 599 1230 599 1230 559.5 1275.5 c 128,-1,9
 520 1321 520 1321 429 1321 c 0,10,11
 267 1321 267 1321 254 1147 c 1,12,-1
 111 1147 l 1,0,1
EndSplineSet
EndChar

StartChar: uni0326
Encoding: 806 806 363
Width: 470
Flags: HW
LayerCount: 2
Fore
SplineSet
72 -146 m 1,0,-1
 171 340 l 1,1,-1
 364 340 l 1,2,-1
 199 -146 l 1,3,-1
 72 -146 l 1,0,-1
EndSplineSet
EndChar

StartChar: Delta
Encoding: 916 916 364
Width: 1153
Flags: HW
LayerCount: 2
Fore
SplineSet
81 0 m 1,0,-1
 81 77 l 1,1,-1
 476 1370 l 1,2,-1
 692 1370 l 1,3,-1
 1073 80 l 1,4,-1
 1073 0 l 1,5,-1
 81 0 l 1,0,-1
271 115 m 2,6,-1
 879 115 l 1,7,8
 587 1233 587 1233 585 1240 c 1,9,-1
 580 1240 l 1,10,11
 568 1181 568 1181 420 648 c 128,-1,12
 272 115 272 115 271 115 c 2,6,-1
EndSplineSet
EndChar

StartChar: Omega
Encoding: 937 937 365
Width: 1417
Flags: HW
LayerCount: 2
Fore
SplineSet
806 130 m 1,0,1
 956 231 956 231 1045 432.5 c 128,-1,2
 1134 634 1134 634 1134 845 c 0,3,4
 1134 1062 1134 1062 1036 1206 c 0,5,6
 986 1278 986 1278 904 1319.5 c 128,-1,7
 822 1361 822 1361 715.5 1361 c 128,-1,8
 609 1361 609 1361 526 1319.5 c 128,-1,9
 443 1278 443 1278 393 1205 c 0,10,11
 293 1059 293 1059 293 846 c 128,-1,12
 293 633 293 633 382 432 c 128,-1,13
 471 231 471 231 621 130 c 1,14,-1
 621 0 l 1,15,-1
 89 0 l 1,16,-1
 89 130 l 1,17,-1
 432 130 l 1,18,19
 274 233 274 233 182.5 430 c 128,-1,20
 91 627 91 627 91 842 c 0,21,22
 90 1182 90 1182 306 1369 c 0,23,24
 461 1503 461 1503 716 1503 c 0,25,26
 1079 1502 1079 1502 1242 1222 c 0,27,28
 1336 1060 1336 1060 1336 844 c 128,-1,29
 1336 628 1336 628 1244.5 430.5 c 128,-1,30
 1153 233 1153 233 995 130 c 1,31,-1
 1338 130 l 1,32,-1
 1338 0 l 1,33,-1
 806 0 l 1,34,-1
 806 130 l 1,0,1
EndSplineSet
EndChar

StartChar: pi
Encoding: 960 960 366
Width: 1294
Flags: HW
LayerCount: 2
Fore
SplineSet
515 907 m 1,0,1
 515 505 515 505 497 324.5 c 128,-1,2
 479 144 479 144 410 0 c 1,3,-1
 204 0 l 1,4,5
 287 141 287 141 308 302 c 128,-1,6
 329 463 329 463 330.5 622 c 128,-1,7
 332 781 332 781 332 907 c 1,8,9
 209 907 209 907 103 861 c 1,10,-1
 73 975 l 1,11,12
 119 1009 119 1009 189 1020.5 c 128,-1,13
 259 1032 259 1032 377 1032 c 2,14,-1
 1210 1032 l 1,15,-1
 1210 907 l 1,16,-1
 1012 907 l 1,17,-1
 1012 339 l 2,18,19
 1012 218 1012 218 1036 188 c 0,20,21
 1068 148 1068 148 1108.5 140.5 c 128,-1,22
 1149 133 1149 133 1193 133 c 1,23,-1
 1173 -1 l 1,24,25
 1114 -13 1114 -13 1068 -13 c 0,26,27
 829 -13 829 -13 829 308 c 2,28,-1
 829 907 l 1,29,-1
 515 907 l 1,0,1
EndSplineSet
EndChar

StartChar: endash
Encoding: 8211 8211 389
Width: 1471
Flags: HW
LayerCount: 2
Fore
SplineSet
98 572 m 1,0,-1
 98 713 l 1,1,-1
 1373 713 l 1,2,-1
 1373 572 l 1,3,-1
 98 572 l 1,0,-1
EndSplineSet
EndChar

StartChar: emdash
Encoding: 8212 8212 390
Width: 2117
Flags: HW
LayerCount: 2
Fore
SplineSet
98 572 m 1,0,-1
 98 713 l 1,1,-1
 2019 713 l 1,2,-1
 2019 572 l 1,3,-1
 98 572 l 1,0,-1
EndSplineSet
EndChar

StartChar: quoteleft
Encoding: 8216 8216 391
Width: 371
Flags: HW
LayerCount: 2
Fore
SplineSet
208 1012 m 1,0,-1
 39 1481 l 1,1,-1
 231 1481 l 1,2,-1
 328 1012 l 1,3,-1
 208 1012 l 1,0,-1
EndSplineSet
EndChar

StartChar: quoteright
Encoding: 8217 8217 392
Width: 373
Flags: HW
LayerCount: 2
Fore
SplineSet
43 995 m 1,0,-1
 142 1481 l 1,1,-1
 335 1481 l 1,2,-1
 170 995 l 1,3,-1
 43 995 l 1,0,-1
EndSplineSet
EndChar

StartChar: quotesinglbase
Encoding: 8218 8218 393
Width: 420
Flags: HW
LayerCount: 2
Fore
SplineSet
53 -242 m 1,0,-1
 152 244 l 1,1,-1
 345 244 l 1,2,-1
 180 -242 l 1,3,-1
 53 -242 l 1,0,-1
EndSplineSet
EndChar

StartChar: quotedblleft
Encoding: 8220 8220 394
Width: 693
Flags: HW
LayerCount: 2
Fore
SplineSet
216 1012 m 1,0,-1
 42 1481 l 1,1,-1
 234 1481 l 1,2,-1
 331 1012 l 1,3,-1
 216 1012 l 1,0,-1
526 1012 m 1,4,-1
 353 1481 l 1,5,-1
 545 1481 l 1,6,-1
 641 1012 l 1,7,-1
 526 1012 l 1,4,-1
EndSplineSet
EndChar

StartChar: quotedblright
Encoding: 8221 8221 395
Width: 694
Flags: HW
LayerCount: 2
Fore
SplineSet
52 995 m 1,0,-1
 142 1481 l 1,1,-1
 335 1481 l 1,2,-1
 170 995 l 1,3,-1
 52 995 l 1,0,-1
371 995 m 1,4,-1
 462 1481 l 1,5,-1
 656 1481 l 1,6,-1
 489 995 l 1,7,-1
 371 995 l 1,4,-1
EndSplineSet
EndChar

StartChar: quotedblbase
Encoding: 8222 8222 396
Width: 833
Flags: HW
LayerCount: 2
Fore
SplineSet
108 -242 m 1,0,-1
 198 244 l 1,1,-1
 391 244 l 1,2,-1
 226 -242 l 1,3,-1
 108 -242 l 1,0,-1
427 -242 m 1,4,-1
 518 244 l 1,5,-1
 712 244 l 1,6,-1
 545 -242 l 1,7,-1
 427 -242 l 1,4,-1
EndSplineSet
EndChar

StartChar: dagger
Encoding: 8224 8224 397
Width: 1080
Flags: HW
LayerCount: 2
Fore
SplineSet
454 0 m 1,0,-1
 454 920 l 1,1,-1
 90 920 l 1,2,-1
 90 1058 l 1,3,-1
 454 1058 l 1,4,-1
 454 1481 l 1,5,-1
 636 1481 l 1,6,-1
 636 1058 l 1,7,-1
 991 1058 l 1,8,-1
 991 920 l 1,9,-1
 636 920 l 1,10,-1
 636 0 l 1,11,-1
 454 0 l 1,0,-1
EndSplineSet
EndChar

StartChar: daggerdbl
Encoding: 8225 8225 398
Width: 1080
Flags: HW
LayerCount: 2
Fore
SplineSet
636 388 m 1,0,-1
 636 0 l 1,1,-1
 454 0 l 1,2,-1
 454 388 l 1,3,-1
 90 388 l 1,4,-1
 90 526 l 1,5,-1
 454 526 l 1,6,-1
 454 920 l 1,7,-1
 90 920 l 1,8,-1
 90 1058 l 1,9,-1
 454 1058 l 1,10,-1
 454 1481 l 1,11,-1
 636 1481 l 1,12,-1
 636 1058 l 1,13,-1
 991 1058 l 1,14,-1
 991 920 l 1,15,-1
 636 920 l 1,16,-1
 636 526 l 1,17,-1
 991 526 l 1,18,-1
 991 388 l 1,19,-1
 636 388 l 1,0,-1
EndSplineSet
EndChar

StartChar: bullet
Encoding: 8226 8226 399
Width: 904
Flags: HW
LayerCount: 2
Fore
SplineSet
90 654 m 0,0,1
 90 740 90 740 121 811 c 128,-1,2
 152 882 152 882 204 926 c 0,3,4
 311 1016 311 1016 454 1015 c 0,5,6
 596 1016 596 1016 702 926 c 0,7,8
 814 831 814 831 814 655 c 0,9,10
 814 480 814 480 700 384 c 0,11,12
 593 295 593 295 451 295 c 0,13,14
 308 294 308 294 202 384 c 0,15,16
 90 478 90 478 90 654 c 0,0,1
EndSplineSet
EndChar

StartChar: perthousand
Encoding: 8240 8240 401
Width: 2463
Flags: HW
LayerCount: 2
Fore
SplineSet
239 889.5 m 128,-1,1
 284 824 284 824 377.5 824 c 128,-1,2
 471 824 471 824 516 893 c 128,-1,3
 561 962 561 962 561 1111.5 c 128,-1,4
 561 1261 561 1261 517 1325.5 c 128,-1,5
 473 1390 473 1390 379 1390 c 128,-1,6
 285 1390 285 1390 239.5 1322 c 128,-1,7
 194 1254 194 1254 194 1104.5 c 128,-1,0
 194 955 194 955 239 889.5 c 128,-1,1
378 725 m 0,8,9
 66 725 66 725 66 1100 c 0,10,11
 66 1394 66 1394 256 1462 c 0,12,13
 310 1482 310 1482 380 1481 c 0,14,15
 687 1481 687 1481 687 1110 c 0,16,17
 687 943 687 943 619 838 c 0,18,19
 546 725 546 725 378 725 c 0,8,9
404 0 m 1,20,-1
 1173 1481 l 1,21,-1
 1313 1481 l 1,22,-1
 551 0 l 1,23,-1
 404 0 l 1,20,-1
1204.5 164 m 128,-1,25
 1249 98 1249 98 1342 98 c 128,-1,26
 1435 98 1435 98 1481 167 c 128,-1,27
 1527 236 1527 236 1527 385 c 128,-1,28
 1527 534 1527 534 1482.5 598 c 128,-1,29
 1438 662 1438 662 1344 662 c 128,-1,30
 1250 662 1250 662 1205 595 c 128,-1,31
 1160 528 1160 528 1160 379 c 128,-1,24
 1160 230 1160 230 1204.5 164 c 128,-1,25
1343 -1 m 1,32,33
 1031 -1 1031 -1 1031 374 c 0,34,35
 1031 540 1031 540 1099 644 c 0,36,37
 1173 756 1173 756 1343 756 c 0,38,39
 1653 756 1653 756 1653 385 c 0,40,41
 1653 218 1653 218 1585 113 c 0,42,43
 1511 -1 1511 -1 1343 -1 c 1,32,33
1948.5 164 m 128,-1,45
 1993 98 1993 98 2086 98 c 128,-1,46
 2179 98 2179 98 2225 167 c 128,-1,47
 2271 236 2271 236 2271 385 c 128,-1,48
 2271 534 2271 534 2226.5 598 c 128,-1,49
 2182 662 2182 662 2088 662 c 128,-1,50
 1994 662 1994 662 1949 595 c 128,-1,51
 1904 528 1904 528 1904 379 c 128,-1,44
 1904 230 1904 230 1948.5 164 c 128,-1,45
2087 -1 m 1,52,53
 1775 -1 1775 -1 1775 374 c 0,54,55
 1775 540 1775 540 1843 644 c 0,56,57
 1917 756 1917 756 2087 756 c 1,58,59
 2397 756 2397 756 2397 385 c 0,60,61
 2397 218 2397 218 2329 113 c 0,62,63
 2255 -1 2255 -1 2087 -1 c 1,52,53
EndSplineSet
EndChar

StartChar: guilsinglleft
Encoding: 8249 8249 402
Width: 509
Flags: HW
LayerCount: 2
Fore
SplineSet
158 583 m 1,0,-1
 505 354 l 1,1,-1
 505 159 l 1,2,3
 99 457 99 457 -3 533 c 1,4,-1
 -3 634 l 1,5,6
 76 699 76 699 401 943 c 2,7,-1
 505 1021 l 1,8,-1
 505 814 l 1,9,-1
 158 583 l 1,0,-1
EndSplineSet
EndChar

StartChar: guilsinglright
Encoding: 8250 8250 403
Width: 595
Flags: HW
LayerCount: 2
Fore
SplineSet
395 599 m 1,0,-1
 49 827 l 1,1,-1
 49 1021 l 1,2,3
 455 724 455 724 557 648 c 1,4,-1
 557 545 l 1,5,6
 478 480 478 480 153 236 c 1,7,-1
 49 159 l 1,8,-1
 49 367 l 1,9,-1
 395 599 l 1,0,-1
EndSplineSet
EndChar

StartChar: fraction
Encoding: 8260 8260 404
Width: 862
Flags: HW
LayerCount: 2
Fore
SplineSet
-10 -1 m 1,0,-1
 701 1427 l 1,1,-1
 872 1427 l 1,2,-1
 165 -1 l 1,3,-1
 -10 -1 l 1,0,-1
EndSplineSet
EndChar

StartChar: Euro
Encoding: 8364 8364 405
Width: 1239
Flags: HW
LayerCount: 2
Fore
SplineSet
836 -23 m 1,0,1
 551 -23 551 -23 381.5 125.5 c 128,-1,2
 212 274 212 274 152 577 c 1,3,-1
 -10 577 l 1,4,-1
 19 684 l 1,5,-1
 146 684 l 1,6,7
 144 707 144 707 144 751 c 1,8,-1
 146 819 l 1,9,-1
 -8 819 l 1,10,-1
 10 923 l 1,11,-1
 153 923 l 1,12,13
 238 1360 238 1360 590 1470 c 0,14,15
 698 1504 698 1504 826 1503 c 0,16,17
 1081 1503 1081 1503 1236 1365 c 1,18,-1
 1236 1133 l 1,19,-1
 1173 1133 l 1,20,21
 1083 1374 1083 1374 801 1374 c 0,22,23
 682 1374 682 1374 600.5 1333 c 128,-1,24
 519 1292 519 1292 471 1244 c 0,25,26
 361 1133 361 1133 328 923 c 1,27,-1
 1064 923 l 1,28,-1
 1036 819 l 1,29,-1
 316 819 l 1,30,31
 312 787 312 787 312 744.5 c 128,-1,32
 312 702 312 702 314 684 c 1,33,-1
 1020 684 l 1,34,-1
 993 577 l 1,35,-1
 326 577 l 1,36,37
 356 382 356 382 468 256 c 0,38,39
 591 119 591 119 808 119 c 0,40,41
 1121 119 1121 119 1156 347 c 1,42,-1
 1236 347 l 1,43,-1
 1236 114 l 1,44,45
 1178 60 1178 60 1099 28 c 0,46,47
 974 -24 974 -24 836 -23 c 1,0,1
EndSplineSet
EndChar

StartChar: trademark
Encoding: 8482 8482 406
Width: 1512
Flags: HW
LayerCount: 2
Fore
SplineSet
687 770 m 1,0,-1
 687 1481 l 1,1,-1
 873 1481 l 1,2,-1
 1056 1039 l 1,3,-1
 1245 1481 l 1,4,-1
 1420 1481 l 1,5,-1
 1420 770 l 1,6,-1
 1302 770 l 1,7,-1
 1302 1366 l 1,8,-1
 1295 1366 l 1,9,-1
 1100 907 l 1,10,-1
 1010 907 l 1,11,-1
 807 1370 l 1,12,-1
 802 1370 l 1,13,-1
 802 770 l 1,14,-1
 687 770 l 1,0,-1
274 770 m 1,15,-1
 274 1390 l 1,16,-1
 81 1390 l 1,17,-1
 81 1481 l 1,18,-1
 577 1481 l 1,19,-1
 577 1390 l 1,20,-1
 384 1390 l 1,21,-1
 384 770 l 1,22,-1
 274 770 l 1,15,-1
EndSplineSet
EndChar

StartChar: partialdiff
Encoding: 8706 8706 407
Width: 1234
Flags: HW
LayerCount: 2
Fore
SplineSet
527 -21 m 0,0,1
 314 -21 314 -21 189 81 c 128,-1,2
 64 183 64 183 64 358 c 0,3,4
 64 482 64 482 113 585.5 c 0,5,6
 162 688 162 688 241 754 c 0,7,8
 407 892 407 892 610 892 c 0,9,10
 696 892 696 892 773 859 c 0,11,12
 917 797 917 797 956 670 c 1,13,14
 956 1058 956 1058 758 1224 c 0,15,16
 605 1351 605 1351 318 1351 c 1,17,18
 334 1483 334 1483 335 1483 c 0,19,20
 816 1483 816 1483 1004 1152 c 0,21,22
 1110 965 1110 965 1110 703 c 0,23,24
 1110 383 1110 383 945 181 c 128,-1,25
 780 -21 780 -21 527 -21 c 0,0,1
889 501 m 0,26,27
 889 615 889 615 820.5 685 c 128,-1,28
 752 755 752 755 593.5 755 c 128,-1,29
 435 755 435 755 338.5 645 c 128,-1,30
 242 535 242 535 242 367 c 0,31,32
 242 253 242 253 309 184.5 c 128,-1,33
 376 116 376 116 532 116 c 128,-1,34
 688 116 688 116 788.5 227.5 c 128,-1,35
 889 339 889 339 889 501 c 0,26,27
EndSplineSet
EndChar

StartChar: uni2206
Encoding: 8710 8710 408
Width: 1100
Flags: HW
LayerCount: 2
Fore
SplineSet
63 0 m 1,0,-1
 63 132 l 1,1,-1
 488 1481 l 1,2,-1
 616 1481 l 1,3,-1
 1039 134 l 1,4,-1
 1039 0 l 1,5,-1
 63 0 l 1,0,-1
881 131 m 1,6,-1
 553 1243 l 1,7,-1
 223 131 l 1,8,-1
 881 131 l 1,6,-1
EndSplineSet
EndChar

StartChar: product
Encoding: 8719 8719 409
Width: 1277
Flags: HW
LayerCount: 2
Fore
SplineSet
98 0 m 1,0,-1
 98 1481 l 1,1,-1
 1178 1481 l 1,2,-1
 1178 0 l 1,3,-1
 996 0 l 1,4,-1
 996 1342 l 1,5,-1
 280 1342 l 1,6,-1
 280 0 l 1,7,-1
 98 0 l 1,0,-1
EndSplineSet
EndChar

StartChar: summation
Encoding: 8721 8721 410
Width: 1137
Flags: HW
LayerCount: 2
Fore
SplineSet
86 0 m 1,0,-1
 86 105 l 1,1,-1
 622 764 l 1,2,-1
 108 1373 l 1,3,-1
 108 1481 l 1,4,-1
 1017 1481 l 1,5,-1
 1017 1363 l 1,6,-1
 290 1363 l 1,7,-1
 789 766 l 1,8,-1
 274 128 l 1,9,-1
 1048 128 l 1,10,-1
 1048 0 l 1,11,-1
 86 0 l 1,0,-1
EndSplineSet
EndChar

StartChar: minus
Encoding: 8722 8722 411
Width: 1171
Flags: HW
LayerCount: 2
Fore
SplineSet
98 411 m 1,0,-1
 98 564 l 1,1,-1
 1073 564 l 1,2,-1
 1073 411 l 1,3,-1
 98 411 l 1,0,-1
EndSplineSet
EndChar

StartChar: uni2215
Encoding: 8725 8725 412
Width: 862
Flags: HW
LayerCount: 2
Fore
SplineSet
-10 -1 m 1,0,-1
 701 1427 l 1,1,-1
 872 1427 l 1,2,-1
 165 -1 l 1,3,-1
 -10 -1 l 1,0,-1
EndSplineSet
EndChar

StartChar: uni2219
Encoding: 8729 8729 413
Width: 390
Flags: HW
LayerCount: 2
Fore
SplineSet
195 433 m 128,-1,1
 141 433 141 433 103 469.5 c 128,-1,2
 65 506 65 506 65 560 c 128,-1,3
 65 614 65 614 103 651 c 128,-1,4
 141 688 141 688 195 688 c 128,-1,5
 249 688 249 688 285.5 651 c 128,-1,6
 322 614 322 614 322 560 c 128,-1,7
 322 506 322 506 285.5 469.5 c 128,-1,0
 249 433 249 433 195 433 c 128,-1,1
EndSplineSet
EndChar

StartChar: radical
Encoding: 8730 8730 414
Width: 1024
Flags: HW
LayerCount: 2
Fore
SplineSet
467 -100 m 1,0,-1
 213 676 l 1,1,-1
 9 649 l 1,2,-1
 -3 773 l 1,3,-1
 319 814 l 1,4,-1
 488 264 l 1,5,6
 510 199 510 199 530.5 123.5 c 128,-1,7
 551 48 551 48 552 47 c 1,8,-1
 606 272 l 2,9,10
 652 460 652 460 747.5 878.5 c 128,-1,11
 843 1297 843 1297 888 1482 c 1,12,-1
 1035 1482 l 1,13,-1
 648 -100 l 1,14,-1
 467 -100 l 1,0,-1
EndSplineSet
EndChar

StartChar: infinity
Encoding: 8734 8734 415
Width: 1531
Flags: HW
LayerCount: 2
Fore
SplineSet
1118 203 m 0,0,1
 937 203 937 203 766 463 c 1,2,3
 590 209 590 209 411 209 c 0,4,5
 269 209 269 209 179 306 c 128,-1,6
 89 403 89 403 89 553.5 c 128,-1,7
 89 704 89 704 181 803.5 c 128,-1,8
 273 903 273 903 414 903 c 0,9,10
 601 903 601 903 768 644 c 1,11,12
 945 898 945 898 1123 898 c 1,13,14
 1267 897 1267 897 1354.5 802 c 128,-1,15
 1442 707 1442 707 1442 555.5 c 128,-1,16
 1442 404 1442 404 1348.5 303.5 c 128,-1,17
 1255 203 1255 203 1118 203 c 0,0,1
280 401 m 128,-1,19
 336 340 336 340 409.5 340 c 128,-1,20
 483 340 483 340 567 404 c 128,-1,21
 651 468 651 468 707 553 c 1,22,23
 650 644 650 644 566.5 709.5 c 128,-1,24
 483 775 483 775 408.5 775 c 128,-1,25
 334 775 334 775 279 712 c 128,-1,26
 224 649 224 649 224 555.5 c 128,-1,18
 224 462 224 462 280 401 c 128,-1,19
974.5 396 m 128,-1,28
 1063 333 1063 333 1135.5 333 c 128,-1,29
 1208 333 1208 333 1261.5 392.5 c 128,-1,30
 1315 452 1315 452 1315 551 c 128,-1,31
 1315 650 1315 650 1261 709.5 c 128,-1,32
 1207 769 1207 769 1133 769 c 128,-1,33
 1059 769 1059 769 967.5 700.5 c 128,-1,34
 876 632 876 632 824 551 c 1,35,27
 886 459 886 459 974.5 396 c 128,-1,28
EndSplineSet
EndChar

StartChar: integral
Encoding: 8747 8747 416
Width: 709
Flags: HW
LayerCount: 2
Fore
SplineSet
716 1362 m 1,0,1
 665 1384 665 1384 583.5 1384 c 128,-1,2
 502 1384 502 1384 471 1311.5 c 128,-1,3
 440 1239 440 1239 440 1062 c 2,4,-1
 440 -27 l 1,5,6
 433 -223 433 -223 360.5 -316 c 128,-1,7
 288 -409 288 -409 133 -409 c 0,8,9
 60 -409 60 -409 -7 -386 c 1,10,-1
 -7 -240 l 1,11,12
 45 -262 45 -262 99.5 -262 c 128,-1,13
 154 -262 154 -262 182 -242 c 0,14,15
 245 -198 245 -198 245 10 c 2,16,-1
 245 1103 l 2,17,18
 245 1305 245 1305 330.5 1411.5 c 128,-1,19
 416 1518 416 1518 584 1518 c 0,20,21
 663 1518 663 1518 717 1500 c 1,22,-1
 716 1362 l 1,0,1
EndSplineSet
EndChar

StartChar: approxequal
Encoding: 8776 8776 417
Width: 1045
Flags: HW
LayerCount: 2
Fore
SplineSet
196 220 m 1,0,-1
 64 241 l 1,1,2
 81 372 81 372 145 433 c 128,-1,3
 209 494 209 494 316 494 c 128,-1,4
 423 494 423 494 549 424 c 1,5,6
 654 361 654 361 706 361 c 0,7,8
 715 361 715 361 723 363 c 1,9,10
 839 380 839 380 852 498 c 1,11,-1
 981 475 l 1,12,13
 963 347 963 347 902 286.5 c 128,-1,14
 841 226 841 226 737 226 c 128,-1,15
 633 226 633 226 506.5 296.5 c 128,-1,16
 380 367 380 367 337 367 c 0,17,18
 224 367 224 367 196 220 c 1,0,-1
196 607 m 1,19,-1
 64 628 l 1,20,21
 81 758 81 758 145 818 c 128,-1,22
 209 878 209 878 318 878 c 128,-1,23
 427 878 427 878 549 807 c 0,24,25
 604 774 604 774 658 759.5 c 128,-1,26
 712 745 712 745 715 746 c 0,27,28
 774 747 774 747 809 782.5 c 128,-1,29
 844 818 844 818 852 882 c 1,30,-1
 981 860 l 1,31,32
 964 732 964 732 902.5 671 c 128,-1,33
 841 610 841 610 735 610 c 128,-1,34
 629 610 629 610 506.5 680 c 128,-1,35
 384 750 384 750 337 750 c 0,36,37
 224 750 224 750 196 607 c 1,19,-1
EndSplineSet
EndChar

StartChar: notequal
Encoding: 8800 8800 418
Width: 1094
Flags: HW
LayerCount: 2
Fore
SplineSet
208 39 m 1,0,-1
 342 297 l 1,1,-1
 98 297 l 1,2,-1
 90 406 l 1,3,-1
 401 406 l 1,4,-1
 543 688 l 1,5,-1
 98 688 l 1,6,-1
 98 799 l 1,7,-1
 594 799 l 1,8,-1
 733 1054 l 1,9,-1
 860 1053 l 1,10,-1
 725 799 l 1,11,-1
 1000 799 l 1,12,-1
 1000 688 l 1,13,-1
 677 688 l 1,14,-1
 533 406 l 1,15,-1
 992 406 l 1,16,-1
 1000 297 l 1,17,-1
 477 297 l 1,18,-1
 343 38 l 1,19,-1
 208 39 l 1,0,-1
EndSplineSet
EndChar

StartChar: lessequal
Encoding: 8804 8804 419
Width: 1093
Flags: HW
LayerCount: 2
Fore
SplineSet
94 1 m 1,0,-1
 94 168 l 1,1,-1
 998 168 l 1,2,-1
 998 1 l 1,3,-1
 94 1 l 1,0,-1
998 295 m 1,4,-1
 94 613 l 1,5,-1
 94 750 l 1,6,-1
 998 1066 l 1,7,-1
 998 888 l 1,8,-1
 282 678 l 1,9,-1
 998 464 l 1,10,-1
 998 295 l 1,4,-1
EndSplineSet
EndChar

StartChar: greaterequal
Encoding: 8805 8805 420
Width: 1093
Flags: HW
LayerCount: 2
Fore
SplineSet
1000 1 m 1,0,-1
 96 1 l 1,1,-1
 96 168 l 1,2,-1
 1000 168 l 1,3,-1
 1000 1 l 1,0,-1
96 295 m 1,4,-1
 96 464 l 1,5,-1
 812 678 l 1,6,-1
 96 888 l 1,7,-1
 96 1066 l 1,8,-1
 1000 750 l 1,9,-1
 1000 613 l 1,10,-1
 96 295 l 1,4,-1
EndSplineSet
EndChar

StartChar: lozenge
Encoding: 9674 9674 421
Width: 997
Flags: HW
LayerCount: 2
Fore
SplineSet
448 -30 m 1,0,-1
 66 670 l 1,1,-1
 452 1373 l 1,2,-1
 554 1373 l 1,3,-1
 931 672 l 1,4,-1
 543 -30 l 1,5,-1
 448 -30 l 1,0,-1
496 99 m 1,6,7
 573 240 l 1,8,9
 803 664 803 664 803 669 c 1,10,11
 502 1245 502 1245 501 1246 c 1,12,13
 501 1245 501 1245 348 959.5 c 128,-1,14
 195 674 195 674 194 674 c 2,15,-1
 496 99 l 1,6,7
EndSplineSet
EndChar

StartChar: dblgravecmb
Encoding: 65539 -1 422
Width: 667
Flags: HW
LayerCount: 2
Fore
SplineSet
665 1123 m 1,0,-1
 544 1123 l 1,1,-1
 293 1466 l 1,2,-1
 477 1466 l 1,3,-1
 665 1123 l 1,0,-1
414 1123 m 1,4,-1
 292 1123 l 1,5,-1
 2 1466 l 1,6,-1
 214 1466 l 1,7,-1
 414 1123 l 1,4,-1
EndSplineSet
EndChar

StartChar: f_i
Encoding: 65540 -1 423
Width: 1152
Flags: HW
LayerCount: 2
Fore
SplineSet
513 1433 m 0,0,1
 587 1433 587 1433 670 1422 c 1,2,-1
 670 1281 l 1,3,4
 608 1292 608 1292 549.5 1292 c 0,5,6
 490 1292 490 1292 452 1274 c 0,7,8
 376 1239 376 1239 377 1032 c 1,9,-1
 989 1032 l 1,10,-1
 989 0 l 1,11,-1
 805 0 l 1,12,-1
 805 905 l 1,13,-1
 385 905 l 1,14,-1
 385 0 l 1,15,-1
 203 0 l 1,16,-1
 203 905 l 1,17,-1
 23 905 l 1,18,-1
 23 1032 l 1,19,-1
 203 1032 l 1,20,-1
 203 1069 l 2,21,22
 202 1260 202 1260 270 1344 c 0,23,24
 342 1432 342 1432 513 1433 c 0,0,1
995.5 1222 m 128,-1,26
 962 1186 962 1186 902.5 1186 c 128,-1,27
 843 1186 843 1186 809 1222 c 128,-1,28
 775 1258 775 1258 775 1307.5 c 128,-1,29
 775 1357 775 1357 808.5 1392.5 c 128,-1,30
 842 1428 842 1428 902 1428 c 128,-1,31
 962 1428 962 1428 995.5 1392 c 128,-1,32
 1029 1356 1029 1356 1029 1307 c 128,-1,25
 1029 1258 1029 1258 995.5 1222 c 128,-1,26
EndSplineSet
EndChar

StartChar: f_l
Encoding: 65541 -1 424
Width: 1258
Flags: HW
LayerCount: 2
Fore
SplineSet
1143 -9 m 2,0,1
 1043 -9 1043 -9 1000.5 3 c 128,-1,2
 958 15 958 15 934.5 23.5 c 128,-1,3
 911 32 911 32 894 48 c 128,-1,4
 877 64 877 64 865 77 c 128,-1,5
 853 90 853 90 845.5 113.5 c 128,-1,6
 838 137 838 137 833.5 153.5 c 128,-1,7
 829 170 829 170 827 200 c 0,8,9
 824 244 824 244 824 301 c 2,10,-1
 824 1287 l 1,11,12
 644 1299 644 1299 579 1299 c 128,-1,13
 514 1299 514 1299 468 1279 c 0,14,15
 377 1239 377 1239 377 1032 c 1,16,-1
 661 1032 l 1,17,-1
 661 905 l 1,18,-1
 385 905 l 1,19,-1
 385 0 l 1,20,-1
 203 0 l 1,21,-1
 203 905 l 1,22,-1
 23 905 l 1,23,-1
 23 1032 l 1,24,-1
 203 1032 l 1,25,-1
 203 1069 l 2,26,27
 203 1259 203 1259 290.5 1346 c 128,-1,28
 378 1433 378 1433 576 1433 c 0,29,30
 724 1433 724 1433 934 1410 c 1,31,-1
 1006 1403 l 1,32,-1
 1006 299 l 2,33,34
 1006 218 1006 218 1023 189.5 c 128,-1,35
 1040 161 1040 161 1068 153 c 0,36,37
 1114 140 1114 140 1225 140 c 1,38,-1
 1225 -9 l 1,39,-1
 1143 -9 l 2,0,1
EndSplineSet
EndChar

StartChar: one.superior
Encoding: 65542 -1 425
Width: 577
Flags: HW
LayerCount: 2
Fore
SplineSet
90 552 m 1,0,-1
 90 653 l 1,1,-1
 231 653 l 1,2,-1
 231 1240 l 1,3,-1
 76 1194 l 1,4,-1
 76 1277 l 1,5,6
 179 1301 179 1301 215 1374 c 1,7,-1
 365 1374 l 1,8,-1
 365 653 l 1,9,-1
 506 653 l 1,10,-1
 506 552 l 1,11,-1
 90 552 l 1,0,-1
EndSplineSet
EndChar

StartChar: three.superior
Encoding: 65543 -1 426
Width: 694
Flags: HW
LayerCount: 2
Fore
SplineSet
72 1321 m 1,0,1
 158 1382 158 1382 306 1382 c 128,-1,2
 454 1382 454 1382 527 1320.5 c 128,-1,3
 600 1259 600 1259 600 1178 c 128,-1,4
 600 1097 600 1097 564 1056 c 128,-1,5
 528 1015 528 1015 467 988 c 1,6,7
 531 968 531 968 580 914 c 128,-1,8
 629 860 629 860 629 784 c 0,9,10
 629 677 629 677 545.5 611 c 128,-1,11
 462 545 462 545 316 545 c 0,12,13
 235 545 235 545 170.5 564.5 c 128,-1,14
 106 584 106 584 72 607 c 1,15,-1
 72 704 l 1,16,-1
 104 704 l 1,17,18
 164 645 164 645 280 645 c 0,19,20
 498 645 498 645 498 784 c 0,21,22
 498 849 498 849 444.5 898.5 c 128,-1,23
 391 948 391 948 283 948 c 2,24,-1
 217 948 l 1,25,-1
 217 1032 l 1,26,-1
 283 1032 l 2,27,28
 467 1032 467 1032 467 1168 c 0,29,30
 467 1220 467 1220 424 1250 c 128,-1,31
 381 1280 381 1280 312 1280 c 0,32,33
 190 1280 190 1280 125 1240 c 1,34,-1
 104 1226 l 1,35,-1
 72 1226 l 1,36,-1
 72 1321 l 1,0,1
EndSplineSet
EndChar

StartChar: two.superior
Encoding: 65544 -1 427
Width: 660
Flags: HW
LayerCount: 2
Fore
SplineSet
85 553 m 1,0,-1
 85 651 l 1,1,2
 450 1007 450 1007 450 1154 c 0,3,4
 450 1217 450 1217 417.5 1249 c 128,-1,5
 385 1281 385 1281 324 1281 c 128,-1,6
 263 1281 263 1281 204 1259 c 128,-1,7
 145 1237 145 1237 121 1214 c 1,8,-1
 97 1309 l 1,9,10
 125 1337 125 1337 194 1360 c 128,-1,11
 263 1383 263 1383 323 1383 c 0,12,13
 440 1383 440 1383 503.5 1322.5 c 128,-1,14
 567 1262 567 1262 567 1157 c 0,15,16
 566 1041 566 1041 472 915 c 0,17,18
 399 817 399 817 235 653 c 1,19,-1
 570 653 l 1,20,-1
 570 553 l 1,21,-1
 85 553 l 1,0,-1
EndSplineSet
EndChar
